<mxfile host="app.diagrams.net" modified="2022-02-07T14:58:47.405Z" agent="5.0 (Windows NT 10.0; Win64; x64) AppleWebKit/537.36 (KHTML, like Gecko) Chrome/97.0.4692.99 Safari/537.36" etag="nxshVkqAoZsWXsOQ5YjC" version="16.5.2" type="github">
  <diagram id="ee18EBXOyEq-dEGFgHTC" name="Page-1">
    <mxGraphModel dx="1640" dy="2759" grid="1" gridSize="10" guides="1" tooltips="1" connect="1" arrows="1" fold="1" page="1" pageScale="1" pageWidth="827" pageHeight="1169" math="0" shadow="0">
      <root>
        <mxCell id="0" />
        <mxCell id="1" parent="0" />
        <mxCell id="P6JcsMyotNKticRZ92DO-1" value="de.dfki.mycbr.core.casebase" style="shape=folder;fontStyle=1;spacingTop=-7;tabWidth=180;tabHeight=14;tabPosition=left;html=1;verticalAlign=top;align=left;horizontal=1;labelPosition=center;verticalLabelPosition=middle;" parent="1" vertex="1">
          <mxGeometry x="1750" y="-50" width="2683" height="1190" as="geometry" />
        </mxCell>
        <mxCell id="pbR3uyqQSh66m5jHqkTy-1" value="de.dfki.mycbr.core" style="shape=folder;fontStyle=1;spacingTop=-7;tabWidth=120;tabHeight=14;tabPosition=left;html=1;verticalAlign=top;align=left;horizontal=1;labelPosition=center;verticalLabelPosition=middle;" parent="1" vertex="1">
          <mxGeometry x="300" y="50" width="1230" height="1190" as="geometry" />
        </mxCell>
        <mxCell id="pbR3uyqQSh66m5jHqkTy-2" value="DefaultCaseBase" style="swimlane;fontStyle=1;align=center;verticalAlign=top;childLayout=stackLayout;horizontal=1;startSize=26;horizontalStack=0;resizeParent=1;resizeParentMax=0;resizeLast=0;collapsible=1;marginBottom=0;" parent="1" vertex="1">
          <mxGeometry x="340" y="120" width="240" height="270" as="geometry" />
        </mxCell>
        <mxCell id="pbR3uyqQSh66m5jHqkTy-3" value="- cases: HashMap&lt;String, Instance&gt;&#xa;- name: String&#xa;- prj: Project&#xa;- author: String&#xa;- date: Date&#xa;- df: DateFormat" style="text;strokeColor=none;fillColor=none;align=left;verticalAlign=top;spacingLeft=4;spacingRight=4;overflow=hidden;rotatable=0;points=[[0,0.5],[1,0.5]];portConstraint=eastwest;" parent="pbR3uyqQSh66m5jHqkTy-2" vertex="1">
          <mxGeometry y="26" width="240" height="94" as="geometry" />
        </mxCell>
        <mxCell id="pbR3uyqQSh66m5jHqkTy-4" value="" style="line;strokeWidth=1;fillColor=none;align=left;verticalAlign=middle;spacingTop=-1;spacingLeft=3;spacingRight=3;rotatable=0;labelPosition=right;points=[];portConstraint=eastwest;" parent="pbR3uyqQSh66m5jHqkTy-2" vertex="1">
          <mxGeometry y="120" width="240" height="8" as="geometry" />
        </mxCell>
        <mxCell id="pbR3uyqQSh66m5jHqkTy-5" value="+ DefaultCaseBase(Project, String)&#xa;+ DefaultCaseBase(Project, String, int)&#xa;+ removeCase(Instance): boolean&#xa;+ update(Observable, Object): void&#xa;+ setAuthor(String): void&#xa;+ getAuthor(): String&#xa;+ setDate(Date): void&#xa;+ getDate(): Date&#xa;+ getDateFormat(): DateFormat&#xa;" style="text;strokeColor=none;fillColor=none;align=left;verticalAlign=top;spacingLeft=4;spacingRight=4;overflow=hidden;rotatable=0;points=[[0,0.5],[1,0.5]];portConstraint=eastwest;" parent="pbR3uyqQSh66m5jHqkTy-2" vertex="1">
          <mxGeometry y="128" width="240" height="142" as="geometry" />
        </mxCell>
        <mxCell id="pbR3uyqQSh66m5jHqkTy-6" value="&lt;&lt;Interface&gt;&gt;&#xa;ICaseBase" style="swimlane;fontStyle=3;align=center;verticalAlign=middle;childLayout=stackLayout;horizontal=1;startSize=26;horizontalStack=0;resizeParent=1;resizeParentMax=0;resizeLast=0;collapsible=1;marginBottom=0;" parent="1" vertex="1">
          <mxGeometry x="650" y="120" width="220" height="166" as="geometry" />
        </mxCell>
        <mxCell id="pbR3uyqQSh66m5jHqkTy-7" value="" style="line;strokeWidth=1;fillColor=none;align=left;verticalAlign=middle;spacingTop=-1;spacingLeft=3;spacingRight=3;rotatable=0;labelPosition=right;points=[];portConstraint=eastwest;" parent="pbR3uyqQSh66m5jHqkTy-6" vertex="1">
          <mxGeometry y="26" width="220" height="10" as="geometry" />
        </mxCell>
        <mxCell id="pbR3uyqQSh66m5jHqkTy-8" value="+ Meta&#xa;+ getName()&#xa;+ setName(String)&#xa;+ containsCase(String): Instance&#xa;+ removeCase(String): boolean&#xa;+ getCases(): Collection&lt;Instance&gt;&#xa;+ addCase(Instance): void&#xa;+ getProject(): Project" style="text;strokeColor=none;fillColor=none;align=left;verticalAlign=top;spacingLeft=4;spacingRight=4;overflow=hidden;rotatable=0;points=[[0,0.5],[1,0.5]];portConstraint=eastwest;" parent="pbR3uyqQSh66m5jHqkTy-6" vertex="1">
          <mxGeometry y="36" width="220" height="130" as="geometry" />
        </mxCell>
        <mxCell id="pbR3uyqQSh66m5jHqkTy-9" value="" style="endArrow=block;dashed=1;endFill=0;endSize=12;html=1;exitX=0.992;exitY=-0.017;exitDx=0;exitDy=0;exitPerimeter=0;entryX=-0.004;entryY=0.417;entryDx=0;entryDy=0;entryPerimeter=0;" parent="1" source="pbR3uyqQSh66m5jHqkTy-5" target="pbR3uyqQSh66m5jHqkTy-8" edge="1">
          <mxGeometry width="160" relative="1" as="geometry">
            <mxPoint x="590" y="242" as="sourcePoint" />
            <mxPoint x="692" y="253.70999999999998" as="targetPoint" />
          </mxGeometry>
        </mxCell>
        <mxCell id="pbR3uyqQSh66m5jHqkTy-10" value="Project" style="swimlane;fontStyle=1;align=center;verticalAlign=top;childLayout=stackLayout;horizontal=1;startSize=26;horizontalStack=0;resizeParent=1;resizeParentMax=0;resizeLast=0;collapsible=1;marginBottom=0;" parent="1" vertex="1">
          <mxGeometry x="930" y="120" width="570" height="1120" as="geometry" />
        </mxCell>
        <mxCell id="pbR3uyqQSh66m5jHqkTy-11" value="+ UNDEFINED_SPECIAL_ATTRIBUTE: String = &quot;_undefined_&quot;&#xa;+ UNKNOWN_SPECIAL_ATTRIBUTE: String = &quot;_unknown_&quot;&#xa;+ NO_SPECIAL_VALUE: String = &quot;_others_&quot;&#xa;+ DEFAULT_FCT_NAME: String = &quot;default function&quot;&#xa;+ DEFAULT_FCT_NAME_TMP: String = &quot;_default function TMP!_&quot;&#xa;+ ID_DEFAULT: String = &quot;Project&quot;&#xa;+ LOGGER: Logger = LogManager.getLogger(Project.class)" style="text;strokeColor=none;fillColor=none;align=left;verticalAlign=top;spacingLeft=4;spacingRight=4;overflow=hidden;rotatable=0;points=[[0,0.5],[1,0.5]];portConstraint=eastwest;fontStyle=4" parent="pbR3uyqQSh66m5jHqkTy-10" vertex="1">
          <mxGeometry y="26" width="570" height="114" as="geometry" />
        </mxCell>
        <mxCell id="pbR3uyqQSh66m5jHqkTy-12" value="- caseBases: HashMap&lt;String, ICaseBase&gt;&#xa;- projectPath:String&#xa;- projectAuthor: String&#xa;- extension: String&#xa;- specialValueDesc: SpecialDesc&#xa;- specialValueFct: SpecialFct&#xa;- inheritanceDesc: SymbolDesc&#xa;- inheritanceFct: TaxonomyFct&#xa;- explanationManager: ExplanationManager&#xa;- importer: XMLImporter" style="text;strokeColor=none;fillColor=none;align=left;verticalAlign=top;spacingLeft=4;spacingRight=4;overflow=hidden;rotatable=0;points=[[0,0.5],[1,0.5]];portConstraint=eastwest;" parent="pbR3uyqQSh66m5jHqkTy-10" vertex="1">
          <mxGeometry y="140" width="570" height="150" as="geometry" />
        </mxCell>
        <mxCell id="pbR3uyqQSh66m5jHqkTy-13" value="" style="line;strokeWidth=1;fillColor=none;align=left;verticalAlign=middle;spacingTop=-1;spacingLeft=3;spacingRight=3;rotatable=0;labelPosition=right;points=[];portConstraint=eastwest;" parent="pbR3uyqQSh66m5jHqkTy-10" vertex="1">
          <mxGeometry y="290" width="570" height="10" as="geometry" />
        </mxCell>
        <mxCell id="pbR3uyqQSh66m5jHqkTy-14" value="+ Project()&#xa;+ Project(String)Â &#xa;- initSVDesc(): void&#xa;- load(): void&#xa;+ isImporting(): boolean&#xa;+ getTotalNumberOfCases(): int&#xa;+ getCurrentNumberOfCases(): int&#xa;+ save(): void&#xa;- initFcts(): void&#xa;+ createDeafaultCB(String): DefaultCaseBase&#xa;+ hasCB(String): boolean&#xa;+ getCB(String): ICaseBase&#xa;+ deleteCaseBase(String): I CaseBase&#xa;+ getCaseBases(): HashMap&lt;String, ICaseBase&gt;&#xa;+ createTopConcept(String): Concept&#xa;+ getConceptByID(String): Concept&#xa;+ hasConceptWithID(String): Boolean&#xa;+ getAttDescsByName(String): LinkedList&lt;AttributeDesc&gt;&#xa;- searchAttInSubConcepts(Concept, List&lt;AttributeDesc&gt;, String): void&#xa;- getAttDescsByName(Concept, List&lt;AttributeDesc&gt;, String): void&#xa;+ setPath(String): void&#xa;+ getPath(): String&#xa;+ getExtension(): String&#xa;+ setAuthor(String): void&#xa;+ getAuthor(): String&#xa;+ getpecialValueDesc(): SpecialDesc&#xa;+ isSpecialAttribute(String): boolean&#xa;+ getExplanationManager(): ExplanationManager&#xa;+ addSpecialValue(String): void&#xa;+ getInstance(String): Instance&#xa;- initInheritanceDesc(Project, LinkedList&lt;SymbolAttribute&gt;): void&#xa;+ getInhFct(): TaxonomyFct&#xa;+ setInhFct(SpecialFct): void&#xa;+ addInhFct(SpecialFct): TaxonomyFct&#xa;+ getSpecialFct(): SymbolFct&#xa;+ setSpecialValueFct(SpecialFct): void&#xa;+ calculateSpecialSimilarity(Attribute, Attribute): Similarity&#xa;+ calculateMultipleAttributeSimilarity(Object, MultipleAttribute&lt;?&gt;, MultipleAttribute&lt;?&gt;): Similarity&#xa;+ getSpecialAttribute(String): Attribute&#xa;+ cleanInstances(Concept, AttributeDesc): void&#xa;+ removeSubSoncept(String): Concept&#xa;+ getSuperConcept():Concept&#xa;+ setSuperConcept(Concept, boolean): void&#xa;+ getAttributeDescs(): HashMap&lt;String, AttributeDesc&gt;&#xa;+ getAllAttributeDescs(): HashMap&lt;String, AttributeDesc&gt;&#xa;+ addAttributeDesc(AttributeDesc): void&#xa;+ removeAttributeDesc(String): boolean&#xa;+ canOverride(Concept): boolean&#xa;+ getProject(): Project&#xa;+ addPartOfRelation(ConceptDesc): void&#xa;+ getPartOfRelations(): Vector&lt;ConceptDesc&gt;&#xa;+ deletePartOfRelation(ConceptDesc): void&#xa;+ delete()&#xa;+ getLocalSimilarity(Attribute, Attribute, AttributeDesc): Similarity&#xa;+ createDefaultCB(String, int): DefaultCaseBase&#xa;+ update(Observable, Object): void&#xa;+ removeCase(String): void&#xa;+ getAllInstances(): Collection&lt;Instances&gt;" style="text;strokeColor=none;fillColor=none;align=left;verticalAlign=top;spacingLeft=4;spacingRight=4;overflow=hidden;rotatable=0;points=[[0,0.5],[1,0.5]];portConstraint=eastwest;" parent="pbR3uyqQSh66m5jHqkTy-10" vertex="1">
          <mxGeometry y="300" width="570" height="820" as="geometry" />
        </mxCell>
        <mxCell id="pbR3uyqQSh66m5jHqkTy-15" value="Test" style="swimlane;fontStyle=1;align=center;verticalAlign=top;childLayout=stackLayout;horizontal=1;startSize=26;horizontalStack=0;resizeParent=1;resizeParentMax=0;resizeLast=0;collapsible=1;marginBottom=0;" parent="1" vertex="1">
          <mxGeometry x="340" y="420" width="240" height="34" as="geometry" />
        </mxCell>
        <mxCell id="pbR3uyqQSh66m5jHqkTy-16" value="" style="line;strokeWidth=1;fillColor=none;align=left;verticalAlign=middle;spacingTop=-1;spacingLeft=3;spacingRight=3;rotatable=0;labelPosition=right;points=[];portConstraint=eastwest;" parent="pbR3uyqQSh66m5jHqkTy-15" vertex="1">
          <mxGeometry y="26" width="240" height="8" as="geometry" />
        </mxCell>
        <mxCell id="pbR3uyqQSh66m5jHqkTy-17" value="de.dfki.mycbr.core.action" style="shape=folder;fontStyle=1;spacingTop=-7;tabWidth=160;tabHeight=14;tabPosition=left;html=1;verticalAlign=top;align=left;horizontal=1;labelPosition=center;verticalLabelPosition=middle;" parent="1" vertex="1">
          <mxGeometry x="-660" y="60" width="840" height="300" as="geometry" />
        </mxCell>
        <mxCell id="pbR3uyqQSh66m5jHqkTy-18" value="&lt;&lt;Interface&gt;&gt;&#xa;Action" style="swimlane;fontStyle=1;align=center;verticalAlign=middle;childLayout=stackLayout;horizontal=1;startSize=26;horizontalStack=0;resizeParent=1;resizeParentMax=0;resizeLast=0;collapsible=1;marginBottom=0;" parent="1" vertex="1">
          <mxGeometry x="-320" y="90" width="240" height="90" as="geometry" />
        </mxCell>
        <mxCell id="pbR3uyqQSh66m5jHqkTy-19" value="" style="line;strokeWidth=1;fillColor=none;align=left;verticalAlign=middle;spacingTop=-1;spacingLeft=3;spacingRight=3;rotatable=0;labelPosition=right;points=[];portConstraint=eastwest;" parent="pbR3uyqQSh66m5jHqkTy-18" vertex="1">
          <mxGeometry y="26" width="240" height="8" as="geometry" />
        </mxCell>
        <mxCell id="pbR3uyqQSh66m5jHqkTy-20" value="+ getType(): ActionType&#xa;+ getData(): Object&#xa;+ getObservable(): Observable" style="text;strokeColor=none;fillColor=none;align=left;verticalAlign=top;spacingLeft=4;spacingRight=4;overflow=hidden;rotatable=0;points=[[0,0.5],[1,0.5]];portConstraint=eastwest;" parent="pbR3uyqQSh66m5jHqkTy-18" vertex="1">
          <mxGeometry y="34" width="240" height="56" as="geometry" />
        </mxCell>
        <mxCell id="pbR3uyqQSh66m5jHqkTy-21" value="&lt;&lt;enumeration&gt;&gt;&#xa;ActionType" style="swimlane;fontStyle=1;align=center;verticalAlign=middle;childLayout=stackLayout;horizontal=1;startSize=26;horizontalStack=0;resizeParent=1;resizeParentMax=0;resizeLast=0;collapsible=1;marginBottom=0;" parent="1" vertex="1">
          <mxGeometry x="20" y="90" width="140" height="90" as="geometry" />
        </mxCell>
        <mxCell id="pbR3uyqQSh66m5jHqkTy-22" value="RenameAction&#xa;MoveAction&#xa;DeleteAction&#xa;AddAction&#xa;" style="text;strokeColor=none;fillColor=none;align=left;verticalAlign=top;spacingLeft=4;spacingRight=4;overflow=hidden;rotatable=0;points=[[0,0.5],[1,0.5]];portConstraint=eastwest;" parent="pbR3uyqQSh66m5jHqkTy-21" vertex="1">
          <mxGeometry y="26" width="140" height="64" as="geometry" />
        </mxCell>
        <mxCell id="pbR3uyqQSh66m5jHqkTy-23" value="AddAction" style="swimlane;fontStyle=1;align=center;verticalAlign=top;childLayout=stackLayout;horizontal=1;startSize=26;horizontalStack=0;resizeParent=1;resizeParentMax=0;resizeLast=0;collapsible=1;marginBottom=0;" parent="1" vertex="1">
          <mxGeometry x="-630" y="90" width="240" height="110" as="geometry" />
        </mxCell>
        <mxCell id="pbR3uyqQSh66m5jHqkTy-24" value="- observable: Observable&#xa;- addedObject: Object" style="text;strokeColor=none;fillColor=none;align=left;verticalAlign=top;spacingLeft=4;spacingRight=4;overflow=hidden;rotatable=0;points=[[0,0.5],[1,0.5]];portConstraint=eastwest;" parent="pbR3uyqQSh66m5jHqkTy-23" vertex="1">
          <mxGeometry y="26" width="240" height="34" as="geometry" />
        </mxCell>
        <mxCell id="pbR3uyqQSh66m5jHqkTy-25" value="" style="line;strokeWidth=1;fillColor=none;align=left;verticalAlign=middle;spacingTop=-1;spacingLeft=3;spacingRight=3;rotatable=0;labelPosition=right;points=[];portConstraint=eastwest;" parent="pbR3uyqQSh66m5jHqkTy-23" vertex="1">
          <mxGeometry y="60" width="240" height="8" as="geometry" />
        </mxCell>
        <mxCell id="pbR3uyqQSh66m5jHqkTy-26" value="+ AddAction(Observable, Object)&#xa;+ getAddedObject(): Object" style="text;strokeColor=none;fillColor=none;align=left;verticalAlign=top;spacingLeft=4;spacingRight=4;overflow=hidden;rotatable=0;points=[[0,0.5],[1,0.5]];portConstraint=eastwest;" parent="pbR3uyqQSh66m5jHqkTy-23" vertex="1">
          <mxGeometry y="68" width="240" height="42" as="geometry" />
        </mxCell>
        <mxCell id="pbR3uyqQSh66m5jHqkTy-27" value="DeleteAction" style="swimlane;fontStyle=1;align=center;verticalAlign=top;childLayout=stackLayout;horizontal=1;startSize=26;horizontalStack=0;resizeParent=1;resizeParentMax=0;resizeLast=0;collapsible=1;marginBottom=0;" parent="1" vertex="1">
          <mxGeometry x="-630" y="220" width="240" height="120" as="geometry" />
        </mxCell>
        <mxCell id="pbR3uyqQSh66m5jHqkTy-28" value="- observable: Observable&#xa;- deletedObject: Object" style="text;strokeColor=none;fillColor=none;align=left;verticalAlign=top;spacingLeft=4;spacingRight=4;overflow=hidden;rotatable=0;points=[[0,0.5],[1,0.5]];portConstraint=eastwest;" parent="pbR3uyqQSh66m5jHqkTy-27" vertex="1">
          <mxGeometry y="26" width="240" height="34" as="geometry" />
        </mxCell>
        <mxCell id="pbR3uyqQSh66m5jHqkTy-29" value="" style="line;strokeWidth=1;fillColor=none;align=left;verticalAlign=middle;spacingTop=-1;spacingLeft=3;spacingRight=3;rotatable=0;labelPosition=right;points=[];portConstraint=eastwest;" parent="pbR3uyqQSh66m5jHqkTy-27" vertex="1">
          <mxGeometry y="60" width="240" height="8" as="geometry" />
        </mxCell>
        <mxCell id="pbR3uyqQSh66m5jHqkTy-30" value="+ DeleteAction(Observable, Object)&#xa;+ getDeletedObject(): Object" style="text;strokeColor=none;fillColor=none;align=left;verticalAlign=top;spacingLeft=4;spacingRight=4;overflow=hidden;rotatable=0;points=[[0,0.5],[1,0.5]];portConstraint=eastwest;" parent="pbR3uyqQSh66m5jHqkTy-27" vertex="1">
          <mxGeometry y="68" width="240" height="52" as="geometry" />
        </mxCell>
        <mxCell id="pbR3uyqQSh66m5jHqkTy-31" value="DeleteAction" style="swimlane;fontStyle=1;align=center;verticalAlign=top;childLayout=stackLayout;horizontal=1;startSize=26;horizontalStack=0;resizeParent=1;resizeParentMax=0;resizeLast=0;collapsible=1;marginBottom=0;" parent="1" vertex="1">
          <mxGeometry x="-350" y="220" width="240" height="120" as="geometry" />
        </mxCell>
        <mxCell id="pbR3uyqQSh66m5jHqkTy-32" value="- o: Observable&#xa;- newParent: Object" style="text;strokeColor=none;fillColor=none;align=left;verticalAlign=top;spacingLeft=4;spacingRight=4;overflow=hidden;rotatable=0;points=[[0,0.5],[1,0.5]];portConstraint=eastwest;" parent="pbR3uyqQSh66m5jHqkTy-31" vertex="1">
          <mxGeometry y="26" width="240" height="34" as="geometry" />
        </mxCell>
        <mxCell id="pbR3uyqQSh66m5jHqkTy-33" value="" style="line;strokeWidth=1;fillColor=none;align=left;verticalAlign=middle;spacingTop=-1;spacingLeft=3;spacingRight=3;rotatable=0;labelPosition=right;points=[];portConstraint=eastwest;" parent="pbR3uyqQSh66m5jHqkTy-31" vertex="1">
          <mxGeometry y="60" width="240" height="8" as="geometry" />
        </mxCell>
        <mxCell id="pbR3uyqQSh66m5jHqkTy-34" value="+ MoveAction(Observable, Object)&#xa;+ getNewParent(): Object&#xa;" style="text;strokeColor=none;fillColor=none;align=left;verticalAlign=top;spacingLeft=4;spacingRight=4;overflow=hidden;rotatable=0;points=[[0,0.5],[1,0.5]];portConstraint=eastwest;" parent="pbR3uyqQSh66m5jHqkTy-31" vertex="1">
          <mxGeometry y="68" width="240" height="52" as="geometry" />
        </mxCell>
        <mxCell id="pbR3uyqQSh66m5jHqkTy-35" value="RenameAction" style="swimlane;fontStyle=1;align=center;verticalAlign=top;childLayout=stackLayout;horizontal=1;startSize=26;horizontalStack=0;resizeParent=1;resizeParentMax=0;resizeLast=0;collapsible=1;marginBottom=0;" parent="1" vertex="1">
          <mxGeometry x="-80" y="220" width="240" height="110" as="geometry" />
        </mxCell>
        <mxCell id="pbR3uyqQSh66m5jHqkTy-36" value="- o: Observable&#xa;- oldName: String" style="text;strokeColor=none;fillColor=none;align=left;verticalAlign=top;spacingLeft=4;spacingRight=4;overflow=hidden;rotatable=0;points=[[0,0.5],[1,0.5]];portConstraint=eastwest;" parent="pbR3uyqQSh66m5jHqkTy-35" vertex="1">
          <mxGeometry y="26" width="240" height="34" as="geometry" />
        </mxCell>
        <mxCell id="pbR3uyqQSh66m5jHqkTy-37" value="" style="line;strokeWidth=1;fillColor=none;align=left;verticalAlign=middle;spacingTop=-1;spacingLeft=3;spacingRight=3;rotatable=0;labelPosition=right;points=[];portConstraint=eastwest;" parent="pbR3uyqQSh66m5jHqkTy-35" vertex="1">
          <mxGeometry y="60" width="240" height="8" as="geometry" />
        </mxCell>
        <mxCell id="pbR3uyqQSh66m5jHqkTy-38" value="+ RenameAction(Observable, Object)&#xa;+ getOldName(): String&#xa;" style="text;strokeColor=none;fillColor=none;align=left;verticalAlign=top;spacingLeft=4;spacingRight=4;overflow=hidden;rotatable=0;points=[[0,0.5],[1,0.5]];portConstraint=eastwest;" parent="pbR3uyqQSh66m5jHqkTy-35" vertex="1">
          <mxGeometry y="68" width="240" height="42" as="geometry" />
        </mxCell>
        <mxCell id="pbR3uyqQSh66m5jHqkTy-39" value="" style="endArrow=block;dashed=1;endFill=0;endSize=12;html=1;entryX=-0.012;entryY=0.25;entryDx=0;entryDy=0;entryPerimeter=0;" parent="1" target="pbR3uyqQSh66m5jHqkTy-20" edge="1">
          <mxGeometry width="160" relative="1" as="geometry">
            <mxPoint x="-390" y="152" as="sourcePoint" />
            <mxPoint x="-230" y="179" as="targetPoint" />
          </mxGeometry>
        </mxCell>
        <mxCell id="pbR3uyqQSh66m5jHqkTy-40" value="" style="endArrow=block;dashed=1;endFill=0;endSize=12;html=1;entryX=-0.008;entryY=0.935;entryDx=0;entryDy=0;entryPerimeter=0;exitX=1;exitY=0;exitDx=0;exitDy=0;" parent="1" source="pbR3uyqQSh66m5jHqkTy-27" target="pbR3uyqQSh66m5jHqkTy-20" edge="1">
          <mxGeometry width="160" relative="1" as="geometry">
            <mxPoint x="-380" y="162" as="sourcePoint" />
            <mxPoint x="-312.8800000000001" y="148" as="targetPoint" />
          </mxGeometry>
        </mxCell>
        <mxCell id="pbR3uyqQSh66m5jHqkTy-41" value="" style="endArrow=block;dashed=1;endFill=0;endSize=12;html=1;exitX=0.464;exitY=-0.01;exitDx=0;exitDy=0;exitPerimeter=0;" parent="1" source="pbR3uyqQSh66m5jHqkTy-31" target="pbR3uyqQSh66m5jHqkTy-20" edge="1">
          <mxGeometry width="160" relative="1" as="geometry">
            <mxPoint x="-380" y="230" as="sourcePoint" />
            <mxPoint x="-311.9200000000001" y="186.36000000000013" as="targetPoint" />
          </mxGeometry>
        </mxCell>
        <mxCell id="pbR3uyqQSh66m5jHqkTy-42" value="" style="endArrow=block;dashed=1;endFill=0;endSize=12;html=1;entryX=1.009;entryY=0.979;entryDx=0;entryDy=0;entryPerimeter=0;exitX=0.5;exitY=0;exitDx=0;exitDy=0;" parent="1" source="pbR3uyqQSh66m5jHqkTy-35" target="pbR3uyqQSh66m5jHqkTy-20" edge="1">
          <mxGeometry width="160" relative="1" as="geometry">
            <mxPoint x="-220.14970059880216" y="230" as="sourcePoint" />
            <mxPoint x="-220.23999999999978" y="193.80800000000022" as="targetPoint" />
          </mxGeometry>
        </mxCell>
        <mxCell id="P6JcsMyotNKticRZ92DO-2" value="Attribute" style="swimlane;fontStyle=3;align=center;verticalAlign=top;childLayout=stackLayout;horizontal=1;startSize=26;horizontalStack=0;resizeParent=1;resizeParentMax=0;resizeLast=0;collapsible=1;marginBottom=0;" parent="1" vertex="1">
          <mxGeometry x="3290" y="450" width="160" height="60" as="geometry" />
        </mxCell>
        <mxCell id="P6JcsMyotNKticRZ92DO-5" value="" style="line;strokeWidth=1;fillColor=none;align=left;verticalAlign=middle;spacingTop=-1;spacingLeft=3;spacingRight=3;rotatable=0;labelPosition=right;points=[];portConstraint=eastwest;" parent="P6JcsMyotNKticRZ92DO-2" vertex="1">
          <mxGeometry y="26" width="160" height="10" as="geometry" />
        </mxCell>
        <mxCell id="P6JcsMyotNKticRZ92DO-6" value="+getValueAsString(): String" style="text;strokeColor=none;fillColor=none;align=left;verticalAlign=top;spacingLeft=4;spacingRight=4;overflow=hidden;rotatable=0;points=[[0,0.5],[1,0.5]];portConstraint=eastwest;fontStyle=2" parent="P6JcsMyotNKticRZ92DO-2" vertex="1">
          <mxGeometry y="36" width="160" height="24" as="geometry" />
        </mxCell>
        <mxCell id="P6JcsMyotNKticRZ92DO-7" value="RangeÂ " style="swimlane;fontStyle=3;align=center;verticalAlign=top;childLayout=stackLayout;horizontal=1;startSize=26;horizontalStack=0;resizeParent=1;resizeParentMax=0;resizeLast=0;collapsible=1;marginBottom=0;" parent="1" vertex="1">
          <mxGeometry x="2220" y="530" width="210" height="150" as="geometry" />
        </mxCell>
        <mxCell id="P6JcsMyotNKticRZ92DO-10" value="- project: Project" style="text;strokeColor=none;fillColor=none;align=left;verticalAlign=top;spacingLeft=4;spacingRight=4;overflow=hidden;rotatable=0;points=[[0,0.5],[1,0.5]];portConstraint=eastwest;" parent="P6JcsMyotNKticRZ92DO-7" vertex="1">
          <mxGeometry y="26" width="210" height="24" as="geometry" />
        </mxCell>
        <mxCell id="P6JcsMyotNKticRZ92DO-8" value="" style="line;strokeWidth=1;fillColor=none;align=left;verticalAlign=middle;spacingTop=-1;spacingLeft=3;spacingRight=3;rotatable=0;labelPosition=right;points=[];portConstraint=eastwest;" parent="P6JcsMyotNKticRZ92DO-7" vertex="1">
          <mxGeometry y="50" width="210" height="6" as="geometry" />
        </mxCell>
        <mxCell id="P6JcsMyotNKticRZ92DO-9" value="+ Range(Project)" style="text;strokeColor=none;fillColor=none;align=left;verticalAlign=top;spacingLeft=4;spacingRight=4;overflow=hidden;rotatable=0;points=[[0,0.5],[1,0.5]];portConstraint=eastwest;fontStyle=0" parent="P6JcsMyotNKticRZ92DO-7" vertex="1">
          <mxGeometry y="56" width="210" height="24" as="geometry" />
        </mxCell>
        <mxCell id="P6JcsMyotNKticRZ92DO-12" value="+ getAttribute(Object): Attribute&#xa;+ parseValue(String): Attribute" style="text;strokeColor=none;fillColor=none;align=left;verticalAlign=top;spacingLeft=4;spacingRight=4;overflow=hidden;rotatable=0;points=[[0,0.5],[1,0.5]];portConstraint=eastwest;fontStyle=2" parent="P6JcsMyotNKticRZ92DO-7" vertex="1">
          <mxGeometry y="80" width="210" height="30" as="geometry" />
        </mxCell>
        <mxCell id="P6JcsMyotNKticRZ92DO-11" value="+ setProject(Project): void&#xa;+ getProject(): Project" style="text;strokeColor=none;fillColor=none;align=left;verticalAlign=top;spacingLeft=4;spacingRight=4;overflow=hidden;rotatable=0;points=[[0,0.5],[1,0.5]];portConstraint=eastwest;fontStyle=0" parent="P6JcsMyotNKticRZ92DO-7" vertex="1">
          <mxGeometry y="110" width="210" height="40" as="geometry" />
        </mxCell>
        <mxCell id="P6JcsMyotNKticRZ92DO-13" value="ConceptRange" style="swimlane;fontStyle=1;align=center;verticalAlign=top;childLayout=stackLayout;horizontal=1;startSize=26;horizontalStack=0;resizeParent=1;resizeParentMax=0;resizeLast=0;collapsible=1;marginBottom=0;" parent="1" vertex="1">
          <mxGeometry x="1820" y="510" width="260" height="310" as="geometry" />
        </mxCell>
        <mxCell id="Zt8ITWkyCNrxcCpvS0CE-1" value="- concept: Concept&#xa;- instances: HasMap&lt;String, Instance&gt;" style="text;strokeColor=none;fillColor=none;align=left;verticalAlign=top;spacingLeft=4;spacingRight=4;overflow=hidden;rotatable=0;points=[[0,0.5],[1,0.5]];portConstraint=eastwest;" vertex="1" parent="P6JcsMyotNKticRZ92DO-13">
          <mxGeometry y="26" width="260" height="34" as="geometry" />
        </mxCell>
        <mxCell id="P6JcsMyotNKticRZ92DO-14" value="- LOGGER: LoggerÂ &#xa;= LogManager.getLogger(ConceptRange.class)" style="text;strokeColor=none;fillColor=none;align=left;verticalAlign=top;spacingLeft=4;spacingRight=4;overflow=hidden;rotatable=0;points=[[0,0.5],[1,0.5]];portConstraint=eastwest;fontStyle=4" parent="P6JcsMyotNKticRZ92DO-13" vertex="1">
          <mxGeometry y="60" width="260" height="34" as="geometry" />
        </mxCell>
        <mxCell id="P6JcsMyotNKticRZ92DO-15" value="" style="line;strokeWidth=1;fillColor=none;align=left;verticalAlign=middle;spacingTop=-1;spacingLeft=3;spacingRight=3;rotatable=0;labelPosition=right;points=[];portConstraint=eastwest;" parent="P6JcsMyotNKticRZ92DO-13" vertex="1">
          <mxGeometry y="94" width="260" height="6" as="geometry" />
        </mxCell>
        <mxCell id="P6JcsMyotNKticRZ92DO-16" value="+ ConceptRange(Project, Concept)" style="text;strokeColor=none;fillColor=none;align=left;verticalAlign=top;spacingLeft=4;spacingRight=4;overflow=hidden;rotatable=0;points=[[0,0.5],[1,0.5]];portConstraint=eastwest;fontStyle=0" parent="P6JcsMyotNKticRZ92DO-13" vertex="1">
          <mxGeometry y="100" width="260" height="24" as="geometry" />
        </mxCell>
        <mxCell id="P6JcsMyotNKticRZ92DO-18" value="+ getInstance(String): Instance&#xa;+ add(Instance): boolean&#xa;+ contains(String): Instance&#xa;+ getInstance(): Collection&lt;Instance&gt;&#xa;+ getConcept(): Concept&#xa;+ update(Observable, Object): void&#xa;+ renameInstance(String, String) void&#xa;+ setAllinstancesSingle(AttributeDesc): void&#xa;+ setAllInstancesMultiple(AttributeDesc): void&#xa;+ clear(): void&#xa;+ remove(String): void&#xa;+ removeCaseByName(String): boolean" style="text;strokeColor=none;fillColor=none;align=left;verticalAlign=top;spacingLeft=4;spacingRight=4;overflow=hidden;rotatable=0;points=[[0,0.5],[1,0.5]];portConstraint=eastwest;fontStyle=0" parent="P6JcsMyotNKticRZ92DO-13" vertex="1">
          <mxGeometry y="124" width="260" height="186" as="geometry" />
        </mxCell>
        <mxCell id="P6JcsMyotNKticRZ92DO-19" value="Extends" style="endArrow=block;endSize=16;endFill=0;html=1;entryX=0;entryY=0.5;entryDx=0;entryDy=0;exitX=1;exitY=0.5;exitDx=0;exitDy=0;" parent="1" source="P6JcsMyotNKticRZ92DO-14" target="P6JcsMyotNKticRZ92DO-10" edge="1">
          <mxGeometry width="160" relative="1" as="geometry">
            <mxPoint x="2198" y="315" as="sourcePoint" />
            <mxPoint x="2358" y="315" as="targetPoint" />
          </mxGeometry>
        </mxCell>
        <mxCell id="P6JcsMyotNKticRZ92DO-26" value="de.dfki.mycbr.core.model" style="shape=folder;fontStyle=1;spacingTop=-7;tabWidth=160;tabHeight=14;tabPosition=left;html=1;verticalAlign=top;align=left;horizontal=1;labelPosition=center;verticalLabelPosition=middle;" parent="1" vertex="1">
          <mxGeometry x="950" y="-1880" width="1840" height="1210" as="geometry" />
        </mxCell>
        <mxCell id="P6JcsMyotNKticRZ92DO-27" value="Concept" style="swimlane;fontStyle=1;align=center;verticalAlign=top;childLayout=stackLayout;horizontal=1;startSize=26;horizontalStack=0;resizeParent=1;resizeParentMax=0;resizeLast=0;collapsible=1;marginBottom=0;" parent="1" vertex="1">
          <mxGeometry x="990" y="-1520" width="450" height="820" as="geometry" />
        </mxCell>
        <mxCell id="P6JcsMyotNKticRZ92DO-28" value="# superConcept: Concept&#xa;# range: ConceptRange&#xa;# ID: String&#xa;# subConcepts: HashMap&lt;String, Concept&gt;&#xa;# attDescs: HashMap&lt;String, AttributeDesc&gt;&#xa;# partOfRelations: Vector&lt;ConceptDesc&gt;&#xa;# prj: Project&#xa;- availableAmalgamFcts: HashMap&lt;String, AmalgamationFct&gt;&#xa;- activeAmalgamationFct: AmalgamationFct" style="text;strokeColor=none;fillColor=none;align=left;verticalAlign=top;spacingLeft=4;spacingRight=4;overflow=hidden;rotatable=0;points=[[0,0.5],[1,0.5]];portConstraint=eastwest;fontStyle=0" parent="P6JcsMyotNKticRZ92DO-27" vertex="1">
          <mxGeometry y="26" width="450" height="134" as="geometry" />
        </mxCell>
        <mxCell id="Zt8ITWkyCNrxcCpvS0CE-2" value="- Logger: LOGGER = LogManager.getLogger(Concept.class)" style="text;strokeColor=none;fillColor=none;align=left;verticalAlign=top;spacingLeft=4;spacingRight=4;overflow=hidden;rotatable=0;points=[[0,0.5],[1,0.5]];portConstraint=eastwest;fontStyle=0" vertex="1" parent="P6JcsMyotNKticRZ92DO-27">
          <mxGeometry y="160" width="450" height="30" as="geometry" />
        </mxCell>
        <mxCell id="P6JcsMyotNKticRZ92DO-30" value="" style="line;strokeWidth=1;fillColor=none;align=left;verticalAlign=middle;spacingTop=-1;spacingLeft=3;spacingRight=3;rotatable=0;labelPosition=right;points=[];portConstraint=eastwest;" parent="P6JcsMyotNKticRZ92DO-27" vertex="1">
          <mxGeometry y="190" width="450" height="10" as="geometry" />
        </mxCell>
        <mxCell id="P6JcsMyotNKticRZ92DO-31" value="+ Concept(String, Project, Concept)" style="text;strokeColor=none;fillColor=none;align=left;verticalAlign=top;spacingLeft=4;spacingRight=4;overflow=hidden;rotatable=0;points=[[0,0.5],[1,0.5]];portConstraint=eastwest;" parent="P6JcsMyotNKticRZ92DO-27" vertex="1">
          <mxGeometry y="200" width="450" height="20" as="geometry" />
        </mxCell>
        <mxCell id="Yp3YMdOh8-Mn880G9579-34" value="+ getSubConcepts(): HashMap&lt;String, Concept&gt;&#xa;+ getAllSubConcepts(): HashMap&lt;String, Concept&gt;&#xa;+ getFct(String): AmalgamationFct&#xa;+ removeSubConcept(String): Concept&#xa;+ renameSubConcept(String, String): void&#xa;+ getSuperConcept(): Concept&#xa;+ removeInstance(String): void&#xa;+ setSuperConcept(Concept, boolean): void&#xa;+ addSubConcept(Concept, boolean): boolean&#xa;- checkOverriddenAtts(Concept, Concept): boolean&#xa;+ setName(String): void&#xa;+ getAttirbuteDesc(): HashMap&lt;String, AttributeDesc&gt;&#xa;+ getAllAttributeDescs(): HashMap&lt;String, AttributeDesc&gt;&#xa;+ addAttributeDesc(AttributeDesc): void&#xa;+ hasDirectAttributeDesc(String): boolean&#xa;+ hasAttributeDesc(String): boolean&#xa;+ getAttributesOfSubDescsForName(String): Vector&lt;AttributeDesc&gt;&#xa;+ removeAttributeDesc(String): boolean&#xa;+ canOverride(Concept): boolean&#xa;+ getProject(): Project&#xa;+ getDirectInstances(): Collection&lt;Instance&gt;&#xa;+ getAllInstances(): Collection&lt;Instance&gt;&#xa;+ deletePartOfRelation(ConceptDesc): void&#xa;+ delete(): void&#xa;+ getInstance(String): Instance&#xa;+ getQueryInstance(): Instance&#xa;+ addInstance(String): Instance&#xa;+ copyInstance(Instance, String): Instance&#xa;+ addInstance(Instance: boolean&#xa;+ renameInstance(String, String, void)Â &#xa;+ deleteAmalgamFct(AmalgamationFct): void&#xa;+ addAmalgamatioNFct(AmalgamationConfig, String, boolean): AmalgamationFct&#xa;+ getActiveAmalgamFct(): AmalgamationFct&#xa;+ setActiveAmalgamFct(AmalgamationFct): void&#xa;+ getAvailableAmalgamFcts(): List&lt;AmalgamationFct&gt;&#xa;+ renameAmalgamationFct(String, String): void&#xa;+ getAttributeDesc(String): AttributeDesc&#xa;+ renameAttDesc(String, String): void&#xa;+ getName(): String&#xa;+ getExpType(): Explainable&#xa;+ setAllInstancesMultiple(AttributeDesc): void&#xa;+ setAllInstancesSingle(AttributeDesc): void" style="text;strokeColor=none;fillColor=none;align=left;verticalAlign=top;spacingLeft=4;spacingRight=4;overflow=hidden;rotatable=0;points=[[0,0.5],[1,0.5]];portConstraint=eastwest;" parent="P6JcsMyotNKticRZ92DO-27" vertex="1">
          <mxGeometry y="220" width="450" height="600" as="geometry" />
        </mxCell>
        <mxCell id="P6JcsMyotNKticRZ92DO-32" value="Extends" style="endArrow=block;endSize=16;endFill=0;html=1;exitX=0.5;exitY=0;exitDx=0;exitDy=0;" parent="1" source="pbR3uyqQSh66m5jHqkTy-10" target="Yp3YMdOh8-Mn880G9579-34" edge="1">
          <mxGeometry width="160" relative="1" as="geometry">
            <mxPoint x="1170" y="-80" as="sourcePoint" />
            <mxPoint x="1330" y="-80" as="targetPoint" />
          </mxGeometry>
        </mxCell>
        <mxCell id="P6JcsMyotNKticRZ92DO-33" value="de.dfki.mycbr.core.explanation" style="shape=folder;fontStyle=1;spacingTop=-7;tabWidth=180;tabHeight=14;tabPosition=left;html=1;verticalAlign=top;align=left;horizontal=1;labelPosition=center;verticalLabelPosition=middle;" parent="1" vertex="1">
          <mxGeometry x="2860" y="-780" width="800" height="600" as="geometry" />
        </mxCell>
        <mxCell id="P6JcsMyotNKticRZ92DO-34" value="&lt;&lt;Interface&gt;&gt;&#xa;IExplainable" style="swimlane;fontStyle=1;align=center;verticalAlign=middle;childLayout=stackLayout;horizontal=1;startSize=26;horizontalStack=0;resizeParent=1;resizeParentMax=0;resizeLast=0;collapsible=1;marginBottom=0;" parent="1" vertex="1">
          <mxGeometry x="3440" y="-290" width="130" height="80" as="geometry" />
        </mxCell>
        <mxCell id="P6JcsMyotNKticRZ92DO-37" value="" style="line;strokeWidth=1;fillColor=none;align=left;verticalAlign=middle;spacingTop=-1;spacingLeft=3;spacingRight=3;rotatable=0;labelPosition=right;points=[];portConstraint=eastwest;" parent="P6JcsMyotNKticRZ92DO-34" vertex="1">
          <mxGeometry y="26" width="130" height="10" as="geometry" />
        </mxCell>
        <mxCell id="P6JcsMyotNKticRZ92DO-38" value="+ getName(): String&#xa;+ getExpType(): String" style="text;strokeColor=none;fillColor=none;align=left;verticalAlign=top;spacingLeft=4;spacingRight=4;overflow=hidden;rotatable=0;points=[[0,0.5],[1,0.5]];portConstraint=eastwest;" parent="P6JcsMyotNKticRZ92DO-34" vertex="1">
          <mxGeometry y="36" width="130" height="44" as="geometry" />
        </mxCell>
        <mxCell id="P6JcsMyotNKticRZ92DO-39" value="" style="endArrow=block;dashed=1;endFill=0;endSize=12;html=1;entryX=-0.014;entryY=0.212;entryDx=0;entryDy=0;entryPerimeter=0;exitX=1.007;exitY=0.97;exitDx=0;exitDy=0;exitPerimeter=0;" parent="1" source="Yp3YMdOh8-Mn880G9579-34" target="P6JcsMyotNKticRZ92DO-38" edge="1">
          <mxGeometry width="160" relative="1" as="geometry">
            <mxPoint x="1520.0000000000005" y="-497.93341120394916" as="sourcePoint" />
            <mxPoint x="3040" y="-662.6424870466321" as="targetPoint" />
          </mxGeometry>
        </mxCell>
        <mxCell id="P6JcsMyotNKticRZ92DO-40" value="DateAttribute" style="swimlane;fontStyle=1;align=center;verticalAlign=top;childLayout=stackLayout;horizontal=1;startSize=26;horizontalStack=0;resizeParent=1;resizeParentMax=0;resizeLast=0;collapsible=1;marginBottom=0;" parent="1" vertex="1">
          <mxGeometry x="3190" y="855" width="190" height="110" as="geometry" />
        </mxCell>
        <mxCell id="P6JcsMyotNKticRZ92DO-41" value="- date: Date" style="text;strokeColor=none;fillColor=none;align=left;verticalAlign=top;spacingLeft=4;spacingRight=4;overflow=hidden;rotatable=0;points=[[0,0.5],[1,0.5]];portConstraint=eastwest;" parent="P6JcsMyotNKticRZ92DO-40" vertex="1">
          <mxGeometry y="26" width="190" height="24" as="geometry" />
        </mxCell>
        <mxCell id="P6JcsMyotNKticRZ92DO-42" value="" style="line;strokeWidth=1;fillColor=none;align=left;verticalAlign=middle;spacingTop=-1;spacingLeft=3;spacingRight=3;rotatable=0;labelPosition=right;points=[];portConstraint=eastwest;" parent="P6JcsMyotNKticRZ92DO-40" vertex="1">
          <mxGeometry y="50" width="190" height="6" as="geometry" />
        </mxCell>
        <mxCell id="P6JcsMyotNKticRZ92DO-43" value="# DateAttribute(DateDesc, Date)" style="text;strokeColor=none;fillColor=none;align=left;verticalAlign=top;spacingLeft=4;spacingRight=4;overflow=hidden;rotatable=0;points=[[0,0.5],[1,0.5]];portConstraint=eastwest;fontStyle=0" parent="P6JcsMyotNKticRZ92DO-40" vertex="1">
          <mxGeometry y="56" width="190" height="24" as="geometry" />
        </mxCell>
        <mxCell id="P6JcsMyotNKticRZ92DO-45" value="+ getDate(): Date" style="text;strokeColor=none;fillColor=none;align=left;verticalAlign=top;spacingLeft=4;spacingRight=4;overflow=hidden;rotatable=0;points=[[0,0.5],[1,0.5]];portConstraint=eastwest;fontStyle=0" parent="P6JcsMyotNKticRZ92DO-40" vertex="1">
          <mxGeometry y="80" width="190" height="30" as="geometry" />
        </mxCell>
        <mxCell id="P6JcsMyotNKticRZ92DO-51" value="SimpleAttribute" style="swimlane;fontStyle=3;align=center;verticalAlign=top;childLayout=stackLayout;horizontal=1;startSize=26;horizontalStack=0;resizeParent=1;resizeParentMax=0;resizeLast=0;collapsible=1;marginBottom=0;" parent="1" vertex="1">
          <mxGeometry x="3530" y="454" width="210" height="160" as="geometry" />
        </mxCell>
        <mxCell id="P6JcsMyotNKticRZ92DO-52" value="- desc: AttributeDesc" style="text;strokeColor=none;fillColor=none;align=left;verticalAlign=top;spacingLeft=4;spacingRight=4;overflow=hidden;rotatable=0;points=[[0,0.5],[1,0.5]];portConstraint=eastwest;" parent="P6JcsMyotNKticRZ92DO-51" vertex="1">
          <mxGeometry y="26" width="210" height="24" as="geometry" />
        </mxCell>
        <mxCell id="P6JcsMyotNKticRZ92DO-53" value="" style="line;strokeWidth=1;fillColor=none;align=left;verticalAlign=middle;spacingTop=-1;spacingLeft=3;spacingRight=3;rotatable=0;labelPosition=right;points=[];portConstraint=eastwest;" parent="P6JcsMyotNKticRZ92DO-51" vertex="1">
          <mxGeometry y="50" width="210" height="6" as="geometry" />
        </mxCell>
        <mxCell id="P6JcsMyotNKticRZ92DO-54" value="# SimpleAttribute(AttributeDesc)" style="text;strokeColor=none;fillColor=none;align=left;verticalAlign=top;spacingLeft=4;spacingRight=4;overflow=hidden;rotatable=0;points=[[0,0.5],[1,0.5]];portConstraint=eastwest;fontStyle=0" parent="P6JcsMyotNKticRZ92DO-51" vertex="1">
          <mxGeometry y="56" width="210" height="24" as="geometry" />
        </mxCell>
        <mxCell id="P6JcsMyotNKticRZ92DO-56" value="+ getAttributeDesc(): AttributeDesc&#xa;+ getName() String&#xa;+ getExpType(): Explainable&#xa;+ setDesc(AttributeDesc): void&#xa;+ getDesc(): AttributeDesc" style="text;strokeColor=none;fillColor=none;align=left;verticalAlign=top;spacingLeft=4;spacingRight=4;overflow=hidden;rotatable=0;points=[[0,0.5],[1,0.5]];portConstraint=eastwest;fontStyle=0" parent="P6JcsMyotNKticRZ92DO-51" vertex="1">
          <mxGeometry y="80" width="210" height="80" as="geometry" />
        </mxCell>
        <mxCell id="P6JcsMyotNKticRZ92DO-57" value="Extends" style="endArrow=block;endSize=16;endFill=0;html=1;entryX=0.996;entryY=0.3;entryDx=0;entryDy=0;exitX=0.004;exitY=0.167;exitDx=0;exitDy=0;exitPerimeter=0;entryPerimeter=0;" parent="1" source="P6JcsMyotNKticRZ92DO-52" target="P6JcsMyotNKticRZ92DO-5" edge="1">
          <mxGeometry width="160" relative="1" as="geometry">
            <mxPoint x="3023" y="275" as="sourcePoint" />
            <mxPoint x="3603" y="100" as="targetPoint" />
          </mxGeometry>
        </mxCell>
        <mxCell id="P6JcsMyotNKticRZ92DO-59" value="" style="endArrow=block;dashed=1;endFill=0;endSize=12;html=1;entryX=0.988;entryY=1.011;entryDx=0;entryDy=0;entryPerimeter=0;exitX=0.5;exitY=0;exitDx=0;exitDy=0;" parent="1" source="P6JcsMyotNKticRZ92DO-51" target="P6JcsMyotNKticRZ92DO-38" edge="1">
          <mxGeometry width="160" relative="1" as="geometry">
            <mxPoint x="1800" y="-140.0028571428569" as="sourcePoint" />
            <mxPoint x="2090" y="-131.71714285714268" as="targetPoint" />
          </mxGeometry>
        </mxCell>
        <mxCell id="P6JcsMyotNKticRZ92DO-60" value="Extends" style="endArrow=block;endSize=16;endFill=0;html=1;entryX=0.016;entryY=1.01;entryDx=0;entryDy=0;entryPerimeter=0;exitX=0.469;exitY=0.015;exitDx=0;exitDy=0;exitPerimeter=0;" parent="1" source="P6JcsMyotNKticRZ92DO-40" target="P6JcsMyotNKticRZ92DO-56" edge="1">
          <mxGeometry width="160" relative="1" as="geometry">
            <mxPoint x="3281" y="347.57" as="sourcePoint" />
            <mxPoint x="3333.91" y="245.00000000000028" as="targetPoint" />
          </mxGeometry>
        </mxCell>
        <mxCell id="P6JcsMyotNKticRZ92DO-63" value="DateRange" style="swimlane;fontStyle=1;align=center;verticalAlign=top;childLayout=stackLayout;horizontal=1;startSize=26;horizontalStack=0;resizeParent=1;resizeParentMax=0;resizeLast=0;collapsible=1;marginBottom=0;" parent="1" vertex="1">
          <mxGeometry x="1890" y="830" width="200" height="130" as="geometry" />
        </mxCell>
        <mxCell id="P6JcsMyotNKticRZ92DO-64" value="- desc: DateDesc" style="text;strokeColor=none;fillColor=none;align=left;verticalAlign=top;spacingLeft=4;spacingRight=4;overflow=hidden;rotatable=0;points=[[0,0.5],[1,0.5]];portConstraint=eastwest;" parent="P6JcsMyotNKticRZ92DO-63" vertex="1">
          <mxGeometry y="26" width="200" height="24" as="geometry" />
        </mxCell>
        <mxCell id="P6JcsMyotNKticRZ92DO-65" value="" style="line;strokeWidth=1;fillColor=none;align=left;verticalAlign=middle;spacingTop=-1;spacingLeft=3;spacingRight=3;rotatable=0;labelPosition=right;points=[];portConstraint=eastwest;" parent="P6JcsMyotNKticRZ92DO-63" vertex="1">
          <mxGeometry y="50" width="200" height="6" as="geometry" />
        </mxCell>
        <mxCell id="P6JcsMyotNKticRZ92DO-66" value="+ DateRange(Project, DateDesc)" style="text;strokeColor=none;fillColor=none;align=left;verticalAlign=top;spacingLeft=4;spacingRight=4;overflow=hidden;rotatable=0;points=[[0,0.5],[1,0.5]];portConstraint=eastwest;fontStyle=0" parent="P6JcsMyotNKticRZ92DO-63" vertex="1">
          <mxGeometry y="56" width="200" height="24" as="geometry" />
        </mxCell>
        <mxCell id="P6JcsMyotNKticRZ92DO-67" value="+ getDateValue(Date): DateAttribute&#xa;- cleanData(): void&#xa;+ update(Observable, Object): void&#xa;" style="text;strokeColor=none;fillColor=none;align=left;verticalAlign=top;spacingLeft=4;spacingRight=4;overflow=hidden;rotatable=0;points=[[0,0.5],[1,0.5]];portConstraint=eastwest;fontStyle=0" parent="P6JcsMyotNKticRZ92DO-63" vertex="1">
          <mxGeometry y="80" width="200" height="50" as="geometry" />
        </mxCell>
        <mxCell id="P6JcsMyotNKticRZ92DO-68" value="Extends" style="endArrow=block;endSize=16;endFill=0;html=1;entryX=0.09;entryY=1.05;entryDx=0;entryDy=0;entryPerimeter=0;" parent="1" source="P6JcsMyotNKticRZ92DO-63" target="P6JcsMyotNKticRZ92DO-11" edge="1">
          <mxGeometry width="160" relative="1" as="geometry">
            <mxPoint x="2301.76" y="337.25" as="sourcePoint" />
            <mxPoint x="2320" y="225" as="targetPoint" />
          </mxGeometry>
        </mxCell>
        <mxCell id="P6JcsMyotNKticRZ92DO-69" value="DoubleAttribute" style="swimlane;fontStyle=1;align=center;verticalAlign=top;childLayout=stackLayout;horizontal=1;startSize=26;horizontalStack=0;resizeParent=1;resizeParentMax=0;resizeLast=0;collapsible=1;marginBottom=0;" parent="1" vertex="1">
          <mxGeometry x="3510" y="870" width="220" height="110" as="geometry" />
        </mxCell>
        <mxCell id="P6JcsMyotNKticRZ92DO-70" value="- value: double" style="text;strokeColor=none;fillColor=none;align=left;verticalAlign=top;spacingLeft=4;spacingRight=4;overflow=hidden;rotatable=0;points=[[0,0.5],[1,0.5]];portConstraint=eastwest;" parent="P6JcsMyotNKticRZ92DO-69" vertex="1">
          <mxGeometry y="26" width="220" height="24" as="geometry" />
        </mxCell>
        <mxCell id="P6JcsMyotNKticRZ92DO-71" value="" style="line;strokeWidth=1;fillColor=none;align=left;verticalAlign=middle;spacingTop=-1;spacingLeft=3;spacingRight=3;rotatable=0;labelPosition=right;points=[];portConstraint=eastwest;" parent="P6JcsMyotNKticRZ92DO-69" vertex="1">
          <mxGeometry y="50" width="220" height="6" as="geometry" />
        </mxCell>
        <mxCell id="P6JcsMyotNKticRZ92DO-72" value="# DoubleAttribute(DoubleDesc, double)" style="text;strokeColor=none;fillColor=none;align=left;verticalAlign=top;spacingLeft=4;spacingRight=4;overflow=hidden;rotatable=0;points=[[0,0.5],[1,0.5]];portConstraint=eastwest;fontStyle=0" parent="P6JcsMyotNKticRZ92DO-69" vertex="1">
          <mxGeometry y="56" width="220" height="14" as="geometry" />
        </mxCell>
        <mxCell id="P6JcsMyotNKticRZ92DO-73" value="+ getValue(): double&#xa;+ compareTo(DoubleAttribute): int" style="text;strokeColor=none;fillColor=none;align=left;verticalAlign=top;spacingLeft=4;spacingRight=4;overflow=hidden;rotatable=0;points=[[0,0.5],[1,0.5]];portConstraint=eastwest;fontStyle=0" parent="P6JcsMyotNKticRZ92DO-69" vertex="1">
          <mxGeometry y="70" width="220" height="40" as="geometry" />
        </mxCell>
        <mxCell id="P6JcsMyotNKticRZ92DO-74" value="Extends" style="endArrow=block;endSize=16;endFill=0;html=1;entryX=0.873;entryY=1.008;entryDx=0;entryDy=0;entryPerimeter=0;" parent="1" source="P6JcsMyotNKticRZ92DO-69" target="P6JcsMyotNKticRZ92DO-56" edge="1">
          <mxGeometry width="160" relative="1" as="geometry">
            <mxPoint x="3397" y="305" as="sourcePoint" />
            <mxPoint x="3397.2500000000005" y="244.15000000000018" as="targetPoint" />
          </mxGeometry>
        </mxCell>
        <mxCell id="P6JcsMyotNKticRZ92DO-75" value="DoubleRange" style="swimlane;fontStyle=1;align=center;verticalAlign=top;childLayout=stackLayout;horizontal=1;startSize=26;horizontalStack=0;resizeParent=1;resizeParentMax=0;resizeLast=0;collapsible=1;marginBottom=0;" parent="1" vertex="1">
          <mxGeometry x="2240" y="820" width="270" height="200" as="geometry" />
        </mxCell>
        <mxCell id="P6JcsMyotNKticRZ92DO-76" value="- desc: DoubleDesc&#xa;- doubleAtts: HashMap&lt;Double, DoubleAttribute&gt;" style="text;strokeColor=none;fillColor=none;align=left;verticalAlign=top;spacingLeft=4;spacingRight=4;overflow=hidden;rotatable=0;points=[[0,0.5],[1,0.5]];portConstraint=eastwest;" parent="P6JcsMyotNKticRZ92DO-75" vertex="1">
          <mxGeometry y="26" width="270" height="34" as="geometry" />
        </mxCell>
        <mxCell id="P6JcsMyotNKticRZ92DO-77" value="" style="line;strokeWidth=1;fillColor=none;align=left;verticalAlign=middle;spacingTop=-1;spacingLeft=3;spacingRight=3;rotatable=0;labelPosition=right;points=[];portConstraint=eastwest;" parent="P6JcsMyotNKticRZ92DO-75" vertex="1">
          <mxGeometry y="60" width="270" height="6" as="geometry" />
        </mxCell>
        <mxCell id="P6JcsMyotNKticRZ92DO-78" value="+ DoubleRange(Project, DoubleDesc)" style="text;strokeColor=none;fillColor=none;align=left;verticalAlign=top;spacingLeft=4;spacingRight=4;overflow=hidden;rotatable=0;points=[[0,0.5],[1,0.5]];portConstraint=eastwest;fontStyle=0" parent="P6JcsMyotNKticRZ92DO-75" vertex="1">
          <mxGeometry y="66" width="270" height="24" as="geometry" />
        </mxCell>
        <mxCell id="P6JcsMyotNKticRZ92DO-79" value="+ getDesc(): DoubleDesc&#xa;+ containsDouble(Double): boolean&#xa;+ getDoubleValue(double): DoubleAttribute&#xa;+ getDoubles(): Collection&lt;DoubleAttribute&gt;Â &#xa;+ getValue(double): SimpleAttribute&#xa;- cleanData(): void&#xa;+ update(Observable, Object): void" style="text;strokeColor=none;fillColor=none;align=left;verticalAlign=top;spacingLeft=4;spacingRight=4;overflow=hidden;rotatable=0;points=[[0,0.5],[1,0.5]];portConstraint=eastwest;fontStyle=0" parent="P6JcsMyotNKticRZ92DO-75" vertex="1">
          <mxGeometry y="90" width="270" height="110" as="geometry" />
        </mxCell>
        <mxCell id="P6JcsMyotNKticRZ92DO-80" value="Extends" style="endArrow=block;endSize=16;endFill=0;html=1;entryX=0.39;entryY=1.1;entryDx=0;entryDy=0;entryPerimeter=0;exitX=0.25;exitY=0;exitDx=0;exitDy=0;" parent="1" source="P6JcsMyotNKticRZ92DO-75" target="P6JcsMyotNKticRZ92DO-11" edge="1">
          <mxGeometry width="160" relative="1" as="geometry">
            <mxPoint x="2616.75" y="320.00000000000045" as="sourcePoint" />
            <mxPoint x="2598" y="220.00000000000045" as="targetPoint" />
          </mxGeometry>
        </mxCell>
        <mxCell id="P6JcsMyotNKticRZ92DO-81" value="FloatAttribute" style="swimlane;fontStyle=1;align=center;verticalAlign=top;childLayout=stackLayout;horizontal=1;startSize=26;horizontalStack=0;resizeParent=1;resizeParentMax=0;resizeLast=0;collapsible=1;marginBottom=0;" parent="1" vertex="1">
          <mxGeometry x="3800" y="880" width="220" height="110" as="geometry" />
        </mxCell>
        <mxCell id="P6JcsMyotNKticRZ92DO-82" value="- value: float" style="text;strokeColor=none;fillColor=none;align=left;verticalAlign=top;spacingLeft=4;spacingRight=4;overflow=hidden;rotatable=0;points=[[0,0.5],[1,0.5]];portConstraint=eastwest;" parent="P6JcsMyotNKticRZ92DO-81" vertex="1">
          <mxGeometry y="26" width="220" height="24" as="geometry" />
        </mxCell>
        <mxCell id="P6JcsMyotNKticRZ92DO-83" value="" style="line;strokeWidth=1;fillColor=none;align=left;verticalAlign=middle;spacingTop=-1;spacingLeft=3;spacingRight=3;rotatable=0;labelPosition=right;points=[];portConstraint=eastwest;" parent="P6JcsMyotNKticRZ92DO-81" vertex="1">
          <mxGeometry y="50" width="220" height="6" as="geometry" />
        </mxCell>
        <mxCell id="P6JcsMyotNKticRZ92DO-84" value="# FloatAttribute(FloatDesc, float)" style="text;strokeColor=none;fillColor=none;align=left;verticalAlign=top;spacingLeft=4;spacingRight=4;overflow=hidden;rotatable=0;points=[[0,0.5],[1,0.5]];portConstraint=eastwest;fontStyle=0" parent="P6JcsMyotNKticRZ92DO-81" vertex="1">
          <mxGeometry y="56" width="220" height="14" as="geometry" />
        </mxCell>
        <mxCell id="P6JcsMyotNKticRZ92DO-85" value="+ getValue(): float&#xa;+ compareTo(FloatAttribute): int" style="text;strokeColor=none;fillColor=none;align=left;verticalAlign=top;spacingLeft=4;spacingRight=4;overflow=hidden;rotatable=0;points=[[0,0.5],[1,0.5]];portConstraint=eastwest;fontStyle=0" parent="P6JcsMyotNKticRZ92DO-81" vertex="1">
          <mxGeometry y="70" width="220" height="40" as="geometry" />
        </mxCell>
        <mxCell id="P6JcsMyotNKticRZ92DO-86" value="FloatRange" style="swimlane;fontStyle=1;align=center;verticalAlign=top;childLayout=stackLayout;horizontal=1;startSize=26;horizontalStack=0;resizeParent=1;resizeParentMax=0;resizeLast=0;collapsible=1;marginBottom=0;" parent="1" vertex="1">
          <mxGeometry x="2620" y="810" width="270" height="220" as="geometry" />
        </mxCell>
        <mxCell id="P6JcsMyotNKticRZ92DO-87" value="- desc: FloatDesc&#xa;- floatAtts: HashMap&lt;Float, FloatAttribute&gt;" style="text;strokeColor=none;fillColor=none;align=left;verticalAlign=top;spacingLeft=4;spacingRight=4;overflow=hidden;rotatable=0;points=[[0,0.5],[1,0.5]];portConstraint=eastwest;" parent="P6JcsMyotNKticRZ92DO-86" vertex="1">
          <mxGeometry y="26" width="270" height="34" as="geometry" />
        </mxCell>
        <mxCell id="P6JcsMyotNKticRZ92DO-88" value="" style="line;strokeWidth=1;fillColor=none;align=left;verticalAlign=middle;spacingTop=-1;spacingLeft=3;spacingRight=3;rotatable=0;labelPosition=right;points=[];portConstraint=eastwest;" parent="P6JcsMyotNKticRZ92DO-86" vertex="1">
          <mxGeometry y="60" width="270" height="6" as="geometry" />
        </mxCell>
        <mxCell id="P6JcsMyotNKticRZ92DO-89" value="+ FloatRange(Project, FloatDesc)" style="text;strokeColor=none;fillColor=none;align=left;verticalAlign=top;spacingLeft=4;spacingRight=4;overflow=hidden;rotatable=0;points=[[0,0.5],[1,0.5]];portConstraint=eastwest;fontStyle=0" parent="P6JcsMyotNKticRZ92DO-86" vertex="1">
          <mxGeometry y="66" width="270" height="24" as="geometry" />
        </mxCell>
        <mxCell id="P6JcsMyotNKticRZ92DO-90" value="+ getDesc(): FloatDesc&#xa;+ containsFloat(Float): boolean&#xa;+ getFloatValue(float): FloatAttribute&#xa;+ getDoubleValue(double): DoubleAttribute&#xa;+ getFloats(): Collection&lt;FloatAttribute&gt;Â &#xa;+ getValue(float): SimpleAttribute&#xa;- cleanData(): void&#xa;+ update(Observable, Object): void&#xa;" style="text;strokeColor=none;fillColor=none;align=left;verticalAlign=top;spacingLeft=4;spacingRight=4;overflow=hidden;rotatable=0;points=[[0,0.5],[1,0.5]];portConstraint=eastwest;fontStyle=0" parent="P6JcsMyotNKticRZ92DO-86" vertex="1">
          <mxGeometry y="90" width="270" height="130" as="geometry" />
        </mxCell>
        <mxCell id="P6JcsMyotNKticRZ92DO-91" value="Extends" style="endArrow=block;endSize=16;endFill=0;html=1;entryX=0.976;entryY=1;entryDx=0;entryDy=0;entryPerimeter=0;exitX=0.037;exitY=0.009;exitDx=0;exitDy=0;exitPerimeter=0;" parent="1" source="P6JcsMyotNKticRZ92DO-86" target="P6JcsMyotNKticRZ92DO-11" edge="1">
          <mxGeometry width="160" relative="1" as="geometry">
            <mxPoint x="2745.29" y="263.64000000000044" as="sourcePoint" />
            <mxPoint x="2558" y="156.3600000000007" as="targetPoint" />
          </mxGeometry>
        </mxCell>
        <mxCell id="P6JcsMyotNKticRZ92DO-92" value="Instance" style="swimlane;fontStyle=1;align=center;verticalAlign=top;childLayout=stackLayout;horizontal=1;startSize=26;horizontalStack=0;resizeParent=1;resizeParentMax=0;resizeLast=0;collapsible=1;marginBottom=0;" parent="1" vertex="1">
          <mxGeometry x="2909" y="261" width="290" height="380" as="geometry" />
        </mxCell>
        <mxCell id="P6JcsMyotNKticRZ92DO-99" value="+ QUERY_ID: String = &quot;query&quot;" style="text;strokeColor=none;fillColor=none;align=left;verticalAlign=top;spacingLeft=4;spacingRight=4;overflow=hidden;rotatable=0;points=[[0,0.5],[1,0.5]];portConstraint=eastwest;fontStyle=4" parent="P6JcsMyotNKticRZ92DO-92" vertex="1">
          <mxGeometry y="26" width="290" height="14" as="geometry" />
        </mxCell>
        <mxCell id="P6JcsMyotNKticRZ92DO-93" value="- attributes: HashMap&lt;AttributeDesc, Attribute&gt;&#xa;- c: Concept&#xa;- id: String&#xa;- adapted: boolean" style="text;strokeColor=none;fillColor=none;align=left;verticalAlign=top;spacingLeft=4;spacingRight=4;overflow=hidden;rotatable=0;points=[[0,0.5],[1,0.5]];portConstraint=eastwest;" parent="P6JcsMyotNKticRZ92DO-92" vertex="1">
          <mxGeometry y="40" width="290" height="60" as="geometry" />
        </mxCell>
        <mxCell id="P6JcsMyotNKticRZ92DO-94" value="" style="line;strokeWidth=1;fillColor=none;align=left;verticalAlign=middle;spacingTop=-1;spacingLeft=3;spacingRight=3;rotatable=0;labelPosition=right;points=[];portConstraint=eastwest;" parent="P6JcsMyotNKticRZ92DO-92" vertex="1">
          <mxGeometry y="100" width="290" height="6" as="geometry" />
        </mxCell>
        <mxCell id="P6JcsMyotNKticRZ92DO-95" value="+ Instance(Concept, String)" style="text;strokeColor=none;fillColor=none;align=left;verticalAlign=top;spacingLeft=4;spacingRight=4;overflow=hidden;rotatable=0;points=[[0,0.5],[1,0.5]];portConstraint=eastwest;fontStyle=0" parent="P6JcsMyotNKticRZ92DO-92" vertex="1">
          <mxGeometry y="106" width="290" height="24" as="geometry" />
        </mxCell>
        <mxCell id="P6JcsMyotNKticRZ92DO-96" value="+ setName(String): void&#xa;+ getName(): String&#xa;+ getConcept(): Concept&#xa;+ getAttributes(): HashMap&lt;AttributeDesc, Attribute&gt;&#xa;+ removeAttribute(AttributeDesc): void&#xa;+ addAttribute(String, Attribute): boolean&#xa;+ addAttribute(String, Object): boolean&#xa;+ addAttribute(AttributeDesc, Object): boolean&#xa;+ addAttribute(AttributeDesc, Attribute): boolean&#xa;+ getAttForDesc(AttributeDesc): Attribute&#xa;- clean(): void&#xa;+ clean(AttributeDesc): void&#xa;+ reset(): void&#xa;+ setAttsUnknown(): void&#xa;+ toString(): String&#xa;+ setAdapted(boolean): void&#xa;+ isAdapted(): boolean" style="text;strokeColor=none;fillColor=none;align=left;verticalAlign=top;spacingLeft=4;spacingRight=4;overflow=hidden;rotatable=0;points=[[0,0.5],[1,0.5]];portConstraint=eastwest;fontStyle=0" parent="P6JcsMyotNKticRZ92DO-92" vertex="1">
          <mxGeometry y="130" width="290" height="250" as="geometry" />
        </mxCell>
        <mxCell id="P6JcsMyotNKticRZ92DO-97" value="Extends" style="endArrow=block;endSize=16;endFill=0;html=1;entryX=0;entryY=0.5;entryDx=0;entryDy=0;exitX=1;exitY=0.5;exitDx=0;exitDy=0;" parent="1" source="P6JcsMyotNKticRZ92DO-93" target="P6JcsMyotNKticRZ92DO-2" edge="1">
          <mxGeometry width="160" relative="1" as="geometry">
            <mxPoint x="3551.2400000000002" y="191.00800000000027" as="sourcePoint" />
            <mxPoint x="3464.7600000000007" y="190.00000000000045" as="targetPoint" />
          </mxGeometry>
        </mxCell>
        <mxCell id="P6JcsMyotNKticRZ92DO-98" value="" style="endArrow=block;dashed=1;endFill=0;endSize=12;html=1;entryX=0.732;entryY=0.995;entryDx=0;entryDy=0;entryPerimeter=0;exitX=0.489;exitY=-0.006;exitDx=0;exitDy=0;exitPerimeter=0;" parent="1" source="P6JcsMyotNKticRZ92DO-92" target="P6JcsMyotNKticRZ92DO-38" edge="1">
          <mxGeometry width="160" relative="1" as="geometry">
            <mxPoint x="3150" y="70" as="sourcePoint" />
            <mxPoint x="2068" y="-209.99999999999986" as="targetPoint" />
          </mxGeometry>
        </mxCell>
        <mxCell id="P6JcsMyotNKticRZ92DO-100" value="Extends" style="endArrow=block;endSize=16;endFill=0;html=1;entryX=1.002;entryY=0.562;entryDx=0;entryDy=0;entryPerimeter=0;" parent="1" source="P6JcsMyotNKticRZ92DO-81" target="P6JcsMyotNKticRZ92DO-56" edge="1">
          <mxGeometry width="160" relative="1" as="geometry">
            <mxPoint x="4026.938089053803" y="279.36000000000047" as="sourcePoint" />
            <mxPoint x="4018.000000000001" y="210.00000000000034" as="targetPoint" />
          </mxGeometry>
        </mxCell>
        <mxCell id="P6JcsMyotNKticRZ92DO-101" value="IntegerAttribute" style="swimlane;fontStyle=1;align=center;verticalAlign=top;childLayout=stackLayout;horizontal=1;startSize=26;horizontalStack=0;resizeParent=1;resizeParentMax=0;resizeLast=0;collapsible=1;marginBottom=0;" parent="1" vertex="1">
          <mxGeometry x="4060" y="835" width="190" height="120" as="geometry" />
        </mxCell>
        <mxCell id="P6JcsMyotNKticRZ92DO-102" value="- value: Integer" style="text;strokeColor=none;fillColor=none;align=left;verticalAlign=top;spacingLeft=4;spacingRight=4;overflow=hidden;rotatable=0;points=[[0,0.5],[1,0.5]];portConstraint=eastwest;" parent="P6JcsMyotNKticRZ92DO-101" vertex="1">
          <mxGeometry y="26" width="190" height="24" as="geometry" />
        </mxCell>
        <mxCell id="P6JcsMyotNKticRZ92DO-103" value="" style="line;strokeWidth=1;fillColor=none;align=left;verticalAlign=middle;spacingTop=-1;spacingLeft=3;spacingRight=3;rotatable=0;labelPosition=right;points=[];portConstraint=eastwest;" parent="P6JcsMyotNKticRZ92DO-101" vertex="1">
          <mxGeometry y="50" width="190" height="6" as="geometry" />
        </mxCell>
        <mxCell id="P6JcsMyotNKticRZ92DO-104" value="# IntegerAttribute(IntegerDesc, int)" style="text;strokeColor=none;fillColor=none;align=left;verticalAlign=top;spacingLeft=4;spacingRight=4;overflow=hidden;rotatable=0;points=[[0,0.5],[1,0.5]];portConstraint=eastwest;fontStyle=0" parent="P6JcsMyotNKticRZ92DO-101" vertex="1">
          <mxGeometry y="56" width="190" height="24" as="geometry" />
        </mxCell>
        <mxCell id="P6JcsMyotNKticRZ92DO-105" value="+ getValue(): int&#xa;+ compareTo(IntegerAttribute): int" style="text;strokeColor=none;fillColor=none;align=left;verticalAlign=top;spacingLeft=4;spacingRight=4;overflow=hidden;rotatable=0;points=[[0,0.5],[1,0.5]];portConstraint=eastwest;fontStyle=0" parent="P6JcsMyotNKticRZ92DO-101" vertex="1">
          <mxGeometry y="80" width="190" height="40" as="geometry" />
        </mxCell>
        <mxCell id="P6JcsMyotNKticRZ92DO-106" value="Extends" style="endArrow=block;endSize=16;endFill=0;html=1;entryX=1.006;entryY=0.131;entryDx=0;entryDy=0;entryPerimeter=0;exitX=0.007;exitY=0.802;exitDx=0;exitDy=0;exitPerimeter=0;" parent="1" source="P6JcsMyotNKticRZ92DO-104" target="P6JcsMyotNKticRZ92DO-56" edge="1">
          <mxGeometry width="160" relative="1" as="geometry">
            <mxPoint x="4044.1165971885603" y="253.04000000000045" as="sourcePoint" />
            <mxPoint x="3898" y="148.00000000000003" as="targetPoint" />
          </mxGeometry>
        </mxCell>
        <mxCell id="P6JcsMyotNKticRZ92DO-107" value="IntegerRange" style="swimlane;fontStyle=1;align=center;verticalAlign=top;childLayout=stackLayout;horizontal=1;startSize=26;horizontalStack=0;resizeParent=1;resizeParentMax=0;resizeLast=0;collapsible=1;marginBottom=0;" parent="1" vertex="1">
          <mxGeometry x="2560" y="495" width="290" height="200" as="geometry" />
        </mxCell>
        <mxCell id="P6JcsMyotNKticRZ92DO-108" value="- desc: IntegerDesc&#xa;- intAtts: HashMap&lt;Integer, IntegerAttribute&gt;" style="text;strokeColor=none;fillColor=none;align=left;verticalAlign=top;spacingLeft=4;spacingRight=4;overflow=hidden;rotatable=0;points=[[0,0.5],[1,0.5]];portConstraint=eastwest;" parent="P6JcsMyotNKticRZ92DO-107" vertex="1">
          <mxGeometry y="26" width="290" height="34" as="geometry" />
        </mxCell>
        <mxCell id="P6JcsMyotNKticRZ92DO-109" value="" style="line;strokeWidth=1;fillColor=none;align=left;verticalAlign=middle;spacingTop=-1;spacingLeft=3;spacingRight=3;rotatable=0;labelPosition=right;points=[];portConstraint=eastwest;" parent="P6JcsMyotNKticRZ92DO-107" vertex="1">
          <mxGeometry y="60" width="290" height="6" as="geometry" />
        </mxCell>
        <mxCell id="P6JcsMyotNKticRZ92DO-110" value="+ IntegerRange(Project, IntegerDesc)" style="text;strokeColor=none;fillColor=none;align=left;verticalAlign=top;spacingLeft=4;spacingRight=4;overflow=hidden;rotatable=0;points=[[0,0.5],[1,0.5]];portConstraint=eastwest;fontStyle=0" parent="P6JcsMyotNKticRZ92DO-107" vertex="1">
          <mxGeometry y="66" width="290" height="24" as="geometry" />
        </mxCell>
        <mxCell id="P6JcsMyotNKticRZ92DO-111" value="+ getDesc(): IntegerDesc&#xa;+ containsInteger(Integer): boolean&#xa;+ getIntegerValue(int): IntegerAttribute&#xa;+ getIntegers(): HashMap&lt;Integer, IntegerAttribute&gt;Â &#xa;+ getValue(int): SimpleAttribute&#xa;- cleanData(): void&#xa;+ update(Observable, Object): void&#xa;" style="text;strokeColor=none;fillColor=none;align=left;verticalAlign=top;spacingLeft=4;spacingRight=4;overflow=hidden;rotatable=0;points=[[0,0.5],[1,0.5]];portConstraint=eastwest;fontStyle=0" parent="P6JcsMyotNKticRZ92DO-107" vertex="1">
          <mxGeometry y="90" width="290" height="110" as="geometry" />
        </mxCell>
        <mxCell id="P6JcsMyotNKticRZ92DO-112" value="Extends" style="endArrow=block;endSize=16;endFill=0;html=1;entryX=1;entryY=0.5;entryDx=0;entryDy=0;exitX=-0.004;exitY=0.115;exitDx=0;exitDy=0;exitPerimeter=0;" parent="1" source="P6JcsMyotNKticRZ92DO-111" target="P6JcsMyotNKticRZ92DO-9" edge="1">
          <mxGeometry width="160" relative="1" as="geometry">
            <mxPoint x="2645.0299999999997" y="696.9799999999996" as="sourcePoint" />
            <mxPoint x="2440" y="565" as="targetPoint" />
          </mxGeometry>
        </mxCell>
        <mxCell id="P6JcsMyotNKticRZ92DO-113" value="IntervalAttribute" style="swimlane;fontStyle=1;align=center;verticalAlign=top;childLayout=stackLayout;horizontal=1;startSize=26;horizontalStack=0;resizeParent=1;resizeParentMax=0;resizeLast=0;collapsible=1;marginBottom=0;" parent="1" vertex="1">
          <mxGeometry x="4030" y="614" width="310" height="160" as="geometry" />
        </mxCell>
        <mxCell id="P6JcsMyotNKticRZ92DO-114" value="- interval: Pair&lt;Double, Double&gt;" style="text;strokeColor=none;fillColor=none;align=left;verticalAlign=top;spacingLeft=4;spacingRight=4;overflow=hidden;rotatable=0;points=[[0,0.5],[1,0.5]];portConstraint=eastwest;" parent="P6JcsMyotNKticRZ92DO-113" vertex="1">
          <mxGeometry y="26" width="310" height="24" as="geometry" />
        </mxCell>
        <mxCell id="P6JcsMyotNKticRZ92DO-115" value="" style="line;strokeWidth=1;fillColor=none;align=left;verticalAlign=middle;spacingTop=-1;spacingLeft=3;spacingRight=3;rotatable=0;labelPosition=right;points=[];portConstraint=eastwest;" parent="P6JcsMyotNKticRZ92DO-113" vertex="1">
          <mxGeometry y="50" width="310" height="6" as="geometry" />
        </mxCell>
        <mxCell id="P6JcsMyotNKticRZ92DO-116" value="# IntervalAttribute(IntervalDesc, double, double)&#xa;# IntervalAttribute(IntervalDesc, Pair&lt;Double, Double&gt;)" style="text;strokeColor=none;fillColor=none;align=left;verticalAlign=top;spacingLeft=4;spacingRight=4;overflow=hidden;rotatable=0;points=[[0,0.5],[1,0.5]];portConstraint=eastwest;fontStyle=0" parent="P6JcsMyotNKticRZ92DO-113" vertex="1">
          <mxGeometry y="56" width="310" height="34" as="geometry" />
        </mxCell>
        <mxCell id="P6JcsMyotNKticRZ92DO-117" value="+ getInterval(): Pair&lt;Double, Double&gt;&#xa;+ toString(): String&#xa;+ equals(Object): boolean&#xa;+ getValueAsString(): String" style="text;strokeColor=none;fillColor=none;align=left;verticalAlign=top;spacingLeft=4;spacingRight=4;overflow=hidden;rotatable=0;points=[[0,0.5],[1,0.5]];portConstraint=eastwest;fontStyle=0" parent="P6JcsMyotNKticRZ92DO-113" vertex="1">
          <mxGeometry y="90" width="310" height="70" as="geometry" />
        </mxCell>
        <mxCell id="P6JcsMyotNKticRZ92DO-118" value="Extends" style="endArrow=block;endSize=16;endFill=0;html=1;entryX=1.001;entryY=0.256;entryDx=0;entryDy=0;entryPerimeter=0;exitX=-0.009;exitY=0.643;exitDx=0;exitDy=0;exitPerimeter=0;" parent="1" source="P6JcsMyotNKticRZ92DO-116" target="P6JcsMyotNKticRZ92DO-54" edge="1">
          <mxGeometry width="160" relative="1" as="geometry">
            <mxPoint x="4070.0699999999997" y="654.768" as="sourcePoint" />
            <mxPoint x="3740" y="454" as="targetPoint" />
          </mxGeometry>
        </mxCell>
        <mxCell id="P6JcsMyotNKticRZ92DO-119" value="IntervalRange" style="swimlane;fontStyle=1;align=center;verticalAlign=top;childLayout=stackLayout;horizontal=1;startSize=26;horizontalStack=0;resizeParent=1;resizeParentMax=0;resizeLast=0;collapsible=1;marginBottom=0;" parent="1" vertex="1">
          <mxGeometry x="2535" y="330" width="340" height="140" as="geometry" />
        </mxCell>
        <mxCell id="P6JcsMyotNKticRZ92DO-120" value="- desc: IntervalDesc&#xa;- atts: HashMap&lt;Pair&lt;Double, Double&gt;, IntervalAttribute&gt;" style="text;strokeColor=none;fillColor=none;align=left;verticalAlign=top;spacingLeft=4;spacingRight=4;overflow=hidden;rotatable=0;points=[[0,0.5],[1,0.5]];portConstraint=eastwest;" parent="P6JcsMyotNKticRZ92DO-119" vertex="1">
          <mxGeometry y="26" width="340" height="34" as="geometry" />
        </mxCell>
        <mxCell id="P6JcsMyotNKticRZ92DO-121" value="" style="line;strokeWidth=1;fillColor=none;align=left;verticalAlign=middle;spacingTop=-1;spacingLeft=3;spacingRight=3;rotatable=0;labelPosition=right;points=[];portConstraint=eastwest;" parent="P6JcsMyotNKticRZ92DO-119" vertex="1">
          <mxGeometry y="60" width="340" height="6" as="geometry" />
        </mxCell>
        <mxCell id="P6JcsMyotNKticRZ92DO-122" value="+ IntervalRange(Project, IntervalDesc)" style="text;strokeColor=none;fillColor=none;align=left;verticalAlign=top;spacingLeft=4;spacingRight=4;overflow=hidden;rotatable=0;points=[[0,0.5],[1,0.5]];portConstraint=eastwest;fontStyle=0" parent="P6JcsMyotNKticRZ92DO-119" vertex="1">
          <mxGeometry y="66" width="340" height="24" as="geometry" />
        </mxCell>
        <mxCell id="P6JcsMyotNKticRZ92DO-123" value="+ getIntervalValue(Pair&lt;Double, Double&gt;): IntervalAttribute&#xa;- cleanData(): void&#xa;+ update(Observable, Object): void" style="text;strokeColor=none;fillColor=none;align=left;verticalAlign=top;spacingLeft=4;spacingRight=4;overflow=hidden;rotatable=0;points=[[0,0.5],[1,0.5]];portConstraint=eastwest;fontStyle=0" parent="P6JcsMyotNKticRZ92DO-119" vertex="1">
          <mxGeometry y="90" width="340" height="50" as="geometry" />
        </mxCell>
        <mxCell id="P6JcsMyotNKticRZ92DO-124" value="Extends" style="endArrow=block;endSize=16;endFill=0;html=1;entryX=1;entryY=0;entryDx=0;entryDy=0;exitX=0.005;exitY=1.004;exitDx=0;exitDy=0;exitPerimeter=0;" parent="1" source="P6JcsMyotNKticRZ92DO-123" target="P6JcsMyotNKticRZ92DO-7" edge="1">
          <mxGeometry width="160" relative="1" as="geometry">
            <mxPoint x="2528.84" y="496.9500000000003" as="sourcePoint" />
            <mxPoint x="2400" y="495" as="targetPoint" />
          </mxGeometry>
        </mxCell>
        <mxCell id="P6JcsMyotNKticRZ92DO-126" value="AttributeDesc" style="swimlane;fontStyle=1;align=center;verticalAlign=top;childLayout=stackLayout;horizontal=1;startSize=26;horizontalStack=0;resizeParent=1;resizeParentMax=0;resizeLast=0;collapsible=1;marginBottom=0;" parent="1" vertex="1">
          <mxGeometry x="2230" y="-1110" width="280" height="350" as="geometry" />
        </mxCell>
        <mxCell id="P6JcsMyotNKticRZ92DO-127" value="# DELETE_NOTIFICATION = &quot;deleted&quot;" style="text;strokeColor=none;fillColor=none;align=left;verticalAlign=top;spacingLeft=4;spacingRight=4;overflow=hidden;rotatable=0;points=[[0,0.5],[1,0.5]];portConstraint=eastwest;fontStyle=4" parent="P6JcsMyotNKticRZ92DO-126" vertex="1">
          <mxGeometry y="26" width="280" height="24" as="geometry" />
        </mxCell>
        <mxCell id="P6JcsMyotNKticRZ92DO-128" value="# name: String&#xa;# owner: Concept&#xa;# isMultiple: boolean&#xa;# range: Range" style="text;strokeColor=none;fillColor=none;align=left;verticalAlign=top;spacingLeft=4;spacingRight=4;overflow=hidden;rotatable=0;points=[[0,0.5],[1,0.5]];portConstraint=eastwest;" parent="P6JcsMyotNKticRZ92DO-126" vertex="1">
          <mxGeometry y="50" width="280" height="70" as="geometry" />
        </mxCell>
        <mxCell id="P6JcsMyotNKticRZ92DO-129" value="" style="line;strokeWidth=1;fillColor=none;align=left;verticalAlign=middle;spacingTop=-1;spacingLeft=3;spacingRight=3;rotatable=0;labelPosition=right;points=[];portConstraint=eastwest;" parent="P6JcsMyotNKticRZ92DO-126" vertex="1">
          <mxGeometry y="120" width="280" height="10" as="geometry" />
        </mxCell>
        <mxCell id="P6JcsMyotNKticRZ92DO-130" value="+ AttributeDesc(Concept, String)" style="text;strokeColor=none;fillColor=none;align=left;verticalAlign=top;spacingLeft=4;spacingRight=4;overflow=hidden;rotatable=0;points=[[0,0.5],[1,0.5]];portConstraint=eastwest;" parent="P6JcsMyotNKticRZ92DO-126" vertex="1">
          <mxGeometry y="130" width="280" height="20" as="geometry" />
        </mxCell>
        <mxCell id="Yp3YMdOh8-Mn880G9579-9" value="+ setMultiple(boolean): void&#xa;+ isMultiple(): boolean&#xa;+ setOwner(Concept): void&#xa;+ getOwner(): Concept&#xa;+ setName(String): void&#xa;+ getName(): String&#xa;+ canOverride(AttributeDesc): boolean&#xa;+ getAttribute(Object): Attribute&#xa;+ updateAmalgamationFcts(Concept, Object): void&#xa;+ fits(Attribute): boolean&#xa;+ fitsSingle(Attribute): boolean&#xa;+ delete(): void&#xa;+ deleteAllFcts(): void&#xa;" style="text;strokeColor=none;fillColor=none;align=left;verticalAlign=top;spacingLeft=4;spacingRight=4;overflow=hidden;rotatable=0;points=[[0,0.5],[1,0.5]];portConstraint=eastwest;" parent="P6JcsMyotNKticRZ92DO-126" vertex="1">
          <mxGeometry y="150" width="280" height="200" as="geometry" />
        </mxCell>
        <mxCell id="P6JcsMyotNKticRZ92DO-136" value="MultipleAttribute" style="swimlane;fontStyle=1;align=center;verticalAlign=top;childLayout=stackLayout;horizontal=1;startSize=26;horizontalStack=0;resizeParent=1;resizeParentMax=0;resizeLast=0;collapsible=1;marginBottom=0;" parent="1" vertex="1">
          <mxGeometry x="3230" y="140" width="310" height="180" as="geometry" />
        </mxCell>
        <mxCell id="P6JcsMyotNKticRZ92DO-137" value="- values: List&lt;Attribute&gt;&#xa;- type: Type" style="text;strokeColor=none;fillColor=none;align=left;verticalAlign=top;spacingLeft=4;spacingRight=4;overflow=hidden;rotatable=0;points=[[0,0.5],[1,0.5]];portConstraint=eastwest;" parent="P6JcsMyotNKticRZ92DO-136" vertex="1">
          <mxGeometry y="26" width="310" height="44" as="geometry" />
        </mxCell>
        <mxCell id="P6JcsMyotNKticRZ92DO-138" value="" style="line;strokeWidth=1;fillColor=none;align=left;verticalAlign=middle;spacingTop=-1;spacingLeft=3;spacingRight=3;rotatable=0;labelPosition=right;points=[];portConstraint=eastwest;" parent="P6JcsMyotNKticRZ92DO-136" vertex="1">
          <mxGeometry y="70" width="310" height="6" as="geometry" />
        </mxCell>
        <mxCell id="P6JcsMyotNKticRZ92DO-139" value="+ MultipleAttribute(Type, LinkedList&lt;Attribute&gt;)" style="text;strokeColor=none;fillColor=none;align=left;verticalAlign=top;spacingLeft=4;spacingRight=4;overflow=hidden;rotatable=0;points=[[0,0.5],[1,0.5]];portConstraint=eastwest;fontStyle=0" parent="P6JcsMyotNKticRZ92DO-136" vertex="1">
          <mxGeometry y="76" width="310" height="24" as="geometry" />
        </mxCell>
        <mxCell id="P6JcsMyotNKticRZ92DO-140" value="+ getValues(): List&lt;Attribute&gt;&#xa;+ addValue(Attribute): void&#xa;+ removeValue(Attribute): void&#xa;+ toString(): String&#xa;+ getAttributeDesc(): Type" style="text;strokeColor=none;fillColor=none;align=left;verticalAlign=top;spacingLeft=4;spacingRight=4;overflow=hidden;rotatable=0;points=[[0,0.5],[1,0.5]];portConstraint=eastwest;fontStyle=0" parent="P6JcsMyotNKticRZ92DO-136" vertex="1">
          <mxGeometry y="100" width="310" height="80" as="geometry" />
        </mxCell>
        <mxCell id="P6JcsMyotNKticRZ92DO-141" value="Extends" style="endArrow=block;endSize=16;endFill=0;html=1;entryX=0.5;entryY=0;entryDx=0;entryDy=0;exitX=0.465;exitY=1.022;exitDx=0;exitDy=0;exitPerimeter=0;" parent="1" source="P6JcsMyotNKticRZ92DO-140" target="P6JcsMyotNKticRZ92DO-2" edge="1">
          <mxGeometry width="160" relative="1" as="geometry">
            <mxPoint x="3471.479999999999" y="355.0079999999998" as="sourcePoint" />
            <mxPoint x="3389.9999999999995" y="350" as="targetPoint" />
          </mxGeometry>
        </mxCell>
        <mxCell id="P6JcsMyotNKticRZ92DO-142" value="Extends" style="endArrow=block;endSize=16;endFill=0;html=1;entryX=0;entryY=0;entryDx=0;entryDy=0;exitX=1.002;exitY=0.014;exitDx=0;exitDy=0;exitPerimeter=0;" parent="1" source="Yp3YMdOh8-Mn880G9579-9" target="P6JcsMyotNKticRZ92DO-136" edge="1">
          <mxGeometry width="160" relative="1" as="geometry">
            <mxPoint x="2744.1499999999996" y="-190.00000000000006" as="sourcePoint" />
            <mxPoint x="2740" y="-41.54000000000002" as="targetPoint" />
          </mxGeometry>
        </mxCell>
        <mxCell id="P6JcsMyotNKticRZ92DO-143" value="SymbolAttribute" style="swimlane;fontStyle=1;align=center;verticalAlign=top;childLayout=stackLayout;horizontal=1;startSize=26;horizontalStack=0;resizeParent=1;resizeParentMax=0;resizeLast=0;collapsible=1;marginBottom=0;" parent="1" vertex="1">
          <mxGeometry x="3690" y="190" width="310" height="130" as="geometry" />
        </mxCell>
        <mxCell id="P6JcsMyotNKticRZ92DO-144" value="- value: String" style="text;strokeColor=none;fillColor=none;align=left;verticalAlign=top;spacingLeft=4;spacingRight=4;overflow=hidden;rotatable=0;points=[[0,0.5],[1,0.5]];portConstraint=eastwest;" parent="P6JcsMyotNKticRZ92DO-143" vertex="1">
          <mxGeometry y="26" width="310" height="24" as="geometry" />
        </mxCell>
        <mxCell id="P6JcsMyotNKticRZ92DO-145" value="" style="line;strokeWidth=1;fillColor=none;align=left;verticalAlign=middle;spacingTop=-1;spacingLeft=3;spacingRight=3;rotatable=0;labelPosition=right;points=[];portConstraint=eastwest;" parent="P6JcsMyotNKticRZ92DO-143" vertex="1">
          <mxGeometry y="50" width="310" height="6" as="geometry" />
        </mxCell>
        <mxCell id="P6JcsMyotNKticRZ92DO-146" value="+ SymbolAttribute(SymbolDesc, String)" style="text;strokeColor=none;fillColor=none;align=left;verticalAlign=top;spacingLeft=4;spacingRight=4;overflow=hidden;rotatable=0;points=[[0,0.5],[1,0.5]];portConstraint=eastwest;fontStyle=0" parent="P6JcsMyotNKticRZ92DO-143" vertex="1">
          <mxGeometry y="56" width="310" height="24" as="geometry" />
        </mxCell>
        <mxCell id="P6JcsMyotNKticRZ92DO-147" value="+ setValue(String): void&#xa;+ getValue(): String&#xa;+ toString(): String" style="text;strokeColor=none;fillColor=none;align=left;verticalAlign=top;spacingLeft=4;spacingRight=4;overflow=hidden;rotatable=0;points=[[0,0.5],[1,0.5]];portConstraint=eastwest;fontStyle=0" parent="P6JcsMyotNKticRZ92DO-143" vertex="1">
          <mxGeometry y="80" width="310" height="50" as="geometry" />
        </mxCell>
        <mxCell id="P6JcsMyotNKticRZ92DO-148" value="Extends" style="endArrow=block;endSize=16;endFill=0;html=1;entryX=0.933;entryY=0.006;entryDx=0;entryDy=0;entryPerimeter=0;exitX=0.113;exitY=1.036;exitDx=0;exitDy=0;exitPerimeter=0;" parent="1" source="P6JcsMyotNKticRZ92DO-147" target="P6JcsMyotNKticRZ92DO-51" edge="1">
          <mxGeometry width="160" relative="1" as="geometry">
            <mxPoint x="3983.5" y="395.72200000000055" as="sourcePoint" />
            <mxPoint x="3766.500000000001" y="390.00400000000025" as="targetPoint" />
          </mxGeometry>
        </mxCell>
        <mxCell id="P6JcsMyotNKticRZ92DO-149" value="de.dfki.mycbr.core.similarity" style="shape=folder;fontStyle=1;spacingTop=-7;tabWidth=180;tabHeight=14;tabPosition=left;html=1;verticalAlign=top;align=left;horizontal=1;labelPosition=center;verticalLabelPosition=middle;" parent="1" vertex="1">
          <mxGeometry x="3850" y="-2310" width="3170" height="2130" as="geometry" />
        </mxCell>
        <mxCell id="6NlpwkJzzZhbk94JfLH--1" value="&lt;&lt;interface&gt;&gt;&#xa;TaxonomyNode" style="swimlane;fontStyle=1;align=center;verticalAlign=middle;childLayout=stackLayout;horizontal=1;startSize=26;horizontalStack=0;resizeParent=1;resizeParentMax=0;resizeLast=0;collapsible=1;marginBottom=0;" parent="1" vertex="1">
          <mxGeometry x="3910" y="-310" width="200" height="56" as="geometry" />
        </mxCell>
        <mxCell id="6NlpwkJzzZhbk94JfLH--4" value="" style="line;strokeWidth=1;fillColor=none;align=left;verticalAlign=middle;spacingTop=-1;spacingLeft=3;spacingRight=3;rotatable=0;labelPosition=right;points=[];portConstraint=eastwest;" parent="6NlpwkJzzZhbk94JfLH--1" vertex="1">
          <mxGeometry y="26" width="200" height="10" as="geometry" />
        </mxCell>
        <mxCell id="6NlpwkJzzZhbk94JfLH--5" value="+ getNodes(): List&lt;TaxonomyNode&gt;" style="text;strokeColor=none;fillColor=none;align=left;verticalAlign=top;spacingLeft=4;spacingRight=4;overflow=hidden;rotatable=0;points=[[0,0.5],[1,0.5]];portConstraint=eastwest;" parent="6NlpwkJzzZhbk94JfLH--1" vertex="1">
          <mxGeometry y="36" width="200" height="20" as="geometry" />
        </mxCell>
        <mxCell id="6NlpwkJzzZhbk94JfLH--6" value="" style="endArrow=block;dashed=1;endFill=0;endSize=12;html=1;" parent="1" source="P6JcsMyotNKticRZ92DO-143" target="6NlpwkJzzZhbk94JfLH--5" edge="1">
          <mxGeometry width="160" relative="1" as="geometry">
            <mxPoint x="3969.96" y="431.90999999999997" as="sourcePoint" />
            <mxPoint x="3780.04" y="-329.9999999999999" as="targetPoint" />
          </mxGeometry>
        </mxCell>
        <mxCell id="6NlpwkJzzZhbk94JfLH--8" value="SpecialAttribute" style="swimlane;fontStyle=1;align=center;verticalAlign=top;childLayout=stackLayout;horizontal=1;startSize=26;horizontalStack=0;resizeParent=1;resizeParentMax=0;resizeLast=0;collapsible=1;marginBottom=0;" parent="1" vertex="1">
          <mxGeometry x="4090" y="190" width="260" height="110" as="geometry" />
        </mxCell>
        <mxCell id="6NlpwkJzzZhbk94JfLH--9" value="- project: Project" style="text;strokeColor=none;fillColor=none;align=left;verticalAlign=top;spacingLeft=4;spacingRight=4;overflow=hidden;rotatable=0;points=[[0,0.5],[1,0.5]];portConstraint=eastwest;" parent="6NlpwkJzzZhbk94JfLH--8" vertex="1">
          <mxGeometry y="26" width="260" height="24" as="geometry" />
        </mxCell>
        <mxCell id="6NlpwkJzzZhbk94JfLH--10" value="" style="line;strokeWidth=1;fillColor=none;align=left;verticalAlign=middle;spacingTop=-1;spacingLeft=3;spacingRight=3;rotatable=0;labelPosition=right;points=[];portConstraint=eastwest;" parent="6NlpwkJzzZhbk94JfLH--8" vertex="1">
          <mxGeometry y="50" width="260" height="6" as="geometry" />
        </mxCell>
        <mxCell id="6NlpwkJzzZhbk94JfLH--11" value="# SpecialAttribute(Project, SpecialDesc, String)" style="text;strokeColor=none;fillColor=none;align=left;verticalAlign=top;spacingLeft=4;spacingRight=4;overflow=hidden;rotatable=0;points=[[0,0.5],[1,0.5]];portConstraint=eastwest;fontStyle=0" parent="6NlpwkJzzZhbk94JfLH--8" vertex="1">
          <mxGeometry y="56" width="260" height="24" as="geometry" />
        </mxCell>
        <mxCell id="6NlpwkJzzZhbk94JfLH--12" value="+ calculateSimilartiy(SimpleAttribute)" style="text;strokeColor=none;fillColor=none;align=left;verticalAlign=top;spacingLeft=4;spacingRight=4;overflow=hidden;rotatable=0;points=[[0,0.5],[1,0.5]];portConstraint=eastwest;fontStyle=0" parent="6NlpwkJzzZhbk94JfLH--8" vertex="1">
          <mxGeometry y="80" width="260" height="30" as="geometry" />
        </mxCell>
        <mxCell id="6NlpwkJzzZhbk94JfLH--13" value="Extends" style="endArrow=block;endSize=16;endFill=0;html=1;entryX=1;entryY=0.5;entryDx=0;entryDy=0;exitX=0;exitY=0.5;exitDx=0;exitDy=0;" parent="1" source="6NlpwkJzzZhbk94JfLH--11" target="P6JcsMyotNKticRZ92DO-146" edge="1">
          <mxGeometry width="160" relative="1" as="geometry">
            <mxPoint x="4060" y="330" as="sourcePoint" />
            <mxPoint x="4060.9000000000005" y="442.44000000000005" as="targetPoint" />
          </mxGeometry>
        </mxCell>
        <mxCell id="6NlpwkJzzZhbk94JfLH--19" value="SymbolRange" style="swimlane;fontStyle=1;align=center;verticalAlign=top;childLayout=stackLayout;horizontal=1;startSize=26;horizontalStack=0;resizeParent=1;resizeParentMax=0;resizeLast=0;collapsible=1;marginBottom=0;" parent="1" vertex="1">
          <mxGeometry x="1820" y="155" width="320" height="340" as="geometry" />
        </mxCell>
        <mxCell id="6NlpwkJzzZhbk94JfLH--20" value="# symbols: HashMap&lt;String, Symbol Attribute&gt;&#xa;- indexes: HashMap&lt;SymbolAttribute, Integer&gt;&#xa;- highestIndex: int&#xa;- desc: SymbolDesc" style="text;strokeColor=none;fillColor=none;align=left;verticalAlign=top;spacingLeft=4;spacingRight=4;overflow=hidden;rotatable=0;points=[[0,0.5],[1,0.5]];portConstraint=eastwest;" parent="6NlpwkJzzZhbk94JfLH--19" vertex="1">
          <mxGeometry y="26" width="320" height="64" as="geometry" />
        </mxCell>
        <mxCell id="6NlpwkJzzZhbk94JfLH--21" value="" style="line;strokeWidth=1;fillColor=none;align=left;verticalAlign=middle;spacingTop=-1;spacingLeft=3;spacingRight=3;rotatable=0;labelPosition=right;points=[];portConstraint=eastwest;" parent="6NlpwkJzzZhbk94JfLH--19" vertex="1">
          <mxGeometry y="90" width="320" height="6" as="geometry" />
        </mxCell>
        <mxCell id="6NlpwkJzzZhbk94JfLH--22" value="+ SymbolRange(Project, SymbolDesc, Collection&lt;String&gt;)" style="text;strokeColor=none;fillColor=none;align=left;verticalAlign=top;spacingLeft=4;spacingRight=4;overflow=hidden;rotatable=0;points=[[0,0.5],[1,0.5]];portConstraint=eastwest;fontStyle=0" parent="6NlpwkJzzZhbk94JfLH--19" vertex="1">
          <mxGeometry y="96" width="320" height="24" as="geometry" />
        </mxCell>
        <mxCell id="6NlpwkJzzZhbk94JfLH--23" value="# setSymbols(HashMap&lt;String, SymbolAttribute&gt;): void&#xa;# initSymbolAttributes(Collection&lt;String&gt;): void&#xa;+ initIndexes(): void&#xa;+ getSymbolValue(String): SymbolAttribute&#xa;+ getSymbols(): HashMap&lt;String, SymbolAttribute&gt;&#xa;+ getIndexOf(SimpleAttribute): Integer&#xa;+ removeAttribute(String): SymbolAttribute&#xa;+ renameSymbol(String, String): void&#xa;+ addSymbolValue(String): SymbolAttribute&#xa;# setDesc(SymbolDesc): void&#xa;# getDesc(): SymbolDesc&#xa;+ setIndexes(HashMap&lt;SymbolAttribute, Integer&gt;): void&#xa;+ getIndexes(): HashMap&lt;SymbolAttribute, Integer&gt;&#xa;+ setHighestIndex(int): void&#xa;+ getHighestIndex(): int&#xa;" style="text;strokeColor=none;fillColor=none;align=left;verticalAlign=top;spacingLeft=4;spacingRight=4;overflow=hidden;rotatable=0;points=[[0,0.5],[1,0.5]];portConstraint=eastwest;fontStyle=0" parent="6NlpwkJzzZhbk94JfLH--19" vertex="1">
          <mxGeometry y="120" width="320" height="220" as="geometry" />
        </mxCell>
        <mxCell id="6NlpwkJzzZhbk94JfLH--24" value="Extends" style="endArrow=block;endSize=16;endFill=0;html=1;entryX=0;entryY=0;entryDx=0;entryDy=0;exitX=0.994;exitY=0.995;exitDx=0;exitDy=0;exitPerimeter=0;" parent="1" source="6NlpwkJzzZhbk94JfLH--23" target="P6JcsMyotNKticRZ92DO-7" edge="1">
          <mxGeometry width="160" relative="1" as="geometry">
            <mxPoint x="2230" y="439" as="sourcePoint" />
            <mxPoint x="2370" y="454" as="targetPoint" />
          </mxGeometry>
        </mxCell>
        <mxCell id="Q1gP4OVOA-8w4oq7mHiI-1" value="SpecialRange" style="swimlane;fontStyle=1;align=center;verticalAlign=top;childLayout=stackLayout;horizontal=1;startSize=26;horizontalStack=0;resizeParent=1;resizeParentMax=0;resizeLast=0;collapsible=1;marginBottom=0;" parent="1" vertex="1">
          <mxGeometry x="1820" y="-30" width="320" height="140" as="geometry" />
        </mxCell>
        <mxCell id="Q1gP4OVOA-8w4oq7mHiI-3" value="" style="line;strokeWidth=1;fillColor=none;align=left;verticalAlign=middle;spacingTop=-1;spacingLeft=3;spacingRight=3;rotatable=0;labelPosition=right;points=[];portConstraint=eastwest;" parent="Q1gP4OVOA-8w4oq7mHiI-1" vertex="1">
          <mxGeometry y="26" width="320" height="6" as="geometry" />
        </mxCell>
        <mxCell id="Q1gP4OVOA-8w4oq7mHiI-4" value="+ SpecialRange(Project, SymbolDesc, Collection&lt;String&gt;)&#xa;" style="text;strokeColor=none;fillColor=none;align=left;verticalAlign=top;spacingLeft=4;spacingRight=4;overflow=hidden;rotatable=0;points=[[0,0.5],[1,0.5]];portConstraint=eastwest;fontStyle=0" parent="Q1gP4OVOA-8w4oq7mHiI-1" vertex="1">
          <mxGeometry y="32" width="320" height="24" as="geometry" />
        </mxCell>
        <mxCell id="Q1gP4OVOA-8w4oq7mHiI-5" value="+ compare(SpecialAttribute, Special Attribute): int&#xa;# initSymbolAttributes(Collection&lt;String&gt;): void&#xa;+ getIndexOf(SpecialAttribute): Integer&#xa;+ addSymbolValue(String): SymbolAttribute&#xa;+ getAttributes(Object): Attribute&#xa;" style="text;strokeColor=none;fillColor=none;align=left;verticalAlign=top;spacingLeft=4;spacingRight=4;overflow=hidden;rotatable=0;points=[[0,0.5],[1,0.5]];portConstraint=eastwest;fontStyle=0" parent="Q1gP4OVOA-8w4oq7mHiI-1" vertex="1">
          <mxGeometry y="56" width="320" height="84" as="geometry" />
        </mxCell>
        <mxCell id="Q1gP4OVOA-8w4oq7mHiI-6" value="Extends" style="endArrow=block;endSize=16;endFill=0;html=1;entryX=0.5;entryY=0;entryDx=0;entryDy=0;exitX=0.496;exitY=1.047;exitDx=0;exitDy=0;exitPerimeter=0;" parent="1" source="Q1gP4OVOA-8w4oq7mHiI-5" target="6NlpwkJzzZhbk94JfLH--19" edge="1">
          <mxGeometry x="-0.2168" y="1" width="160" relative="1" as="geometry">
            <mxPoint x="2170.000000000001" y="360.0000000000001" as="sourcePoint" />
            <mxPoint x="2304.42" y="396.1" as="targetPoint" />
            <mxPoint as="offset" />
          </mxGeometry>
        </mxCell>
        <mxCell id="Q1gP4OVOA-8w4oq7mHiI-9" value="StringAttribute" style="swimlane;fontStyle=1;align=center;verticalAlign=top;childLayout=stackLayout;horizontal=1;startSize=26;horizontalStack=0;resizeParent=1;resizeParentMax=0;resizeLast=0;collapsible=1;marginBottom=0;" parent="1" vertex="1">
          <mxGeometry x="4040" y="400" width="200" height="130" as="geometry" />
        </mxCell>
        <mxCell id="Q1gP4OVOA-8w4oq7mHiI-10" value="- value: String" style="text;strokeColor=none;fillColor=none;align=left;verticalAlign=top;spacingLeft=4;spacingRight=4;overflow=hidden;rotatable=0;points=[[0,0.5],[1,0.5]];portConstraint=eastwest;" parent="Q1gP4OVOA-8w4oq7mHiI-9" vertex="1">
          <mxGeometry y="26" width="200" height="24" as="geometry" />
        </mxCell>
        <mxCell id="Q1gP4OVOA-8w4oq7mHiI-11" value="" style="line;strokeWidth=1;fillColor=none;align=left;verticalAlign=middle;spacingTop=-1;spacingLeft=3;spacingRight=3;rotatable=0;labelPosition=right;points=[];portConstraint=eastwest;" parent="Q1gP4OVOA-8w4oq7mHiI-9" vertex="1">
          <mxGeometry y="50" width="200" height="6" as="geometry" />
        </mxCell>
        <mxCell id="Q1gP4OVOA-8w4oq7mHiI-12" value="# StringAttribute(StringDesc, String)" style="text;strokeColor=none;fillColor=none;align=left;verticalAlign=top;spacingLeft=4;spacingRight=4;overflow=hidden;rotatable=0;points=[[0,0.5],[1,0.5]];portConstraint=eastwest;fontStyle=0" parent="Q1gP4OVOA-8w4oq7mHiI-9" vertex="1">
          <mxGeometry y="56" width="200" height="24" as="geometry" />
        </mxCell>
        <mxCell id="Q1gP4OVOA-8w4oq7mHiI-13" value="+ getValue(): String&#xa;+ toString(): String&#xa;+ equals(StringAttribute): boolean" style="text;strokeColor=none;fillColor=none;align=left;verticalAlign=top;spacingLeft=4;spacingRight=4;overflow=hidden;rotatable=0;points=[[0,0.5],[1,0.5]];portConstraint=eastwest;fontStyle=0" parent="Q1gP4OVOA-8w4oq7mHiI-9" vertex="1">
          <mxGeometry y="80" width="200" height="50" as="geometry" />
        </mxCell>
        <mxCell id="Q1gP4OVOA-8w4oq7mHiI-14" value="Extends" style="endArrow=block;endSize=16;endFill=0;html=1;entryX=1.01;entryY=0.323;entryDx=0;entryDy=0;entryPerimeter=0;exitX=-0.009;exitY=0.853;exitDx=0;exitDy=0;exitPerimeter=0;" parent="1" source="Q1gP4OVOA-8w4oq7mHiI-12" target="P6JcsMyotNKticRZ92DO-52" edge="1">
          <mxGeometry width="160" relative="1" as="geometry">
            <mxPoint x="4066.999999999999" y="655.7219999999996" as="sourcePoint" />
            <mxPoint x="3780" y="480.00400000000025" as="targetPoint" />
          </mxGeometry>
        </mxCell>
        <mxCell id="Q1gP4OVOA-8w4oq7mHiI-15" value="StringRange" style="swimlane;fontStyle=1;align=center;verticalAlign=top;childLayout=stackLayout;horizontal=1;startSize=26;horizontalStack=0;resizeParent=1;resizeParentMax=0;resizeLast=0;collapsible=1;marginBottom=0;" parent="1" vertex="1">
          <mxGeometry x="2170" y="300" width="340" height="120" as="geometry" />
        </mxCell>
        <mxCell id="Q1gP4OVOA-8w4oq7mHiI-16" value="- desc: StringDesc" style="text;strokeColor=none;fillColor=none;align=left;verticalAlign=top;spacingLeft=4;spacingRight=4;overflow=hidden;rotatable=0;points=[[0,0.5],[1,0.5]];portConstraint=eastwest;" parent="Q1gP4OVOA-8w4oq7mHiI-15" vertex="1">
          <mxGeometry y="26" width="340" height="24" as="geometry" />
        </mxCell>
        <mxCell id="Q1gP4OVOA-8w4oq7mHiI-17" value="" style="line;strokeWidth=1;fillColor=none;align=left;verticalAlign=middle;spacingTop=-1;spacingLeft=3;spacingRight=3;rotatable=0;labelPosition=right;points=[];portConstraint=eastwest;" parent="Q1gP4OVOA-8w4oq7mHiI-15" vertex="1">
          <mxGeometry y="50" width="340" height="6" as="geometry" />
        </mxCell>
        <mxCell id="Q1gP4OVOA-8w4oq7mHiI-18" value="+ StringRange(Project, StringDesc)" style="text;strokeColor=none;fillColor=none;align=left;verticalAlign=top;spacingLeft=4;spacingRight=4;overflow=hidden;rotatable=0;points=[[0,0.5],[1,0.5]];portConstraint=eastwest;fontStyle=0" parent="Q1gP4OVOA-8w4oq7mHiI-15" vertex="1">
          <mxGeometry y="56" width="340" height="24" as="geometry" />
        </mxCell>
        <mxCell id="Q1gP4OVOA-8w4oq7mHiI-19" value="+ getStringValue(String): StringAttribute)&#xa;+ update(Observable, Object): void" style="text;strokeColor=none;fillColor=none;align=left;verticalAlign=top;spacingLeft=4;spacingRight=4;overflow=hidden;rotatable=0;points=[[0,0.5],[1,0.5]];portConstraint=eastwest;fontStyle=0" parent="Q1gP4OVOA-8w4oq7mHiI-15" vertex="1">
          <mxGeometry y="80" width="340" height="40" as="geometry" />
        </mxCell>
        <mxCell id="Q1gP4OVOA-8w4oq7mHiI-21" value="ConceptExplanation" style="swimlane;fontStyle=1;align=center;verticalAlign=top;childLayout=stackLayout;horizontal=1;startSize=26;horizontalStack=0;resizeParent=1;resizeParentMax=0;resizeLast=0;collapsible=1;marginBottom=0;" parent="1" vertex="1">
          <mxGeometry x="2895" y="-570" width="320" height="230" as="geometry" />
        </mxCell>
        <mxCell id="Q1gP4OVOA-8w4oq7mHiI-23" value="- description: String&#xa;- links: HashSet&lt;String&gt;&#xa;- explainable: IExplainable" style="text;strokeColor=none;fillColor=none;align=left;verticalAlign=top;spacingLeft=4;spacingRight=4;overflow=hidden;rotatable=0;points=[[0,0.5],[1,0.5]];portConstraint=eastwest;" parent="Q1gP4OVOA-8w4oq7mHiI-21" vertex="1">
          <mxGeometry y="26" width="320" height="54" as="geometry" />
        </mxCell>
        <mxCell id="Q1gP4OVOA-8w4oq7mHiI-24" value="" style="line;strokeWidth=1;fillColor=none;align=left;verticalAlign=middle;spacingTop=-1;spacingLeft=3;spacingRight=3;rotatable=0;labelPosition=right;points=[];portConstraint=eastwest;" parent="Q1gP4OVOA-8w4oq7mHiI-21" vertex="1">
          <mxGeometry y="80" width="320" height="10" as="geometry" />
        </mxCell>
        <mxCell id="Q1gP4OVOA-8w4oq7mHiI-26" value="# ConceptExplanation(IExplainable, ExplanationManager)&#xa;# ConceptExplanation(IExplainable, String)" style="text;strokeColor=none;fillColor=none;align=left;verticalAlign=top;spacingLeft=4;spacingRight=4;overflow=hidden;rotatable=0;points=[[0,0.5],[1,0.5]];portConstraint=eastwest;" parent="Q1gP4OVOA-8w4oq7mHiI-21" vertex="1">
          <mxGeometry y="90" width="320" height="40" as="geometry" />
        </mxCell>
        <mxCell id="Q1gP4OVOA-8w4oq7mHiI-25" value="+ getExplainable(): IExplainable&#xa;+ setDescription(String): void&#xa;+ getDescription(): String&#xa;+ addLink(String): void&#xa;+ removeLink(String): void&#xa;+ getLinks(): HashSet&lt;String&gt;" style="text;strokeColor=none;fillColor=none;align=left;verticalAlign=top;spacingLeft=4;spacingRight=4;overflow=hidden;rotatable=0;points=[[0,0.5],[1,0.5]];portConstraint=eastwest;" parent="Q1gP4OVOA-8w4oq7mHiI-21" vertex="1">
          <mxGeometry y="130" width="320" height="100" as="geometry" />
        </mxCell>
        <mxCell id="Yp3YMdOh8-Mn880G9579-1" value="ExplanationManager" style="swimlane;fontStyle=1;align=center;verticalAlign=top;childLayout=stackLayout;horizontal=1;startSize=26;horizontalStack=0;resizeParent=1;resizeParentMax=0;resizeLast=0;collapsible=1;marginBottom=0;" parent="1" vertex="1">
          <mxGeometry x="3260" y="-740" width="370" height="390" as="geometry" />
        </mxCell>
        <mxCell id="Yp3YMdOh8-Mn880G9579-2" value="- isEnabled: boolean&#xa;- conceptExp: HashMap&lt;Concept, ConceptExplanation&gt;&#xa;- attributeDescExp: HashMap&lt;AttributeDesc, ConceptExplanation&gt;&#xa;- attributeExp: HashMap&lt;SimpleAttribute, ConceptExplanation&gt;&#xa;- instanceExp: HashMap&lt;Instance, ConceptExplanation&gt;" style="text;strokeColor=none;fillColor=none;align=left;verticalAlign=top;spacingLeft=4;spacingRight=4;overflow=hidden;rotatable=0;points=[[0,0.5],[1,0.5]];portConstraint=eastwest;" parent="Yp3YMdOh8-Mn880G9579-1" vertex="1">
          <mxGeometry y="26" width="370" height="80" as="geometry" />
        </mxCell>
        <mxCell id="Yp3YMdOh8-Mn880G9579-3" value="" style="line;strokeWidth=1;fillColor=none;align=left;verticalAlign=middle;spacingTop=-1;spacingLeft=3;spacingRight=3;rotatable=0;labelPosition=right;points=[];portConstraint=eastwest;" parent="Yp3YMdOh8-Mn880G9579-1" vertex="1">
          <mxGeometry y="106" width="370" height="10" as="geometry" />
        </mxCell>
        <mxCell id="Yp3YMdOh8-Mn880G9579-4" value="+ ExplanationManager()" style="text;strokeColor=none;fillColor=none;align=left;verticalAlign=top;spacingLeft=4;spacingRight=4;overflow=hidden;rotatable=0;points=[[0,0.5],[1,0.5]];portConstraint=eastwest;" parent="Yp3YMdOh8-Mn880G9579-1" vertex="1">
          <mxGeometry y="116" width="370" height="24" as="geometry" />
        </mxCell>
        <mxCell id="Yp3YMdOh8-Mn880G9579-5" value="+ getExplanation(Concept): ConceptExplanation&#xa;+ getExplanation(AttributeDesc): ConceptExplanation&#xa;+ getExplanation(SimpleAttribute): ConceptExplanation&#xa;+ getExplanation(Instance): ConceptExplanation&#xa;+ setExplanation(ConceptExplanation, SimpleAttribute): void&#xa;+ setExplanation(ConceptExplanation, Instance): void&#xa;+ setExplanation(ConceptExplanation, Concept): void&#xa;+ setExplanation(ConceptExplanation, AttributeDesc): void&#xa;+ explain(Concept, String): ConceptExplanation&#xa;+ explain(AttributeDesc, String): ConceptExplanation&#xa;+ explain(SimpleAttribute, String): ConceptExplanation&#xa;+ explain(Instance, String): ConceptExplanation&#xa;+ getExplanations(): LinkedList&lt;ConceptExplanation&gt;&#xa;+ explain(IExplainable, String): ConceptExplanation&#xa;+ setEnabled(boolean): void&#xa;+ isEnabled(): boolean&#xa;+ removeExplanation(IExplainable): void" style="text;strokeColor=none;fillColor=none;align=left;verticalAlign=top;spacingLeft=4;spacingRight=4;overflow=hidden;rotatable=0;points=[[0,0.5],[1,0.5]];portConstraint=eastwest;" parent="Yp3YMdOh8-Mn880G9579-1" vertex="1">
          <mxGeometry y="140" width="370" height="250" as="geometry" />
        </mxCell>
        <mxCell id="Yp3YMdOh8-Mn880G9579-6" value="&lt;&lt;enumeration&gt;&gt;&#xa;Explainable" style="swimlane;fontStyle=1;align=center;verticalAlign=middle;childLayout=stackLayout;horizontal=1;startSize=26;horizontalStack=0;resizeParent=1;resizeParentMax=0;resizeLast=0;collapsible=1;marginBottom=0;" parent="1" vertex="1">
          <mxGeometry x="2980" y="-720" width="130" height="90" as="geometry" />
        </mxCell>
        <mxCell id="Yp3YMdOh8-Mn880G9579-7" value="Concept&#xa;AttributeDesc&#xa;SimpleAttribute&#xa;Instance" style="text;strokeColor=none;fillColor=none;align=left;verticalAlign=top;spacingLeft=4;spacingRight=4;overflow=hidden;rotatable=0;points=[[0,0.5],[1,0.5]];portConstraint=eastwest;" parent="Yp3YMdOh8-Mn880G9579-6" vertex="1">
          <mxGeometry y="26" width="130" height="64" as="geometry" />
        </mxCell>
        <mxCell id="Yp3YMdOh8-Mn880G9579-10" value="BooleanDesc" style="swimlane;fontStyle=1;align=center;verticalAlign=top;childLayout=stackLayout;horizontal=1;startSize=26;horizontalStack=0;resizeParent=1;resizeParentMax=0;resizeLast=0;collapsible=1;marginBottom=0;" parent="1" vertex="1">
          <mxGeometry x="1020" y="-1850" width="280" height="134" as="geometry" />
        </mxCell>
        <mxCell id="Yp3YMdOh8-Mn880G9579-12" value="- symbolTrue: SymbolAttribute&#xa;- symbolFalse: SymbolAttribute" style="text;strokeColor=none;fillColor=none;align=left;verticalAlign=top;spacingLeft=4;spacingRight=4;overflow=hidden;rotatable=0;points=[[0,0.5],[1,0.5]];portConstraint=eastwest;" parent="Yp3YMdOh8-Mn880G9579-10" vertex="1">
          <mxGeometry y="26" width="280" height="34" as="geometry" />
        </mxCell>
        <mxCell id="Yp3YMdOh8-Mn880G9579-13" value="" style="line;strokeWidth=1;fillColor=none;align=left;verticalAlign=middle;spacingTop=-1;spacingLeft=3;spacingRight=3;rotatable=0;labelPosition=right;points=[];portConstraint=eastwest;" parent="Yp3YMdOh8-Mn880G9579-10" vertex="1">
          <mxGeometry y="60" width="280" height="10" as="geometry" />
        </mxCell>
        <mxCell id="Yp3YMdOh8-Mn880G9579-14" value="BooleanDesc(Concept, String)" style="text;strokeColor=none;fillColor=none;align=left;verticalAlign=top;spacingLeft=4;spacingRight=4;overflow=hidden;rotatable=0;points=[[0,0.5],[1,0.5]];portConstraint=eastwest;" parent="Yp3YMdOh8-Mn880G9579-10" vertex="1">
          <mxGeometry y="70" width="280" height="20" as="geometry" />
        </mxCell>
        <mxCell id="Yp3YMdOh8-Mn880G9579-15" value="+ getBooleanAttribute(Boolean): SymbolAttribute&#xa;+ addBooleanFct(String, Boolean): SymbolFct" style="text;strokeColor=none;fillColor=none;align=left;verticalAlign=top;spacingLeft=4;spacingRight=4;overflow=hidden;rotatable=0;points=[[0,0.5],[1,0.5]];portConstraint=eastwest;" parent="Yp3YMdOh8-Mn880G9579-10" vertex="1">
          <mxGeometry y="90" width="280" height="44" as="geometry" />
        </mxCell>
        <mxCell id="Yp3YMdOh8-Mn880G9579-23" value="SimpleAttDesc" style="swimlane;fontStyle=1;align=center;verticalAlign=top;childLayout=stackLayout;horizontal=1;startSize=26;horizontalStack=0;resizeParent=1;resizeParentMax=0;resizeLast=0;collapsible=1;marginBottom=0;" parent="1" vertex="1">
          <mxGeometry x="2000" y="-1450" width="220" height="240" as="geometry" />
        </mxCell>
        <mxCell id="Yp3YMdOh8-Mn880G9579-25" value="#simFcts: HashMap&lt;String, ISimFct&gt;" style="text;strokeColor=none;fillColor=none;align=left;verticalAlign=top;spacingLeft=4;spacingRight=4;overflow=hidden;rotatable=0;points=[[0,0.5],[1,0.5]];portConstraint=eastwest;" parent="Yp3YMdOh8-Mn880G9579-23" vertex="1">
          <mxGeometry y="26" width="220" height="24" as="geometry" />
        </mxCell>
        <mxCell id="Yp3YMdOh8-Mn880G9579-26" value="" style="line;strokeWidth=1;fillColor=none;align=left;verticalAlign=middle;spacingTop=-1;spacingLeft=3;spacingRight=3;rotatable=0;labelPosition=right;points=[];portConstraint=eastwest;" parent="Yp3YMdOh8-Mn880G9579-23" vertex="1">
          <mxGeometry y="50" width="220" height="10" as="geometry" />
        </mxCell>
        <mxCell id="Yp3YMdOh8-Mn880G9579-27" value="+ SimpleAttDesc(Concept, String)" style="text;strokeColor=none;fillColor=none;align=left;verticalAlign=top;spacingLeft=4;spacingRight=4;overflow=hidden;rotatable=0;points=[[0,0.5],[1,0.5]];portConstraint=eastwest;" parent="Yp3YMdOh8-Mn880G9579-23" vertex="1">
          <mxGeometry y="60" width="220" height="20" as="geometry" />
        </mxCell>
        <mxCell id="Yp3YMdOh8-Mn880G9579-28" value="+ getSimFcts(): List&lt;ISimFct&gt;&#xa;+ getFct(String): ISimFct&#xa;# addFunction(ISimFct, boolean): void&#xa;- setFctActive(ISimFct): void&#xa;+ deleteSimFct(ISimFct): void&#xa;+ addFct(ISimFct): void&#xa;+ canOverride(AttributeDesc): boolean&#xa;+ deleteAllFcts(): void&#xa;+ renameFct(String, String): void" style="text;strokeColor=none;fillColor=none;align=left;verticalAlign=top;spacingLeft=4;spacingRight=4;overflow=hidden;rotatable=0;points=[[0,0.5],[1,0.5]];portConstraint=eastwest;" parent="Yp3YMdOh8-Mn880G9579-23" vertex="1">
          <mxGeometry y="80" width="220" height="140" as="geometry" />
        </mxCell>
        <mxCell id="Yp3YMdOh8-Mn880G9579-30" value="# addDefaultFct(): void" style="text;strokeColor=none;fillColor=none;align=left;verticalAlign=top;spacingLeft=4;spacingRight=4;overflow=hidden;rotatable=0;points=[[0,0.5],[1,0.5]];portConstraint=eastwest;fontStyle=2" parent="Yp3YMdOh8-Mn880G9579-23" vertex="1">
          <mxGeometry y="220" width="220" height="20" as="geometry" />
        </mxCell>
        <mxCell id="Yp3YMdOh8-Mn880G9579-31" value="" style="endArrow=block;dashed=1;endFill=0;endSize=12;html=1;entryX=-0.003;entryY=-0.309;entryDx=0;entryDy=0;entryPerimeter=0;exitX=1;exitY=0.232;exitDx=0;exitDy=0;exitPerimeter=0;" parent="1" source="Yp3YMdOh8-Mn880G9579-21" target="6NlpwkJzzZhbk94JfLH--5" edge="1">
          <mxGeometry width="160" relative="1" as="geometry">
            <mxPoint x="3326.56" y="-496.48" as="sourcePoint" />
            <mxPoint x="3259.9999999999995" y="-1159.9960000000005" as="targetPoint" />
          </mxGeometry>
        </mxCell>
        <mxCell id="Yp3YMdOh8-Mn880G9579-16" value="SymbolDesc" style="swimlane;fontStyle=1;align=center;verticalAlign=top;childLayout=stackLayout;horizontal=1;startSize=26;horizontalStack=0;resizeParent=1;resizeParentMax=0;resizeLast=0;collapsible=1;marginBottom=0;" parent="1" vertex="1">
          <mxGeometry x="1480" y="-1330" width="420" height="320" as="geometry" />
        </mxCell>
        <mxCell id="Zt8ITWkyCNrxcCpvS0CE-4" value="- LOGGER: logger = LogManager.getLogger(SymbolDesc.class)" style="text;strokeColor=none;fillColor=none;align=left;verticalAlign=top;spacingLeft=4;spacingRight=4;overflow=hidden;rotatable=0;points=[[0,0.5],[1,0.5]];portConstraint=eastwest;" vertex="1" parent="Yp3YMdOh8-Mn880G9579-16">
          <mxGeometry y="26" width="420" height="20" as="geometry" />
        </mxCell>
        <mxCell id="Yp3YMdOh8-Mn880G9579-19" value="" style="line;strokeWidth=1;fillColor=none;align=left;verticalAlign=middle;spacingTop=-1;spacingLeft=3;spacingRight=3;rotatable=0;labelPosition=right;points=[];portConstraint=eastwest;" parent="Yp3YMdOh8-Mn880G9579-16" vertex="1">
          <mxGeometry y="46" width="420" height="10" as="geometry" />
        </mxCell>
        <mxCell id="Yp3YMdOh8-Mn880G9579-20" value="+ SymbolDesc(Concept, String, Set&lt;String&gt;)" style="text;strokeColor=none;fillColor=none;align=left;verticalAlign=top;spacingLeft=4;spacingRight=4;overflow=hidden;rotatable=0;points=[[0,0.5],[1,0.5]];portConstraint=eastwest;" parent="Yp3YMdOh8-Mn880G9579-16" vertex="1">
          <mxGeometry y="56" width="420" height="20" as="geometry" />
        </mxCell>
        <mxCell id="Yp3YMdOh8-Mn880G9579-21" value="+ addOrderedSymbolFct(String, boolean)&#xa;+ getAttribute(String): Attribute&#xa;+ addSymbol(String): SymbolAttribute&#xa;+ getSymbolAttributes(): Collcetion&lt;SymbolAttribute&gt;&#xa;+ getAllowedValues(): Set&lt;String&gt;&#xa;+ isAllowedValue(String): boolean&#xa;+ removeSymbol(String): void&#xa;+ canOverride(AttributeDesc): boolean&#xa;+ getIndexOf(SimpleAttribute): Integer&#xa;+ fits(Attribute): boolean&#xa;+ fitsSingle(Attribute): boolean&#xa;- check(SymbolAttribute): boolean&#xa;+ renameValue(String, String): boolean&#xa;+ addSymbolFct(String, boolean): SymbolFct&#xa;+ addTaxonomyFct(String, boolean): TaxonomyFct" style="text;strokeColor=none;fillColor=none;align=left;verticalAlign=top;spacingLeft=4;spacingRight=4;overflow=hidden;rotatable=0;points=[[0,0.5],[1,0.5]];portConstraint=eastwest;" parent="Yp3YMdOh8-Mn880G9579-16" vertex="1">
          <mxGeometry y="76" width="420" height="214" as="geometry" />
        </mxCell>
        <mxCell id="Yp3YMdOh8-Mn880G9579-32" value="# addDefaultFct(): void" style="text;strokeColor=none;fillColor=none;align=left;verticalAlign=top;spacingLeft=4;spacingRight=4;overflow=hidden;rotatable=0;points=[[0,0.5],[1,0.5]];portConstraint=eastwest;fontStyle=2" parent="Yp3YMdOh8-Mn880G9579-16" vertex="1">
          <mxGeometry y="290" width="420" height="30" as="geometry" />
        </mxCell>
        <mxCell id="Yp3YMdOh8-Mn880G9579-29" value="Extends" style="endArrow=block;endSize=16;endFill=0;html=1;entryX=-0.003;entryY=0.575;entryDx=0;entryDy=0;exitX=0.997;exitY=0.3;exitDx=0;exitDy=0;exitPerimeter=0;entryPerimeter=0;" parent="1" source="Yp3YMdOh8-Mn880G9579-20" target="Yp3YMdOh8-Mn880G9579-28" edge="1">
          <mxGeometry width="160" relative="1" as="geometry">
            <mxPoint x="692" y="-1459.9999999999993" as="sourcePoint" />
            <mxPoint x="2791.44" y="-52.799999999999955" as="targetPoint" />
          </mxGeometry>
        </mxCell>
        <mxCell id="Yp3YMdOh8-Mn880G9579-33" value="Extends" style="endArrow=block;endSize=16;endFill=0;html=1;entryX=0.204;entryY=0.002;entryDx=0;entryDy=0;exitX=1.001;exitY=0.199;exitDx=0;exitDy=0;exitPerimeter=0;entryPerimeter=0;" parent="1" source="Yp3YMdOh8-Mn880G9579-15" target="Yp3YMdOh8-Mn880G9579-16" edge="1">
          <mxGeometry width="160" relative="1" as="geometry">
            <mxPoint x="1949.9999999999998" y="-1367.44" as="sourcePoint" />
            <mxPoint x="2093.0200000000004" y="-1409.9999999999995" as="targetPoint" />
          </mxGeometry>
        </mxCell>
        <mxCell id="Yp3YMdOh8-Mn880G9579-35" value="ConceptDesc" style="swimlane;fontStyle=1;align=center;verticalAlign=top;childLayout=stackLayout;horizontal=1;startSize=26;horizontalStack=0;resizeParent=1;resizeParentMax=0;resizeLast=0;collapsible=1;marginBottom=0;" parent="1" vertex="1">
          <mxGeometry x="1830" y="-1000" width="360" height="220" as="geometry" />
        </mxCell>
        <mxCell id="Yp3YMdOh8-Mn880G9579-37" value="- concept: Concept&#xa;- multipleConfigs: HashMap&lt;AmalagamationFct, MultipleConfig&gt;" style="text;strokeColor=none;fillColor=none;align=left;verticalAlign=top;spacingLeft=4;spacingRight=4;overflow=hidden;rotatable=0;points=[[0,0.5],[1,0.5]];portConstraint=eastwest;" parent="Yp3YMdOh8-Mn880G9579-35" vertex="1">
          <mxGeometry y="26" width="360" height="44" as="geometry" />
        </mxCell>
        <mxCell id="Yp3YMdOh8-Mn880G9579-38" value="" style="line;strokeWidth=1;fillColor=none;align=left;verticalAlign=middle;spacingTop=-1;spacingLeft=3;spacingRight=3;rotatable=0;labelPosition=right;points=[];portConstraint=eastwest;" parent="Yp3YMdOh8-Mn880G9579-35" vertex="1">
          <mxGeometry y="70" width="360" height="10" as="geometry" />
        </mxCell>
        <mxCell id="Yp3YMdOh8-Mn880G9579-39" value="+ ConceptDesc(Concept, String, Concept)" style="text;strokeColor=none;fillColor=none;align=left;verticalAlign=top;spacingLeft=4;spacingRight=4;overflow=hidden;rotatable=0;points=[[0,0.5],[1,0.5]];portConstraint=eastwest;" parent="Yp3YMdOh8-Mn880G9579-35" vertex="1">
          <mxGeometry y="80" width="360" height="20" as="geometry" />
        </mxCell>
        <mxCell id="Yp3YMdOh8-Mn880G9579-40" value="+ getConcept(): Concept&#xa;+ setConcept(Concept): Concept&#xa;+ fits(Attribute): boolean&#xa;+ fitsSingle(Attribute): boolean&#xa;- check(Instance): boolean&#xa;+ deleteAllFcts(): void&#xa;+ getMultipleConfig(AmalgamationFct): MultipleConfig&#xa;+ setMultipleConfig(AmalgamationFct, MultipleConfig): void" style="text;strokeColor=none;fillColor=none;align=left;verticalAlign=top;spacingLeft=4;spacingRight=4;overflow=hidden;rotatable=0;points=[[0,0.5],[1,0.5]];portConstraint=eastwest;" parent="Yp3YMdOh8-Mn880G9579-35" vertex="1">
          <mxGeometry y="100" width="360" height="120" as="geometry" />
        </mxCell>
        <mxCell id="Yp3YMdOh8-Mn880G9579-42" value="Extends" style="endArrow=block;endSize=16;endFill=0;html=1;entryX=-0.001;entryY=0.064;entryDx=0;entryDy=0;entryPerimeter=0;" parent="1" source="Yp3YMdOh8-Mn880G9579-37" target="Yp3YMdOh8-Mn880G9579-9" edge="1">
          <mxGeometry width="160" relative="1" as="geometry">
            <mxPoint x="879.9999999999998" y="-1710.44" as="sourcePoint" />
            <mxPoint x="1023.0199999999993" y="-1752.9999999999995" as="targetPoint" />
          </mxGeometry>
        </mxCell>
        <mxCell id="Yp3YMdOh8-Mn880G9579-48" value="DateDesc" style="swimlane;fontStyle=1;align=center;verticalAlign=top;childLayout=stackLayout;horizontal=1;startSize=26;horizontalStack=0;resizeParent=1;resizeParentMax=0;resizeLast=0;collapsible=1;marginBottom=0;" parent="1" vertex="1">
          <mxGeometry x="1710" y="-1850" width="280" height="320" as="geometry" />
        </mxCell>
        <mxCell id="Yp3YMdOh8-Mn880G9579-50" value="- minDate: Date&#xa;- maxDate: Date&#xa;- range: DateRange&#xa;- format: SimpleDateFormat" style="text;strokeColor=none;fillColor=none;align=left;verticalAlign=top;spacingLeft=4;spacingRight=4;overflow=hidden;rotatable=0;points=[[0,0.5],[1,0.5]];portConstraint=eastwest;" parent="Yp3YMdOh8-Mn880G9579-48" vertex="1">
          <mxGeometry y="26" width="280" height="70" as="geometry" />
        </mxCell>
        <mxCell id="Yp3YMdOh8-Mn880G9579-51" value="" style="line;strokeWidth=1;fillColor=none;align=left;verticalAlign=middle;spacingTop=-1;spacingLeft=3;spacingRight=3;rotatable=0;labelPosition=right;points=[];portConstraint=eastwest;" parent="Yp3YMdOh8-Mn880G9579-48" vertex="1">
          <mxGeometry y="96" width="280" height="10" as="geometry" />
        </mxCell>
        <mxCell id="Yp3YMdOh8-Mn880G9579-52" value="+ DateDesc(Concept, String, Date, Date, SimpleDateFormat)" style="text;strokeColor=none;fillColor=none;align=left;verticalAlign=top;spacingLeft=4;spacingRight=4;overflow=hidden;rotatable=0;points=[[0,0.5],[1,0.5]];portConstraint=eastwest;" parent="Yp3YMdOh8-Mn880G9579-48" vertex="1">
          <mxGeometry y="106" width="280" height="20" as="geometry" />
        </mxCell>
        <mxCell id="Yp3YMdOh8-Mn880G9579-53" value="+ getDateAttribute(Date): DateAttribute&#xa;+ setMinDate(Date): void&#xa;+ getMinDate(): Date&#xa;+ setMaxDate(Date): void&#xa;+ getMaxDate(): Date&#xa;+ getFormat(): SimpleDateFormat&#xa;+ setFormat(SimpleDateFormat): void&#xa;+ addDateFct(String, boolean, DateFunctionPrecision): DateFct&#xa;+ addDateFct(String, boolean): DateFct&#xa;+ fits(Attribute): boolean&#xa;+ fitsSingle(Attribute): bollean&#xa;- check(DateAttribute): boolean" style="text;strokeColor=none;fillColor=none;align=left;verticalAlign=top;spacingLeft=4;spacingRight=4;overflow=hidden;rotatable=0;points=[[0,0.5],[1,0.5]];portConstraint=eastwest;" parent="Yp3YMdOh8-Mn880G9579-48" vertex="1">
          <mxGeometry y="126" width="280" height="174" as="geometry" />
        </mxCell>
        <mxCell id="Yp3YMdOh8-Mn880G9579-55" value="# addDefaultFct(): void" style="text;strokeColor=none;fillColor=none;align=left;verticalAlign=top;spacingLeft=4;spacingRight=4;overflow=hidden;rotatable=0;points=[[0,0.5],[1,0.5]];portConstraint=eastwest;fontStyle=2" parent="Yp3YMdOh8-Mn880G9579-48" vertex="1">
          <mxGeometry y="300" width="280" height="20" as="geometry" />
        </mxCell>
        <mxCell id="Yp3YMdOh8-Mn880G9579-54" value="Extends" style="endArrow=block;endSize=16;endFill=0;html=1;exitX=0.994;exitY=1.06;exitDx=0;exitDy=0;exitPerimeter=0;entryX=0.072;entryY=-0.012;entryDx=0;entryDy=0;entryPerimeter=0;" parent="1" source="Yp3YMdOh8-Mn880G9579-55" target="Yp3YMdOh8-Mn880G9579-23" edge="1">
          <mxGeometry width="160" relative="1" as="geometry">
            <mxPoint x="1880" y="-1330.0000000000005" as="sourcePoint" />
            <mxPoint x="1875.5400000000009" y="-1271.1999999999998" as="targetPoint" />
          </mxGeometry>
        </mxCell>
        <mxCell id="Yp3YMdOh8-Mn880G9579-57" value="&lt;&lt;enumeration&gt;&gt;&#xa;Description" style="swimlane;fontStyle=1;align=center;verticalAlign=middle;childLayout=stackLayout;horizontal=1;startSize=26;horizontalStack=0;resizeParent=1;resizeParentMax=0;resizeLast=0;collapsible=1;marginBottom=0;" parent="1" vertex="1">
          <mxGeometry x="1480" y="-800" width="100" height="160" as="geometry" />
        </mxCell>
        <mxCell id="Yp3YMdOh8-Mn880G9579-58" value="Boolean&#xa;Concept&#xa;Date&#xa;Interval&#xa;Integer&#xa;Float&#xa;Double&#xa;StringÂ &#xa;Symbol" style="text;strokeColor=none;fillColor=none;align=left;verticalAlign=top;spacingLeft=4;spacingRight=4;overflow=hidden;rotatable=0;points=[[0,0.5],[1,0.5]];portConstraint=eastwest;" parent="Yp3YMdOh8-Mn880G9579-57" vertex="1">
          <mxGeometry y="26" width="100" height="134" as="geometry" />
        </mxCell>
        <mxCell id="Yp3YMdOh8-Mn880G9579-59" value="DoubleDesc" style="swimlane;fontStyle=1;align=center;verticalAlign=top;childLayout=stackLayout;horizontal=1;startSize=26;horizontalStack=0;resizeParent=1;resizeParentMax=0;resizeLast=0;collapsible=1;marginBottom=0;" parent="1" vertex="1">
          <mxGeometry x="2030" y="-1850" width="360" height="320" as="geometry" />
        </mxCell>
        <mxCell id="Yp3YMdOh8-Mn880G9579-60" value="- min: double&#xa;- max: double&#xa;- range: DoubleRange" style="text;strokeColor=none;fillColor=none;align=left;verticalAlign=top;spacingLeft=4;spacingRight=4;overflow=hidden;rotatable=0;points=[[0,0.5],[1,0.5]];portConstraint=eastwest;" parent="Yp3YMdOh8-Mn880G9579-59" vertex="1">
          <mxGeometry y="26" width="360" height="70" as="geometry" />
        </mxCell>
        <mxCell id="Yp3YMdOh8-Mn880G9579-61" value="" style="line;strokeWidth=1;fillColor=none;align=left;verticalAlign=middle;spacingTop=-1;spacingLeft=3;spacingRight=3;rotatable=0;labelPosition=right;points=[];portConstraint=eastwest;" parent="Yp3YMdOh8-Mn880G9579-59" vertex="1">
          <mxGeometry y="96" width="360" height="10" as="geometry" />
        </mxCell>
        <mxCell id="Yp3YMdOh8-Mn880G9579-62" value="+ DoubleDesc(Concept, String, double, double)" style="text;strokeColor=none;fillColor=none;align=left;verticalAlign=top;spacingLeft=4;spacingRight=4;overflow=hidden;rotatable=0;points=[[0,0.5],[1,0.5]];portConstraint=eastwest;" parent="Yp3YMdOh8-Mn880G9579-59" vertex="1">
          <mxGeometry y="106" width="360" height="20" as="geometry" />
        </mxCell>
        <mxCell id="Yp3YMdOh8-Mn880G9579-63" value="+ getNumberAttribute(double): SimpleAttribute&#xa;+ setMin(double): void&#xa;+ getMin(): double&#xa;+ setMax(double): void&#xa;+ getMax(): double&#xa;+ getRange(): DoubleRange&#xa;+ addDoubleFct(String, boolean): DoubleFct&#xa;+ addAdvancedDoubleFct(String, boolean): AdvancedDoubleFct&#xa;+ fits(Attribute): boolean&#xa;+ fitsSingle(Attribute): boolean&#xa;- chech(DoubleAttribute): boolean" style="text;strokeColor=none;fillColor=none;align=left;verticalAlign=top;spacingLeft=4;spacingRight=4;overflow=hidden;rotatable=0;points=[[0,0.5],[1,0.5]];portConstraint=eastwest;" parent="Yp3YMdOh8-Mn880G9579-59" vertex="1">
          <mxGeometry y="126" width="360" height="174" as="geometry" />
        </mxCell>
        <mxCell id="Yp3YMdOh8-Mn880G9579-64" value="# addDefaultFct(): void" style="text;strokeColor=none;fillColor=none;align=left;verticalAlign=top;spacingLeft=4;spacingRight=4;overflow=hidden;rotatable=0;points=[[0,0.5],[1,0.5]];portConstraint=eastwest;fontStyle=2" parent="Yp3YMdOh8-Mn880G9579-59" vertex="1">
          <mxGeometry y="300" width="360" height="20" as="geometry" />
        </mxCell>
        <mxCell id="Yp3YMdOh8-Mn880G9579-65" value="Extends" style="endArrow=block;endSize=16;endFill=0;html=1;entryX=0.5;entryY=0;entryDx=0;entryDy=0;exitX=0.221;exitY=1.06;exitDx=0;exitDy=0;exitPerimeter=0;" parent="1" source="Yp3YMdOh8-Mn880G9579-64" target="Yp3YMdOh8-Mn880G9579-23" edge="1">
          <mxGeometry width="160" relative="1" as="geometry">
            <mxPoint x="2220.24" y="-1448.58" as="sourcePoint" />
            <mxPoint x="2265.231951688169" y="-1350" as="targetPoint" />
          </mxGeometry>
        </mxCell>
        <mxCell id="Yp3YMdOh8-Mn880G9579-66" value="FloatDesc" style="swimlane;fontStyle=1;align=center;verticalAlign=top;childLayout=stackLayout;horizontal=1;startSize=26;horizontalStack=0;resizeParent=1;resizeParentMax=0;resizeLast=0;collapsible=1;marginBottom=0;" parent="1" vertex="1">
          <mxGeometry x="2430" y="-1850" width="330" height="320" as="geometry" />
        </mxCell>
        <mxCell id="Yp3YMdOh8-Mn880G9579-67" value="- min: float&#xa;- max: float&#xa;- range: FloatRange" style="text;strokeColor=none;fillColor=none;align=left;verticalAlign=top;spacingLeft=4;spacingRight=4;overflow=hidden;rotatable=0;points=[[0,0.5],[1,0.5]];portConstraint=eastwest;" parent="Yp3YMdOh8-Mn880G9579-66" vertex="1">
          <mxGeometry y="26" width="330" height="70" as="geometry" />
        </mxCell>
        <mxCell id="Yp3YMdOh8-Mn880G9579-68" value="" style="line;strokeWidth=1;fillColor=none;align=left;verticalAlign=middle;spacingTop=-1;spacingLeft=3;spacingRight=3;rotatable=0;labelPosition=right;points=[];portConstraint=eastwest;" parent="Yp3YMdOh8-Mn880G9579-66" vertex="1">
          <mxGeometry y="96" width="330" height="10" as="geometry" />
        </mxCell>
        <mxCell id="Yp3YMdOh8-Mn880G9579-69" value="+ FloatDesc(Concept, String, float, float)" style="text;strokeColor=none;fillColor=none;align=left;verticalAlign=top;spacingLeft=4;spacingRight=4;overflow=hidden;rotatable=0;points=[[0,0.5],[1,0.5]];portConstraint=eastwest;" parent="Yp3YMdOh8-Mn880G9579-66" vertex="1">
          <mxGeometry y="106" width="330" height="20" as="geometry" />
        </mxCell>
        <mxCell id="Yp3YMdOh8-Mn880G9579-70" value="+ getNumberAttribute(float): SimpleAttribute&#xa;+ setMin(float): void&#xa;+ getMin(): float&#xa;+ setMax(float): void&#xa;+ getMax(): float&#xa;+ getRange(): FloatRange&#xa;+ addFloatFct(String, boolean): FloatFct&#xa;+ addAdvancedFloatFct(String, boolean): AdvancedFloatFct&#xa;+ fits(Attribute): boolean&#xa;+ fitsSingle(Attribute): boolean&#xa;- chech(FloatAttribute): boolean" style="text;strokeColor=none;fillColor=none;align=left;verticalAlign=top;spacingLeft=4;spacingRight=4;overflow=hidden;rotatable=0;points=[[0,0.5],[1,0.5]];portConstraint=eastwest;" parent="Yp3YMdOh8-Mn880G9579-66" vertex="1">
          <mxGeometry y="126" width="330" height="174" as="geometry" />
        </mxCell>
        <mxCell id="Yp3YMdOh8-Mn880G9579-71" value="# addDefaultFct(): void" style="text;strokeColor=none;fillColor=none;align=left;verticalAlign=top;spacingLeft=4;spacingRight=4;overflow=hidden;rotatable=0;points=[[0,0.5],[1,0.5]];portConstraint=eastwest;fontStyle=2" parent="Yp3YMdOh8-Mn880G9579-66" vertex="1">
          <mxGeometry y="300" width="330" height="20" as="geometry" />
        </mxCell>
        <mxCell id="Yp3YMdOh8-Mn880G9579-72" value="Extends" style="endArrow=block;endSize=16;endFill=0;html=1;exitX=-0.003;exitY=1.026;exitDx=0;exitDy=0;exitPerimeter=0;entryX=1.003;entryY=0.028;entryDx=0;entryDy=0;entryPerimeter=0;" parent="1" source="Yp3YMdOh8-Mn880G9579-71" target="Yp3YMdOh8-Mn880G9579-23" edge="1">
          <mxGeometry width="160" relative="1" as="geometry">
            <mxPoint x="2535.103410740204" y="-1450" as="sourcePoint" />
            <mxPoint x="2220" y="-1444" as="targetPoint" />
          </mxGeometry>
        </mxCell>
        <mxCell id="Yp3YMdOh8-Mn880G9579-79" value="Extends" style="endArrow=block;endSize=16;endFill=0;html=1;entryX=1.012;entryY=0.749;entryDx=0;entryDy=0;entryPerimeter=0;exitX=0.002;exitY=0.971;exitDx=0;exitDy=0;exitPerimeter=0;" parent="1" source="Yp3YMdOh8-Mn880G9579-74" target="Yp3YMdOh8-Mn880G9579-25" edge="1">
          <mxGeometry width="160" relative="1" as="geometry">
            <mxPoint x="2481.6500000000005" y="-1242.2499999999995" as="sourcePoint" />
            <mxPoint x="2430" y="-1241.58" as="targetPoint" />
          </mxGeometry>
        </mxCell>
        <mxCell id="Yp3YMdOh8-Mn880G9579-80" value="IntervalDesc" style="swimlane;fontStyle=1;align=center;verticalAlign=top;childLayout=stackLayout;horizontal=1;startSize=26;horizontalStack=0;resizeParent=1;resizeParentMax=0;resizeLast=0;collapsible=1;marginBottom=0;" parent="1" vertex="1">
          <mxGeometry x="1370" y="-1850" width="320" height="280" as="geometry" />
        </mxCell>
        <mxCell id="Yp3YMdOh8-Mn880G9579-81" value="- range: IntervalRange&#xa;- min: double&#xa;- max: double" style="text;strokeColor=none;fillColor=none;align=left;verticalAlign=top;spacingLeft=4;spacingRight=4;overflow=hidden;rotatable=0;points=[[0,0.5],[1,0.5]];portConstraint=eastwest;" parent="Yp3YMdOh8-Mn880G9579-80" vertex="1">
          <mxGeometry y="26" width="320" height="70" as="geometry" />
        </mxCell>
        <mxCell id="Yp3YMdOh8-Mn880G9579-82" value="" style="line;strokeWidth=1;fillColor=none;align=left;verticalAlign=middle;spacingTop=-1;spacingLeft=3;spacingRight=3;rotatable=0;labelPosition=right;points=[];portConstraint=eastwest;" parent="Yp3YMdOh8-Mn880G9579-80" vertex="1">
          <mxGeometry y="96" width="320" height="10" as="geometry" />
        </mxCell>
        <mxCell id="Yp3YMdOh8-Mn880G9579-83" value="+ IntervalDesc(Concept, String, double, double)" style="text;strokeColor=none;fillColor=none;align=left;verticalAlign=top;spacingLeft=4;spacingRight=4;overflow=hidden;rotatable=0;points=[[0,0.5],[1,0.5]];portConstraint=eastwest;" parent="Yp3YMdOh8-Mn880G9579-80" vertex="1">
          <mxGeometry y="106" width="320" height="20" as="geometry" />
        </mxCell>
        <mxCell id="Yp3YMdOh8-Mn880G9579-84" value="+ getIntervalAttribute(double, double): IntervalAttribute&#xa;+ getMin(): double&#xa;+ setMin(double). void&#xa;+ getMax(): double&#xa;+ setMax(double): void&#xa;+ addIntervalFct(String, boolean): IntervalFct&#xa;+ fits(Attribute): boolean&#xa;+ fitsSingle(Attribute): boolean&#xa;- check(IntervalAttribute): boolean" style="text;strokeColor=none;fillColor=none;align=left;verticalAlign=top;spacingLeft=4;spacingRight=4;overflow=hidden;rotatable=0;points=[[0,0.5],[1,0.5]];portConstraint=eastwest;" parent="Yp3YMdOh8-Mn880G9579-80" vertex="1">
          <mxGeometry y="126" width="320" height="134" as="geometry" />
        </mxCell>
        <mxCell id="Yp3YMdOh8-Mn880G9579-85" value="# addDefaultFct(): void" style="text;strokeColor=none;fillColor=none;align=left;verticalAlign=top;spacingLeft=4;spacingRight=4;overflow=hidden;rotatable=0;points=[[0,0.5],[1,0.5]];portConstraint=eastwest;fontStyle=2" parent="Yp3YMdOh8-Mn880G9579-80" vertex="1">
          <mxGeometry y="260" width="320" height="20" as="geometry" />
        </mxCell>
        <mxCell id="Yp3YMdOh8-Mn880G9579-86" value="Extends" style="endArrow=block;endSize=16;endFill=0;html=1;entryX=0.006;entryY=0.06;entryDx=0;entryDy=0;entryPerimeter=0;exitX=1.007;exitY=1.129;exitDx=0;exitDy=0;exitPerimeter=0;" parent="1" source="Yp3YMdOh8-Mn880G9579-85" target="Yp3YMdOh8-Mn880G9579-23" edge="1">
          <mxGeometry width="160" relative="1" as="geometry">
            <mxPoint x="2100" y="-1430" as="sourcePoint" />
            <mxPoint x="2144.991951688169" y="-1331.42" as="targetPoint" />
          </mxGeometry>
        </mxCell>
        <mxCell id="Yp3YMdOh8-Mn880G9579-87" value="SpecialDesc" style="swimlane;fontStyle=1;align=center;verticalAlign=top;childLayout=stackLayout;horizontal=1;startSize=26;horizontalStack=0;resizeParent=1;resizeParentMax=0;resizeLast=0;collapsible=1;marginBottom=0;" parent="1" vertex="1">
          <mxGeometry x="1450" y="-984" width="350" height="164" as="geometry" />
        </mxCell>
        <mxCell id="Zt8ITWkyCNrxcCpvS0CE-5" value="- LOGGER: logger = LogManager.getLogger(SpecialDesc.class)" style="text;strokeColor=none;fillColor=none;align=left;verticalAlign=top;spacingLeft=4;spacingRight=4;overflow=hidden;rotatable=0;points=[[0,0.5],[1,0.5]];portConstraint=eastwest;" vertex="1" parent="Yp3YMdOh8-Mn880G9579-87">
          <mxGeometry y="26" width="350" height="24" as="geometry" />
        </mxCell>
        <mxCell id="Yp3YMdOh8-Mn880G9579-90" value="" style="line;strokeWidth=1;fillColor=none;align=left;verticalAlign=middle;spacingTop=-1;spacingLeft=3;spacingRight=3;rotatable=0;labelPosition=right;points=[];portConstraint=eastwest;" parent="Yp3YMdOh8-Mn880G9579-87" vertex="1">
          <mxGeometry y="50" width="350" height="10" as="geometry" />
        </mxCell>
        <mxCell id="Yp3YMdOh8-Mn880G9579-91" value="+ SpecialDesc(Project, HashSet&lt;String&gt;)" style="text;strokeColor=none;fillColor=none;align=left;verticalAlign=top;spacingLeft=4;spacingRight=4;overflow=hidden;rotatable=0;points=[[0,0.5],[1,0.5]];portConstraint=eastwest;" parent="Yp3YMdOh8-Mn880G9579-87" vertex="1">
          <mxGeometry y="60" width="350" height="20" as="geometry" />
        </mxCell>
        <mxCell id="Yp3YMdOh8-Mn880G9579-92" value="+ getDefault(): SpecialDesc&#xa;+ getAttribute(String): Attribute&#xa;+ getIndexOf(SpecialAttribute): Integer&#xa;+ removeSymbol(String): void&#xa;+ addSpecialFct(String, boolean)" style="text;strokeColor=none;fillColor=none;align=left;verticalAlign=top;spacingLeft=4;spacingRight=4;overflow=hidden;rotatable=0;points=[[0,0.5],[1,0.5]];portConstraint=eastwest;" parent="Yp3YMdOh8-Mn880G9579-87" vertex="1">
          <mxGeometry y="80" width="350" height="84" as="geometry" />
        </mxCell>
        <mxCell id="Yp3YMdOh8-Mn880G9579-93" value="Extends" style="endArrow=block;endSize=16;endFill=0;html=1;entryX=0.36;entryY=1.051;entryDx=0;entryDy=0;exitX=0.52;exitY=0.008;exitDx=0;exitDy=0;entryPerimeter=0;exitPerimeter=0;" parent="1" source="Yp3YMdOh8-Mn880G9579-87" target="Yp3YMdOh8-Mn880G9579-32" edge="1">
          <mxGeometry width="160" relative="1" as="geometry">
            <mxPoint x="1600.0000000000005" y="-1330.0000000000005" as="sourcePoint" />
            <mxPoint x="1713.42" y="-1269.0999999999995" as="targetPoint" />
          </mxGeometry>
        </mxCell>
        <mxCell id="Yp3YMdOh8-Mn880G9579-94" value="StringDesc" style="swimlane;fontStyle=1;align=center;verticalAlign=top;childLayout=stackLayout;horizontal=1;startSize=26;horizontalStack=0;resizeParent=1;resizeParentMax=0;resizeLast=0;collapsible=1;marginBottom=0;" parent="1" vertex="1">
          <mxGeometry x="1570" y="-1500" width="290" height="154" as="geometry" />
        </mxCell>
        <mxCell id="Yp3YMdOh8-Mn880G9579-95" value="- range: StringRange" style="text;strokeColor=none;fillColor=none;align=left;verticalAlign=top;spacingLeft=4;spacingRight=4;overflow=hidden;rotatable=0;points=[[0,0.5],[1,0.5]];portConstraint=eastwest;" parent="Yp3YMdOh8-Mn880G9579-94" vertex="1">
          <mxGeometry y="26" width="290" height="24" as="geometry" />
        </mxCell>
        <mxCell id="Yp3YMdOh8-Mn880G9579-96" value="" style="line;strokeWidth=1;fillColor=none;align=left;verticalAlign=middle;spacingTop=-1;spacingLeft=3;spacingRight=3;rotatable=0;labelPosition=right;points=[];portConstraint=eastwest;" parent="Yp3YMdOh8-Mn880G9579-94" vertex="1">
          <mxGeometry y="50" width="290" height="10" as="geometry" />
        </mxCell>
        <mxCell id="Yp3YMdOh8-Mn880G9579-97" value="+ StringDesc(Concept, String)" style="text;strokeColor=none;fillColor=none;align=left;verticalAlign=top;spacingLeft=4;spacingRight=4;overflow=hidden;rotatable=0;points=[[0,0.5],[1,0.5]];portConstraint=eastwest;" parent="Yp3YMdOh8-Mn880G9579-94" vertex="1">
          <mxGeometry y="60" width="290" height="20" as="geometry" />
        </mxCell>
        <mxCell id="Yp3YMdOh8-Mn880G9579-98" value="+ getStringAttribute(String): StringAttribute&#xa;+ addStringFct(StringFct, String, boolean): StringFct&#xa;+ canOverride(AttributeDesc): boolean" style="text;strokeColor=none;fillColor=none;align=left;verticalAlign=top;spacingLeft=4;spacingRight=4;overflow=hidden;rotatable=0;points=[[0,0.5],[1,0.5]];portConstraint=eastwest;" parent="Yp3YMdOh8-Mn880G9579-94" vertex="1">
          <mxGeometry y="80" width="290" height="54" as="geometry" />
        </mxCell>
        <mxCell id="Yp3YMdOh8-Mn880G9579-99" value="# addDefaultFct(): void" style="text;strokeColor=none;fillColor=none;align=left;verticalAlign=top;spacingLeft=4;spacingRight=4;overflow=hidden;rotatable=0;points=[[0,0.5],[1,0.5]];portConstraint=eastwest;fontStyle=2" parent="Yp3YMdOh8-Mn880G9579-94" vertex="1">
          <mxGeometry y="134" width="290" height="20" as="geometry" />
        </mxCell>
        <mxCell id="Yp3YMdOh8-Mn880G9579-100" value="Extends" style="endArrow=block;endSize=16;endFill=0;html=1;exitX=1.003;exitY=0.009;exitDx=0;exitDy=0;exitPerimeter=0;" parent="1" source="Yp3YMdOh8-Mn880G9579-99" edge="1">
          <mxGeometry width="160" relative="1" as="geometry">
            <mxPoint x="2120.88" y="-1569.8600000000001" as="sourcePoint" />
            <mxPoint x="2000" y="-1380" as="targetPoint" />
          </mxGeometry>
        </mxCell>
        <mxCell id="Yp3YMdOh8-Mn880G9579-73" value="IntegerDesc" style="swimlane;fontStyle=1;align=center;verticalAlign=top;childLayout=stackLayout;horizontal=1;startSize=26;horizontalStack=0;resizeParent=1;resizeParentMax=0;resizeLast=0;collapsible=1;marginBottom=0;" parent="1" vertex="1">
          <mxGeometry x="2400" y="-1500" width="350" height="320" as="geometry" />
        </mxCell>
        <mxCell id="Yp3YMdOh8-Mn880G9579-74" value="- min: Integer&#xa;- max: Integer&#xa;- range: IntegerRange" style="text;strokeColor=none;fillColor=none;align=left;verticalAlign=top;spacingLeft=4;spacingRight=4;overflow=hidden;rotatable=0;points=[[0,0.5],[1,0.5]];portConstraint=eastwest;" parent="Yp3YMdOh8-Mn880G9579-73" vertex="1">
          <mxGeometry y="26" width="350" height="70" as="geometry" />
        </mxCell>
        <mxCell id="Yp3YMdOh8-Mn880G9579-75" value="" style="line;strokeWidth=1;fillColor=none;align=left;verticalAlign=middle;spacingTop=-1;spacingLeft=3;spacingRight=3;rotatable=0;labelPosition=right;points=[];portConstraint=eastwest;" parent="Yp3YMdOh8-Mn880G9579-73" vertex="1">
          <mxGeometry y="96" width="350" height="10" as="geometry" />
        </mxCell>
        <mxCell id="Yp3YMdOh8-Mn880G9579-76" value="+ IntegerDesc(Concept, String, Integer, Integer)" style="text;strokeColor=none;fillColor=none;align=left;verticalAlign=top;spacingLeft=4;spacingRight=4;overflow=hidden;rotatable=0;points=[[0,0.5],[1,0.5]];portConstraint=eastwest;" parent="Yp3YMdOh8-Mn880G9579-73" vertex="1">
          <mxGeometry y="106" width="350" height="20" as="geometry" />
        </mxCell>
        <mxCell id="Yp3YMdOh8-Mn880G9579-77" value="+ getIntegerAttribute(Integer): SimpleAttribute&#xa;+ setMin(Integer): void&#xa;+ getMin(): Integer&#xa;+ setMax(Integer): void&#xa;+ getMax(): Integer&#xa;+ getRange(): FloatRange&#xa;+ addIntegerFct(String, boolean): IntegerFct&#xa;+ addAdvancedIntegerFct(String, boolean): AdvancedIntegerFct&#xa;+ fits(Attribute): boolean&#xa;+ fitsSingle(Attribute): boolean&#xa;- chech(IntegerAttribute): boolean" style="text;strokeColor=none;fillColor=none;align=left;verticalAlign=top;spacingLeft=4;spacingRight=4;overflow=hidden;rotatable=0;points=[[0,0.5],[1,0.5]];portConstraint=eastwest;" parent="Yp3YMdOh8-Mn880G9579-73" vertex="1">
          <mxGeometry y="126" width="350" height="174" as="geometry" />
        </mxCell>
        <mxCell id="Yp3YMdOh8-Mn880G9579-78" value="# addDefaultFct(): void" style="text;strokeColor=none;fillColor=none;align=left;verticalAlign=top;spacingLeft=4;spacingRight=4;overflow=hidden;rotatable=0;points=[[0,0.5],[1,0.5]];portConstraint=eastwest;fontStyle=2" parent="Yp3YMdOh8-Mn880G9579-73" vertex="1">
          <mxGeometry y="300" width="350" height="20" as="geometry" />
        </mxCell>
        <mxCell id="Yp3YMdOh8-Mn880G9579-102" value="AdvancedDoubleFct" style="swimlane;fontStyle=1;align=center;verticalAlign=top;childLayout=stackLayout;horizontal=1;startSize=26;horizontalStack=0;resizeParent=1;resizeParentMax=0;resizeLast=0;collapsible=1;marginBottom=0;" parent="1" vertex="1">
          <mxGeometry x="4000" y="-1895" width="450" height="370" as="geometry" />
        </mxCell>
        <mxCell id="Yp3YMdOh8-Mn880G9579-103" value="- points: TreeMap&lt;Double, Similarity&gt;&#xa;- minPoint: Similarity&#xa;- zeroPoint: Similarity&#xa;- maxPoint: Similarity&#xa;- desc: DoubleDesc&#xa;- maxForQuotient: double" style="text;strokeColor=none;fillColor=none;align=left;verticalAlign=top;spacingLeft=4;spacingRight=4;overflow=hidden;rotatable=0;points=[[0,0.5],[1,0.5]];portConstraint=eastwest;" parent="Yp3YMdOh8-Mn880G9579-102" vertex="1">
          <mxGeometry y="26" width="450" height="94" as="geometry" />
        </mxCell>
        <mxCell id="Yp3YMdOh8-Mn880G9579-104" value="" style="line;strokeWidth=1;fillColor=none;align=left;verticalAlign=middle;spacingTop=-1;spacingLeft=3;spacingRight=3;rotatable=0;labelPosition=right;points=[];portConstraint=eastwest;" parent="Yp3YMdOh8-Mn880G9579-102" vertex="1">
          <mxGeometry y="120" width="450" height="6" as="geometry" />
        </mxCell>
        <mxCell id="Yp3YMdOh8-Mn880G9579-105" value="+ AdvancedDoubleFct(Project, DoubleDesc, String)" style="text;strokeColor=none;fillColor=none;align=left;verticalAlign=top;spacingLeft=4;spacingRight=4;overflow=hidden;rotatable=0;points=[[0,0.5],[1,0.5]];portConstraint=eastwest;fontStyle=0" parent="Yp3YMdOh8-Mn880G9579-102" vertex="1">
          <mxGeometry y="126" width="450" height="24" as="geometry" />
        </mxCell>
        <mxCell id="Yp3YMdOh8-Mn880G9579-107" value="# AdvancedDoubleFct(Project, DoubleDesc, Similarity, Similarity, Similarity, String)" style="text;strokeColor=none;fillColor=none;align=left;verticalAlign=top;spacingLeft=4;spacingRight=4;overflow=hidden;rotatable=0;points=[[0,0.5],[1,0.5]];portConstraint=eastwest;fontStyle=0" parent="Yp3YMdOh8-Mn880G9579-102" vertex="1">
          <mxGeometry y="150" width="450" height="24" as="geometry" />
        </mxCell>
        <mxCell id="Yp3YMdOh8-Mn880G9579-106" value="+ calculateSimilarity(Attribute, Attribute): Similarity&#xa;+ calculateSimilarity(double, double): Similarity&#xa;+ getAdditionalPoints(): TreeMap&lt;Double, Similarity&gt;&#xa;+ addAdditionalPoint(Double, Similarity): void&#xa;+ getMin(): double&#xa;+ getMax(): double&#xa;+ getDiff(): double&#xa;+ setDistanceFct(DistanceConfig): void&#xa;+ clone(AttributeDesc, boolean): void&#xa;+ fitsDistance(double): boolean&#xa;+ getMaxForQuotient(): double&#xa;+ setMaxForQuotient(dobule): void&#xa;- updatePoints(): void" style="text;strokeColor=none;fillColor=none;align=left;verticalAlign=top;spacingLeft=4;spacingRight=4;overflow=hidden;rotatable=0;points=[[0,0.5],[1,0.5]];portConstraint=eastwest;fontStyle=0" parent="Yp3YMdOh8-Mn880G9579-102" vertex="1">
          <mxGeometry y="174" width="450" height="196" as="geometry" />
        </mxCell>
        <mxCell id="Yp3YMdOh8-Mn880G9579-108" value="NumberFct" style="swimlane;fontStyle=1;align=center;verticalAlign=top;childLayout=stackLayout;horizontal=1;startSize=26;horizontalStack=0;resizeParent=1;resizeParentMax=0;resizeLast=0;collapsible=1;marginBottom=0;" parent="1" vertex="1">
          <mxGeometry x="4389" y="-1050" width="250" height="340" as="geometry" />
        </mxCell>
        <mxCell id="Yp3YMdOh8-Mn880G9579-109" value="# mc: MultipleConfig&#xa;# max: double&#xa;# min: double&#xa;# diff: double&#xa;# isSymmetric: boolean&#xa;# distanceFunction: DistanceConfig&#xa;# prj: Project&#xa;# name: String&#xa;# desc: SimpleAttDesc" style="text;strokeColor=none;fillColor=none;align=left;verticalAlign=top;spacingLeft=4;spacingRight=4;overflow=hidden;rotatable=0;points=[[0,0.5],[1,0.5]];portConstraint=eastwest;" parent="Yp3YMdOh8-Mn880G9579-108" vertex="1">
          <mxGeometry y="26" width="250" height="134" as="geometry" />
        </mxCell>
        <mxCell id="Yp3YMdOh8-Mn880G9579-110" value="" style="line;strokeWidth=1;fillColor=none;align=left;verticalAlign=middle;spacingTop=-1;spacingLeft=3;spacingRight=3;rotatable=0;labelPosition=right;points=[];portConstraint=eastwest;" parent="Yp3YMdOh8-Mn880G9579-108" vertex="1">
          <mxGeometry y="160" width="250" height="6" as="geometry" />
        </mxCell>
        <mxCell id="Yp3YMdOh8-Mn880G9579-111" value="+ NumberFct(Project, SimpleAttDesc, String)" style="text;strokeColor=none;fillColor=none;align=left;verticalAlign=top;spacingLeft=4;spacingRight=4;overflow=hidden;rotatable=0;points=[[0,0.5],[1,0.5]];portConstraint=eastwest;fontStyle=0" parent="Yp3YMdOh8-Mn880G9579-108" vertex="1">
          <mxGeometry y="166" width="250" height="24" as="geometry" />
        </mxCell>
        <mxCell id="Yp3YMdOh8-Mn880G9579-113" value="+ getMultipleConfig(): MultipleConfig&#xa;+ getName(): String&#xa;+ getProject(): Project&#xa;+ isSymmetric: boolean&#xa;+ setMultipleConfig(MultipleConfig): void&#xa;+ setName(String): void&#xa;+ setSymmetric(boolean): void&#xa;+ setDistanceFct(DistanceConfig): void&#xa;+ getDistanceFct(): DistanceConfig&#xa;+ getDesc(): AttributeDesc" style="text;strokeColor=none;fillColor=none;align=left;verticalAlign=top;spacingLeft=4;spacingRight=4;overflow=hidden;rotatable=0;points=[[0,0.5],[1,0.5]];portConstraint=eastwest;fontStyle=0" parent="Yp3YMdOh8-Mn880G9579-108" vertex="1">
          <mxGeometry y="190" width="250" height="150" as="geometry" />
        </mxCell>
        <mxCell id="Yp3YMdOh8-Mn880G9579-114" value="Extends" style="endArrow=block;endSize=16;endFill=0;html=1;rounded=0;entryX=0.198;entryY=-0.014;entryDx=0;entryDy=0;exitX=0.918;exitY=1.043;exitDx=0;exitDy=0;exitPerimeter=0;entryPerimeter=0;" parent="1" source="Yp3YMdOh8-Mn880G9579-106" target="Yp3YMdOh8-Mn880G9579-108" edge="1">
          <mxGeometry width="160" relative="1" as="geometry">
            <mxPoint x="4190" y="-900" as="sourcePoint" />
            <mxPoint x="4350" y="-900" as="targetPoint" />
          </mxGeometry>
        </mxCell>
        <mxCell id="Yp3YMdOh8-Mn880G9579-115" value="AdvancedFloatFct" style="swimlane;fontStyle=1;align=center;verticalAlign=top;childLayout=stackLayout;horizontal=1;startSize=26;horizontalStack=0;resizeParent=1;resizeParentMax=0;resizeLast=0;collapsible=1;marginBottom=0;" parent="1" vertex="1">
          <mxGeometry x="4160" y="-2280" width="450" height="370" as="geometry" />
        </mxCell>
        <mxCell id="Yp3YMdOh8-Mn880G9579-116" value="- points: TreeMap&lt;Double, Similarity&gt;&#xa;- minPoint: Similarity&#xa;- zeroPoint: Similarity&#xa;- maxPoint: Similarity&#xa;- desc: FloatDesc&#xa;- maxForQuotient: double" style="text;strokeColor=none;fillColor=none;align=left;verticalAlign=top;spacingLeft=4;spacingRight=4;overflow=hidden;rotatable=0;points=[[0,0.5],[1,0.5]];portConstraint=eastwest;" parent="Yp3YMdOh8-Mn880G9579-115" vertex="1">
          <mxGeometry y="26" width="450" height="94" as="geometry" />
        </mxCell>
        <mxCell id="Yp3YMdOh8-Mn880G9579-117" value="" style="line;strokeWidth=1;fillColor=none;align=left;verticalAlign=middle;spacingTop=-1;spacingLeft=3;spacingRight=3;rotatable=0;labelPosition=right;points=[];portConstraint=eastwest;" parent="Yp3YMdOh8-Mn880G9579-115" vertex="1">
          <mxGeometry y="120" width="450" height="6" as="geometry" />
        </mxCell>
        <mxCell id="Yp3YMdOh8-Mn880G9579-118" value="+ AdvancedFloatFct(Project, FloatDesc, String)" style="text;strokeColor=none;fillColor=none;align=left;verticalAlign=top;spacingLeft=4;spacingRight=4;overflow=hidden;rotatable=0;points=[[0,0.5],[1,0.5]];portConstraint=eastwest;fontStyle=0" parent="Yp3YMdOh8-Mn880G9579-115" vertex="1">
          <mxGeometry y="126" width="450" height="24" as="geometry" />
        </mxCell>
        <mxCell id="Yp3YMdOh8-Mn880G9579-119" value="# AdvancedFloatFct(Project, FloatDesc, Similarity, Similarity, Similarity, String)" style="text;strokeColor=none;fillColor=none;align=left;verticalAlign=top;spacingLeft=4;spacingRight=4;overflow=hidden;rotatable=0;points=[[0,0.5],[1,0.5]];portConstraint=eastwest;fontStyle=0" parent="Yp3YMdOh8-Mn880G9579-115" vertex="1">
          <mxGeometry y="150" width="450" height="24" as="geometry" />
        </mxCell>
        <mxCell id="Yp3YMdOh8-Mn880G9579-120" value="+ calculateSimilarity(Attribute, Attribute): Similarity&#xa;+ calculateSimilarity(float, float): Similarity&#xa;+ getAdditionalPoints(): TreeMap&lt;Double, Similarity&gt;&#xa;+ addAdditionalPoint(Double, Similarity): void&#xa;+ getMin(): double&#xa;+ getMax(): double&#xa;+ getDiff(): double&#xa;+ setDistanceFct(DistanceConfig): void&#xa;+ clone(AttributeDesc, boolean): void&#xa;+ fitsDistance(double): boolean&#xa;+ getMaxForQuotient(): double&#xa;+ setMaxForQuotient(dobule): void&#xa;- updatePoints(): void" style="text;strokeColor=none;fillColor=none;align=left;verticalAlign=top;spacingLeft=4;spacingRight=4;overflow=hidden;rotatable=0;points=[[0,0.5],[1,0.5]];portConstraint=eastwest;fontStyle=0" parent="Yp3YMdOh8-Mn880G9579-115" vertex="1">
          <mxGeometry y="174" width="450" height="196" as="geometry" />
        </mxCell>
        <mxCell id="Yp3YMdOh8-Mn880G9579-122" value="AdvancedIntegerFct" style="swimlane;fontStyle=1;align=center;verticalAlign=top;childLayout=stackLayout;horizontal=1;startSize=26;horizontalStack=0;resizeParent=1;resizeParentMax=0;resizeLast=0;collapsible=1;marginBottom=0;" parent="1" vertex="1">
          <mxGeometry x="3930" y="-1480" width="450" height="350" as="geometry" />
        </mxCell>
        <mxCell id="Yp3YMdOh8-Mn880G9579-123" value="- points: TreeMap&lt;Double, Similarity&gt;&#xa;- minPoint: Similarity&#xa;- zeroPoint: Similarity&#xa;- maxPoint: Similarity&#xa;- desc: IntegerDesc" style="text;strokeColor=none;fillColor=none;align=left;verticalAlign=top;spacingLeft=4;spacingRight=4;overflow=hidden;rotatable=0;points=[[0,0.5],[1,0.5]];portConstraint=eastwest;" parent="Yp3YMdOh8-Mn880G9579-122" vertex="1">
          <mxGeometry y="26" width="450" height="74" as="geometry" />
        </mxCell>
        <mxCell id="Yp3YMdOh8-Mn880G9579-124" value="" style="line;strokeWidth=1;fillColor=none;align=left;verticalAlign=middle;spacingTop=-1;spacingLeft=3;spacingRight=3;rotatable=0;labelPosition=right;points=[];portConstraint=eastwest;" parent="Yp3YMdOh8-Mn880G9579-122" vertex="1">
          <mxGeometry y="100" width="450" height="6" as="geometry" />
        </mxCell>
        <mxCell id="Yp3YMdOh8-Mn880G9579-125" value="+ AdvancedIntegerFct(Project, IntegerDesc, String)" style="text;strokeColor=none;fillColor=none;align=left;verticalAlign=top;spacingLeft=4;spacingRight=4;overflow=hidden;rotatable=0;points=[[0,0.5],[1,0.5]];portConstraint=eastwest;fontStyle=0" parent="Yp3YMdOh8-Mn880G9579-122" vertex="1">
          <mxGeometry y="106" width="450" height="24" as="geometry" />
        </mxCell>
        <mxCell id="Yp3YMdOh8-Mn880G9579-126" value="# AdvancedIntegerFct(Project, IntegerDesc, Similarity, Similarity, Similarity, String)" style="text;strokeColor=none;fillColor=none;align=left;verticalAlign=top;spacingLeft=4;spacingRight=4;overflow=hidden;rotatable=0;points=[[0,0.5],[1,0.5]];portConstraint=eastwest;fontStyle=0" parent="Yp3YMdOh8-Mn880G9579-122" vertex="1">
          <mxGeometry y="130" width="450" height="24" as="geometry" />
        </mxCell>
        <mxCell id="Yp3YMdOh8-Mn880G9579-127" value="+ calculateSimilarity(Attribute, Attribute): Similarity&#xa;+ calculateSimilarity(double, double): Similarity&#xa;+ getAdditionalPoints(): TreeMap&lt;Double, Similarity&gt;&#xa;+ addAdditionalPoint(Double, Similarity): void&#xa;+ getMin(): double&#xa;+ getMax(): double&#xa;+ getDiff(): double&#xa;+ setDistanceFct(DistanceConfig): void&#xa;+ clone(AttributeDesc, boolean): void&#xa;+ fitsDistance(double): boolean&#xa;+ getMaxForQuotient(): double&#xa;+ setMaxForQuotient(dobule): void&#xa;- updatePoints(): void" style="text;strokeColor=none;fillColor=none;align=left;verticalAlign=top;spacingLeft=4;spacingRight=4;overflow=hidden;rotatable=0;points=[[0,0.5],[1,0.5]];portConstraint=eastwest;fontStyle=0" parent="Yp3YMdOh8-Mn880G9579-122" vertex="1">
          <mxGeometry y="154" width="450" height="196" as="geometry" />
        </mxCell>
        <mxCell id="Yp3YMdOh8-Mn880G9579-128" value="Extends" style="endArrow=block;endSize=16;endFill=0;html=1;rounded=0;entryX=0;entryY=0;entryDx=0;entryDy=0;exitX=0.837;exitY=1.01;exitDx=0;exitDy=0;exitPerimeter=0;" parent="1" source="Yp3YMdOh8-Mn880G9579-127" target="Yp3YMdOh8-Mn880G9579-108" edge="1">
          <mxGeometry width="160" relative="1" as="geometry">
            <mxPoint x="4860.45" y="-1096.6680000000001" as="sourcePoint" />
            <mxPoint x="4649.000000000001" y="-1040" as="targetPoint" />
          </mxGeometry>
        </mxCell>
        <mxCell id="Yp3YMdOh8-Mn880G9579-129" value="AmalgamationFct" style="swimlane;fontStyle=1;align=center;verticalAlign=top;childLayout=stackLayout;horizontal=1;startSize=26;horizontalStack=0;resizeParent=1;resizeParentMax=0;resizeLast=0;collapsible=1;marginBottom=0;" parent="1" vertex="1">
          <mxGeometry x="5270" y="-620" width="480" height="380" as="geometry" />
        </mxCell>
        <mxCell id="Yp3YMdOh8-Mn880G9579-134" value="# active: HashMap&lt;AttributeDesc, Boolean&gt;&#xa;# activeFcts: HashMap&lt;AttributeDesc, Object&gt;&#xa;- type: AmalgamationConfig&#xa;- name: String&#xa;- concept: Concept&#xa;- weights: HashMap&lt;String, Number&gt;&#xa;" style="text;strokeColor=none;fillColor=none;align=left;verticalAlign=top;spacingLeft=4;spacingRight=4;overflow=hidden;rotatable=0;points=[[0,0.5],[1,0.5]];portConstraint=eastwest;" parent="Yp3YMdOh8-Mn880G9579-129" vertex="1">
          <mxGeometry y="26" width="480" height="94" as="geometry" />
        </mxCell>
        <mxCell id="Yp3YMdOh8-Mn880G9579-131" value="" style="line;strokeWidth=1;fillColor=none;align=left;verticalAlign=middle;spacingTop=-1;spacingLeft=3;spacingRight=3;rotatable=0;labelPosition=right;points=[];portConstraint=eastwest;" parent="Yp3YMdOh8-Mn880G9579-129" vertex="1">
          <mxGeometry y="120" width="480" height="6" as="geometry" />
        </mxCell>
        <mxCell id="Yp3YMdOh8-Mn880G9579-132" value="# AmalgamationFct(AmalagamationConfig, Concept, HashMap&lt;String, Number&gt;, String)&#xa;+ AmalgamationFct(AmalgamationConfig, Concept, String)" style="text;strokeColor=none;fillColor=none;align=left;verticalAlign=top;spacingLeft=4;spacingRight=4;overflow=hidden;rotatable=0;points=[[0,0.5],[1,0.5]];portConstraint=eastwest;fontStyle=0" parent="Yp3YMdOh8-Mn880G9579-129" vertex="1">
          <mxGeometry y="126" width="480" height="34" as="geometry" />
        </mxCell>
        <mxCell id="Yp3YMdOh8-Mn880G9579-133" value="+ getConcept(): Concept&#xa;+ calculateSimilarity(Attribute, Attribute): Similarity&#xa;+ getType(): AmalgamationConfig&#xa;+ setType(AmalgamationConfig): void&#xa;+ getName(): String&#xa;+ setName(String): void&#xa;+ setWeight(AttributeDesc, Number): void&#xa;+ setWeight(String, Number): void&#xa;+ getProject(): Project&#xa;+ isActive(AttributeDesc): Boolean&#xa;+ setActive(AttributeDesc, boolean): void&#xa;+ setActiveFct(AttributeDesc, Object): void&#xa;+ getActiveFct(AttributeDesc): Object&#xa;+ remove(AttributeDesc): void&#xa;+ getWeights(AttributeDesc): Number" style="text;strokeColor=none;fillColor=none;align=left;verticalAlign=top;spacingLeft=4;spacingRight=4;overflow=hidden;rotatable=0;points=[[0,0.5],[1,0.5]];portConstraint=eastwest;fontStyle=0" parent="Yp3YMdOh8-Mn880G9579-129" vertex="1">
          <mxGeometry y="160" width="480" height="220" as="geometry" />
        </mxCell>
        <mxCell id="Yp3YMdOh8-Mn880G9579-135" value="DateFct" style="swimlane;fontStyle=1;align=center;verticalAlign=top;childLayout=stackLayout;horizontal=1;startSize=26;horizontalStack=0;resizeParent=1;resizeParentMax=0;resizeLast=0;collapsible=1;marginBottom=0;" parent="1" vertex="1">
          <mxGeometry x="6215" y="-400" width="390" height="210" as="geometry" />
        </mxCell>
        <mxCell id="Yp3YMdOh8-Mn880G9579-136" value="Enum: DateFunctionPrecision {Second, Minute, Hour, Day, Month, Year}&#xa;- prj: Project&#xa;- name: String&#xa;- desc: DateDesc&#xa;# mc: MultipleConfig&#xa;- precision: DateFunctionPrecision" style="text;strokeColor=none;fillColor=none;align=left;verticalAlign=top;spacingLeft=4;spacingRight=4;overflow=hidden;rotatable=0;points=[[0,0.5],[1,0.5]];portConstraint=eastwest;" parent="Yp3YMdOh8-Mn880G9579-135" vertex="1">
          <mxGeometry y="26" width="390" height="114" as="geometry" />
        </mxCell>
        <mxCell id="Yp3YMdOh8-Mn880G9579-137" value="" style="line;strokeWidth=1;fillColor=none;align=left;verticalAlign=middle;spacingTop=-1;spacingLeft=3;spacingRight=3;rotatable=0;labelPosition=right;points=[];portConstraint=eastwest;" parent="Yp3YMdOh8-Mn880G9579-135" vertex="1">
          <mxGeometry y="140" width="390" height="6" as="geometry" />
        </mxCell>
        <mxCell id="Yp3YMdOh8-Mn880G9579-138" value="+ DateFct(Project, DateDesc, String, DateFunctionPrecision)" style="text;strokeColor=none;fillColor=none;align=left;verticalAlign=top;spacingLeft=4;spacingRight=4;overflow=hidden;rotatable=0;points=[[0,0.5],[1,0.5]];portConstraint=eastwest;fontStyle=0" parent="Yp3YMdOh8-Mn880G9579-135" vertex="1">
          <mxGeometry y="146" width="390" height="24" as="geometry" />
        </mxCell>
        <mxCell id="Yp3YMdOh8-Mn880G9579-140" value="+ getPrecision(): DateFunctionPrecision&#xa;+ setPrecision(DateFunctionPrecision): void" style="text;strokeColor=none;fillColor=none;align=left;verticalAlign=top;spacingLeft=4;spacingRight=4;overflow=hidden;rotatable=0;points=[[0,0.5],[1,0.5]];portConstraint=eastwest;fontStyle=0" parent="Yp3YMdOh8-Mn880G9579-135" vertex="1">
          <mxGeometry y="170" width="390" height="40" as="geometry" />
        </mxCell>
        <mxCell id="Yp3YMdOh8-Mn880G9579-141" value="&lt;&lt;Interface&gt;&gt;&#xa;ISimFct" style="swimlane;fontStyle=1;align=center;verticalAlign=middle;childLayout=stackLayout;horizontal=1;startSize=26;horizontalStack=0;resizeParent=1;resizeParentMax=0;resizeLast=0;collapsible=1;marginBottom=0;" parent="1" vertex="1">
          <mxGeometry x="5870" y="-620" width="280" height="190" as="geometry" />
        </mxCell>
        <mxCell id="Yp3YMdOh8-Mn880G9579-142" value="" style="line;strokeWidth=1;fillColor=none;align=left;verticalAlign=middle;spacingTop=-1;spacingLeft=3;spacingRight=3;rotatable=0;labelPosition=right;points=[];portConstraint=eastwest;" parent="Yp3YMdOh8-Mn880G9579-141" vertex="1">
          <mxGeometry y="26" width="280" height="14" as="geometry" />
        </mxCell>
        <mxCell id="Yp3YMdOh8-Mn880G9579-144" value="+ calculateSimilarity(Attribute, Attribute): Similarity&#xa;+ isSymmetric(): boolean&#xa;+ getName(): String&#xa;+ setName(String): void&#xa;+ getDesc(): AttributeDesc&#xa;+ setSymmetric(boolean): void&#xa;+ getMultipleConfig(): MultipleConfig&#xa;+ setMultipleConfig(MultipleConfig): void&#xa;+ getProject(): Project&#xa;+ clone(AttributeDesc, boolean): void&#xa;" style="text;strokeColor=none;fillColor=none;align=left;verticalAlign=top;spacingLeft=4;spacingRight=4;overflow=hidden;rotatable=0;points=[[0,0.5],[1,0.5]];portConstraint=eastwest;fontStyle=0" parent="Yp3YMdOh8-Mn880G9579-141" vertex="1">
          <mxGeometry y="40" width="280" height="150" as="geometry" />
        </mxCell>
        <mxCell id="Yp3YMdOh8-Mn880G9579-145" value="" style="endArrow=block;dashed=1;endFill=0;endSize=12;html=1;rounded=0;entryX=0.999;entryY=0.971;entryDx=0;entryDy=0;exitX=-0.003;exitY=0.669;exitDx=0;exitDy=0;exitPerimeter=0;entryPerimeter=0;" parent="1" source="Yp3YMdOh8-Mn880G9579-136" target="Yp3YMdOh8-Mn880G9579-144" edge="1">
          <mxGeometry width="160" relative="1" as="geometry">
            <mxPoint x="4130" y="-760" as="sourcePoint" />
            <mxPoint x="4290" y="-760" as="targetPoint" />
          </mxGeometry>
        </mxCell>
        <mxCell id="Yp3YMdOh8-Mn880G9579-146" value="DoubleFct" style="swimlane;fontStyle=1;align=center;verticalAlign=top;childLayout=stackLayout;horizontal=1;startSize=26;horizontalStack=0;resizeParent=1;resizeParentMax=0;resizeLast=0;collapsible=1;marginBottom=0;" parent="1" vertex="1">
          <mxGeometry x="4650" y="-2240" width="440" height="520" as="geometry" />
        </mxCell>
        <mxCell id="Yp3YMdOh8-Mn880G9579-147" value="- constantValue: double&#xa;- stepAtValue: double&#xa;- polynominalWithValue: double&#xa;- smoothStepAtValue: double&#xa;- maxForQuotient: double&#xa;- functionTypeR: NumberConfig&#xa;- functionParameterR: double&#xa;- functioNTypeL: NumberConfig&#xa;- functionParameterL: double&#xa;# desc: DoubleDesc&#xa;# range: DoubleRange" style="text;strokeColor=none;fillColor=none;align=left;verticalAlign=top;spacingLeft=4;spacingRight=4;overflow=hidden;rotatable=0;points=[[0,0.5],[1,0.5]];portConstraint=eastwest;" parent="Yp3YMdOh8-Mn880G9579-146" vertex="1">
          <mxGeometry y="26" width="440" height="174" as="geometry" />
        </mxCell>
        <mxCell id="Yp3YMdOh8-Mn880G9579-148" value="" style="line;strokeWidth=1;fillColor=none;align=left;verticalAlign=middle;spacingTop=-1;spacingLeft=3;spacingRight=3;rotatable=0;labelPosition=right;points=[];portConstraint=eastwest;" parent="Yp3YMdOh8-Mn880G9579-146" vertex="1">
          <mxGeometry y="200" width="440" height="6" as="geometry" />
        </mxCell>
        <mxCell id="Yp3YMdOh8-Mn880G9579-149" value="+ DoubleFct(Project, DoubleDesc, String)" style="text;strokeColor=none;fillColor=none;align=left;verticalAlign=top;spacingLeft=4;spacingRight=4;overflow=hidden;rotatable=0;points=[[0,0.5],[1,0.5]];portConstraint=eastwest;fontStyle=0" parent="Yp3YMdOh8-Mn880G9579-146" vertex="1">
          <mxGeometry y="206" width="440" height="24" as="geometry" />
        </mxCell>
        <mxCell id="Yp3YMdOh8-Mn880G9579-151" value="+ calculateSimilarity(Attribute, Attribute): Similarity&#xa;- stepAt(double, double, boolean): Similarity&#xa;- polinominalWith(double, double, double): Similarity&#xa;+ calculateSimilarity(Double, Double): Similarity&#xa;+ setFunctionParameterR(double): boolean&#xa;+ setFunctionParameterL(double): boolean&#xa;+ getFunctionParameterR(): double&#xa;+ getFunctionParamenterL(): double&#xa;+ setFunctionTypeR(NumberConfig): void&#xa;+ setFunctionTypeL(NumberConfig): void&#xa;+ getFunctionTypeR(): NumberConfig&#xa;+ getFunctionTypeL(): NumberConfig&#xa;+ getMin(): double&#xa;+ getMax(): double&#xa;+ getDiff(): double&#xa;+ setDistanceFct(DistanceConfig): void&#xa;+ updateFunctionParams(): void&#xa;+ fitsDistance(double): boolean&#xa;+ getMaxForQuotient(): dobule&#xa;+ setMaxForQuotient(double): void" style="text;strokeColor=none;fillColor=none;align=left;verticalAlign=top;spacingLeft=4;spacingRight=4;overflow=hidden;rotatable=0;points=[[0,0.5],[1,0.5]];portConstraint=eastwest;fontStyle=0" parent="Yp3YMdOh8-Mn880G9579-146" vertex="1">
          <mxGeometry y="230" width="440" height="290" as="geometry" />
        </mxCell>
        <mxCell id="Yp3YMdOh8-Mn880G9579-152" value="Extends" style="endArrow=block;endSize=16;endFill=0;html=1;rounded=0;entryX=0.5;entryY=0;entryDx=0;entryDy=0;exitX=0.032;exitY=1.024;exitDx=0;exitDy=0;exitPerimeter=0;" parent="1" source="Yp3YMdOh8-Mn880G9579-151" target="Yp3YMdOh8-Mn880G9579-108" edge="1">
          <mxGeometry width="160" relative="1" as="geometry">
            <mxPoint x="4860.45" y="-1096.6680000000001" as="sourcePoint" />
            <mxPoint x="4649.000000000001" y="-1040" as="targetPoint" />
          </mxGeometry>
        </mxCell>
        <mxCell id="Yp3YMdOh8-Mn880G9579-153" value="FloatFct" style="swimlane;fontStyle=1;align=center;verticalAlign=top;childLayout=stackLayout;horizontal=1;startSize=26;horizontalStack=0;resizeParent=1;resizeParentMax=0;resizeLast=0;collapsible=1;marginBottom=0;" parent="1" vertex="1">
          <mxGeometry x="5110" y="-2210" width="440" height="520" as="geometry" />
        </mxCell>
        <mxCell id="Yp3YMdOh8-Mn880G9579-154" value="- constantValue: double&#xa;- stepAtValue: double&#xa;- polynominalWithValue: double&#xa;- smoothStepAtValue: double&#xa;- maxForQuotient: double&#xa;- functionTypeR: NumberConfig&#xa;- functionParameterR: double&#xa;- functioNTypeL: NumberConfig&#xa;- functionParameterL: double&#xa;# desc: FloatDesc&#xa;# range: FloatRange" style="text;strokeColor=none;fillColor=none;align=left;verticalAlign=top;spacingLeft=4;spacingRight=4;overflow=hidden;rotatable=0;points=[[0,0.5],[1,0.5]];portConstraint=eastwest;" parent="Yp3YMdOh8-Mn880G9579-153" vertex="1">
          <mxGeometry y="26" width="440" height="174" as="geometry" />
        </mxCell>
        <mxCell id="Yp3YMdOh8-Mn880G9579-155" value="" style="line;strokeWidth=1;fillColor=none;align=left;verticalAlign=middle;spacingTop=-1;spacingLeft=3;spacingRight=3;rotatable=0;labelPosition=right;points=[];portConstraint=eastwest;" parent="Yp3YMdOh8-Mn880G9579-153" vertex="1">
          <mxGeometry y="200" width="440" height="6" as="geometry" />
        </mxCell>
        <mxCell id="Yp3YMdOh8-Mn880G9579-156" value="+ FloatFct(Project, FloatDesc, String)" style="text;strokeColor=none;fillColor=none;align=left;verticalAlign=top;spacingLeft=4;spacingRight=4;overflow=hidden;rotatable=0;points=[[0,0.5],[1,0.5]];portConstraint=eastwest;fontStyle=0" parent="Yp3YMdOh8-Mn880G9579-153" vertex="1">
          <mxGeometry y="206" width="440" height="24" as="geometry" />
        </mxCell>
        <mxCell id="Yp3YMdOh8-Mn880G9579-157" value="+ calculateSimilarity(Attribute, Attribute): Similarity&#xa;- stepAt(double, double, boolean): Similarity&#xa;- polinominalWith(double, double, double): Similarity&#xa;+ calculateSimilarity(Float, Float): Similarity&#xa;+ setFunctionParameterR(double): boolean&#xa;+ setFunctionParameterL(double): boolean&#xa;+ getFunctionParameterR(): double&#xa;+ getFunctionParamenterL(): double&#xa;+ setFunctionTypeR(NumberConfig): void&#xa;+ setFunctionTypeL(NumberConfig): void&#xa;+ getFunctionTypeR(): NumberConfig&#xa;+ getFunctionTypeL(): NumberConfig&#xa;+ getMin(): double&#xa;+ getMax(): double&#xa;+ getDiff(): double&#xa;+ setDistanceFct(DistanceConfig): void&#xa;+ updateFunctionParams(): void&#xa;+ fitsDistance(double): boolean&#xa;+ getMaxForQuotient(): dobule&#xa;+ setMaxForQuotient(double): void" style="text;strokeColor=none;fillColor=none;align=left;verticalAlign=top;spacingLeft=4;spacingRight=4;overflow=hidden;rotatable=0;points=[[0,0.5],[1,0.5]];portConstraint=eastwest;fontStyle=0" parent="Yp3YMdOh8-Mn880G9579-153" vertex="1">
          <mxGeometry y="230" width="440" height="290" as="geometry" />
        </mxCell>
        <mxCell id="Yp3YMdOh8-Mn880G9579-158" value="Extends" style="endArrow=block;endSize=16;endFill=0;html=1;rounded=0;exitX=-0.004;exitY=1.004;exitDx=0;exitDy=0;exitPerimeter=0;" parent="1" source="Yp3YMdOh8-Mn880G9579-157" target="Yp3YMdOh8-Mn880G9579-108" edge="1">
          <mxGeometry width="160" relative="1" as="geometry">
            <mxPoint x="4674.079999999999" y="-1703.04" as="sourcePoint" />
            <mxPoint x="4524.000000000001" y="-1040" as="targetPoint" />
          </mxGeometry>
        </mxCell>
        <mxCell id="Yp3YMdOh8-Mn880G9579-159" value="&lt;&lt;enumeration&gt;&gt;&#xa;FunctionEnum" style="swimlane;fontStyle=1;align=center;verticalAlign=middle;childLayout=stackLayout;horizontal=1;startSize=26;horizontalStack=0;resizeParent=1;resizeParentMax=0;resizeLast=0;collapsible=1;marginBottom=0;" parent="1" vertex="1">
          <mxGeometry x="4060" y="-1040" width="130" height="220" as="geometry" />
        </mxCell>
        <mxCell id="Yp3YMdOh8-Mn880G9579-160" value="AdvancedFloat&#xa;AdvancedInteger&#xa;Amalgamation&#xa;Float&#xa;Integer&#xa;OrderedSymbol&#xa;String&#xa;Symbol&#xa;Taxonomy&#xa;Date&#xa;Interval&#xa;AdvancedDouble&#xa;Double" style="text;strokeColor=none;fillColor=none;align=left;verticalAlign=top;spacingLeft=4;spacingRight=4;overflow=hidden;rotatable=0;points=[[0,0.5],[1,0.5]];portConstraint=eastwest;" parent="Yp3YMdOh8-Mn880G9579-159" vertex="1">
          <mxGeometry y="26" width="130" height="194" as="geometry" />
        </mxCell>
        <mxCell id="Yp3YMdOh8-Mn880G9579-161" value="IntegerFct" style="swimlane;fontStyle=1;align=center;verticalAlign=top;childLayout=stackLayout;horizontal=1;startSize=26;horizontalStack=0;resizeParent=1;resizeParentMax=0;resizeLast=0;collapsible=1;marginBottom=0;" parent="1" vertex="1">
          <mxGeometry x="5110" y="-1660" width="440" height="480" as="geometry" />
        </mxCell>
        <mxCell id="Yp3YMdOh8-Mn880G9579-162" value="- constantValue: double&#xa;- stepAtValue: double&#xa;- polynominalWithValue: double&#xa;- smoothStepAtValue: double&#xa;- functionTypeR: NumberConfig&#xa;- functionParameterR: double&#xa;- functioNTypeL: NumberConfig&#xa;- functionParameterL: double&#xa;# desc: IntegerDesc" style="text;strokeColor=none;fillColor=none;align=left;verticalAlign=top;spacingLeft=4;spacingRight=4;overflow=hidden;rotatable=0;points=[[0,0.5],[1,0.5]];portConstraint=eastwest;" parent="Yp3YMdOh8-Mn880G9579-161" vertex="1">
          <mxGeometry y="26" width="440" height="134" as="geometry" />
        </mxCell>
        <mxCell id="Yp3YMdOh8-Mn880G9579-163" value="" style="line;strokeWidth=1;fillColor=none;align=left;verticalAlign=middle;spacingTop=-1;spacingLeft=3;spacingRight=3;rotatable=0;labelPosition=right;points=[];portConstraint=eastwest;" parent="Yp3YMdOh8-Mn880G9579-161" vertex="1">
          <mxGeometry y="160" width="440" height="6" as="geometry" />
        </mxCell>
        <mxCell id="Yp3YMdOh8-Mn880G9579-164" value="+ IntegerFct(Project, IntegerDesc, String)" style="text;strokeColor=none;fillColor=none;align=left;verticalAlign=top;spacingLeft=4;spacingRight=4;overflow=hidden;rotatable=0;points=[[0,0.5],[1,0.5]];portConstraint=eastwest;fontStyle=0" parent="Yp3YMdOh8-Mn880G9579-161" vertex="1">
          <mxGeometry y="166" width="440" height="24" as="geometry" />
        </mxCell>
        <mxCell id="Yp3YMdOh8-Mn880G9579-165" value="+ calculateSimilarity(Attribute, Attribute): Similarity&#xa;- stepAt(double, double, boolean): Similarity&#xa;- polinominalWith(double, double, double): Similarity&#xa;+ calculateSimilarity(Integer, Integer): Similarity&#xa;+ setFunctionParameterR(double): boolean&#xa;+ setFunctionParameterL(double): boolean&#xa;+ getFunctionParameterR(): double&#xa;+ getFunctionParamenterL(): double&#xa;+ setFunctionTypeR(NumberConfig): void&#xa;+ setFunctionTypeL(NumberConfig): void&#xa;+ getFunctionTypeR(): NumberConfig&#xa;+ getFunctionTypeL(): NumberConfig&#xa;+ getMin(): double&#xa;+ getMax(): double&#xa;+ getDiff(): double&#xa;+ setDistanceFct(DistanceConfig): void&#xa;+ updateFunctionParams(): void&#xa;+ fitsDistance(int): boolean" style="text;strokeColor=none;fillColor=none;align=left;verticalAlign=top;spacingLeft=4;spacingRight=4;overflow=hidden;rotatable=0;points=[[0,0.5],[1,0.5]];portConstraint=eastwest;fontStyle=0" parent="Yp3YMdOh8-Mn880G9579-161" vertex="1">
          <mxGeometry y="190" width="440" height="290" as="geometry" />
        </mxCell>
        <mxCell id="Yp3YMdOh8-Mn880G9579-166" value="Extends" style="endArrow=block;endSize=16;endFill=0;html=1;rounded=0;exitX=-0.005;exitY=0.023;exitDx=0;exitDy=0;exitPerimeter=0;entryX=1.007;entryY=0.103;entryDx=0;entryDy=0;entryPerimeter=0;" parent="1" source="Yp3YMdOh8-Mn880G9579-165" target="Yp3YMdOh8-Mn880G9579-109" edge="1">
          <mxGeometry width="160" relative="1" as="geometry">
            <mxPoint x="5118.24" y="-1678.84" as="sourcePoint" />
            <mxPoint x="4648.895900301667" y="-1040" as="targetPoint" />
          </mxGeometry>
        </mxCell>
        <mxCell id="Yp3YMdOh8-Mn880G9579-167" value="Extends" style="endArrow=block;endSize=16;endFill=0;html=1;rounded=0;entryX=0.342;entryY=-0.005;entryDx=0;entryDy=0;exitX=0.824;exitY=0.982;exitDx=0;exitDy=0;exitPerimeter=0;entryPerimeter=0;" parent="1" source="Yp3YMdOh8-Mn880G9579-120" target="Yp3YMdOh8-Mn880G9579-108" edge="1">
          <mxGeometry width="160" relative="1" as="geometry">
            <mxPoint x="4316.65" y="-1118.0400000000002" as="sourcePoint" />
            <mxPoint x="4399" y="-1040" as="targetPoint" />
          </mxGeometry>
        </mxCell>
        <mxCell id="Yp3YMdOh8-Mn880G9579-168" value="IntervalFct" style="swimlane;fontStyle=1;align=center;verticalAlign=top;childLayout=stackLayout;horizontal=1;startSize=26;horizontalStack=0;resizeParent=1;resizeParentMax=0;resizeLast=0;collapsible=1;marginBottom=0;" parent="1" vertex="1">
          <mxGeometry x="4790" y="-975" width="280" height="270" as="geometry" />
        </mxCell>
        <mxCell id="Yp3YMdOh8-Mn880G9579-169" value="- prj: Project&#xa;- name: String&#xa;- desc: IntervalDesc&#xa;# mc: MultipleConfig" style="text;strokeColor=none;fillColor=none;align=left;verticalAlign=top;spacingLeft=4;spacingRight=4;overflow=hidden;rotatable=0;points=[[0,0.5],[1,0.5]];portConstraint=eastwest;" parent="Yp3YMdOh8-Mn880G9579-168" vertex="1">
          <mxGeometry y="26" width="280" height="64" as="geometry" />
        </mxCell>
        <mxCell id="Yp3YMdOh8-Mn880G9579-170" value="" style="line;strokeWidth=1;fillColor=none;align=left;verticalAlign=middle;spacingTop=-1;spacingLeft=3;spacingRight=3;rotatable=0;labelPosition=right;points=[];portConstraint=eastwest;" parent="Yp3YMdOh8-Mn880G9579-168" vertex="1">
          <mxGeometry y="90" width="280" height="6" as="geometry" />
        </mxCell>
        <mxCell id="Yp3YMdOh8-Mn880G9579-171" value="+ IntervalFct(Project, IntervalDesc, String)" style="text;strokeColor=none;fillColor=none;align=left;verticalAlign=top;spacingLeft=4;spacingRight=4;overflow=hidden;rotatable=0;points=[[0,0.5],[1,0.5]];portConstraint=eastwest;fontStyle=0" parent="Yp3YMdOh8-Mn880G9579-168" vertex="1">
          <mxGeometry y="96" width="280" height="24" as="geometry" />
        </mxCell>
        <mxCell id="Yp3YMdOh8-Mn880G9579-172" value="+ calculateSimilarity(Attribute, Attribute): Similarity&#xa;+ getDesc(): AttributeDesc&#xa;+ getMultipleConfig(): MultipleConfig&#xa;+ getName(): String&#xa;+ getProject(): Project&#xa;+ isSymmetric(): Boolean&#xa;+ setMultipleConfig(MultipleConfig): void&#xa;+ setName(String): void&#xa;+ setSymmetric(boolean): void&#xa;+ clone(AttributeDesc, boolean): void" style="text;strokeColor=none;fillColor=none;align=left;verticalAlign=top;spacingLeft=4;spacingRight=4;overflow=hidden;rotatable=0;points=[[0,0.5],[1,0.5]];portConstraint=eastwest;fontStyle=0" parent="Yp3YMdOh8-Mn880G9579-168" vertex="1">
          <mxGeometry y="120" width="280" height="150" as="geometry" />
        </mxCell>
        <mxCell id="Yp3YMdOh8-Mn880G9579-173" value="Extends" style="endArrow=block;endSize=16;endFill=0;html=1;rounded=0;entryX=1.004;entryY=0.534;entryDx=0;entryDy=0;entryPerimeter=0;" parent="1" source="Yp3YMdOh8-Mn880G9579-172" target="Yp3YMdOh8-Mn880G9579-113" edge="1">
          <mxGeometry width="160" relative="1" as="geometry">
            <mxPoint x="5147.799999999999" y="-1453.33" as="sourcePoint" />
            <mxPoint x="4650.750000000001" y="-1000.1979999999999" as="targetPoint" />
          </mxGeometry>
        </mxCell>
        <mxCell id="Yp3YMdOh8-Mn880G9579-174" value="SymbolFct" style="swimlane;fontStyle=1;align=center;verticalAlign=top;childLayout=stackLayout;horizontal=1;startSize=26;horizontalStack=0;resizeParent=1;resizeParentMax=0;resizeLast=0;collapsible=1;marginBottom=0;" parent="1" vertex="1">
          <mxGeometry x="6230" y="-820" width="360" height="290" as="geometry" />
        </mxCell>
        <mxCell id="Yp3YMdOh8-Mn880G9579-175" value="# sims: Similarity[][]&#xa;# name: String&#xa;# desc: SymbolDesc&#xa;# isSymmetric: boolean&#xa;# prj: Project&#xa;# mc: MultipleConfig" style="text;strokeColor=none;fillColor=none;align=left;verticalAlign=top;spacingLeft=4;spacingRight=4;overflow=hidden;rotatable=0;points=[[0,0.5],[1,0.5]];portConstraint=eastwest;" parent="Yp3YMdOh8-Mn880G9579-174" vertex="1">
          <mxGeometry y="26" width="360" height="94" as="geometry" />
        </mxCell>
        <mxCell id="Yp3YMdOh8-Mn880G9579-176" value="" style="line;strokeWidth=1;fillColor=none;align=left;verticalAlign=middle;spacingTop=-1;spacingLeft=3;spacingRight=3;rotatable=0;labelPosition=right;points=[];portConstraint=eastwest;" parent="Yp3YMdOh8-Mn880G9579-174" vertex="1">
          <mxGeometry y="120" width="360" height="6" as="geometry" />
        </mxCell>
        <mxCell id="Yp3YMdOh8-Mn880G9579-177" value="+ SymbolFct(Project, SymbolDesc, String)&#xa;+ SymbolFct(SymbolFct)" style="text;strokeColor=none;fillColor=none;align=left;verticalAlign=top;spacingLeft=4;spacingRight=4;overflow=hidden;rotatable=0;points=[[0,0.5],[1,0.5]];portConstraint=eastwest;fontStyle=0" parent="Yp3YMdOh8-Mn880G9579-174" vertex="1">
          <mxGeometry y="126" width="360" height="34" as="geometry" />
        </mxCell>
        <mxCell id="Yp3YMdOh8-Mn880G9579-178" value="# initTable(): void&#xa;+ calculateSimilarity(String, String)Â &#xa;+ setSimilarity(SymbolAttribute, SymbolAttribute, double): boolean&#xa;+ setSimilarity(String, String, double): boolean&#xa;+ setSimilarity(String, String, Similarity): boolean&#xa;+ setSimilarity(Attribute, Attribute, Similarity): boolean&#xa;# addAttribute(SymbolAttribute): boolean&#xa;# removeAttribute(Integer): boolean&#xa;" style="text;strokeColor=none;fillColor=none;align=left;verticalAlign=top;spacingLeft=4;spacingRight=4;overflow=hidden;rotatable=0;points=[[0,0.5],[1,0.5]];portConstraint=eastwest;fontStyle=0" parent="Yp3YMdOh8-Mn880G9579-174" vertex="1">
          <mxGeometry y="160" width="360" height="130" as="geometry" />
        </mxCell>
        <mxCell id="Yp3YMdOh8-Mn880G9579-179" value="" style="endArrow=block;dashed=1;endFill=0;endSize=12;html=1;rounded=0;exitX=-0.002;exitY=0.654;exitDx=0;exitDy=0;exitPerimeter=0;entryX=1;entryY=0;entryDx=0;entryDy=0;" parent="1" source="Yp3YMdOh8-Mn880G9579-175" target="Yp3YMdOh8-Mn880G9579-141" edge="1">
          <mxGeometry width="160" relative="1" as="geometry">
            <mxPoint x="4174.67" y="-820.1599999999999" as="sourcePoint" />
            <mxPoint x="6150" y="-497" as="targetPoint" />
          </mxGeometry>
        </mxCell>
        <mxCell id="Yp3YMdOh8-Mn880G9579-180" value="OrderedSymbolFct" style="swimlane;fontStyle=1;align=center;verticalAlign=top;childLayout=stackLayout;horizontal=1;startSize=26;horizontalStack=0;resizeParent=1;resizeParentMax=0;resizeLast=0;collapsible=1;marginBottom=0;" parent="1" vertex="1">
          <mxGeometry x="6710" y="-820" width="280" height="330" as="geometry" />
        </mxCell>
        <mxCell id="Yp3YMdOh8-Mn880G9579-181" value="- order: HashMap&lt;SymbolAttribute, Integer&gt;&#xa;- internalFunction: IntegerFct&#xa;- internalDesc: IntegerDesc&#xa;- isCyclic: boolean&#xa;- highestOrder: int&#xa;- minOrder: int&#xa;- distanceLastFirst: int" style="text;strokeColor=none;fillColor=none;align=left;verticalAlign=top;spacingLeft=4;spacingRight=4;overflow=hidden;rotatable=0;points=[[0,0.5],[1,0.5]];portConstraint=eastwest;" parent="Yp3YMdOh8-Mn880G9579-180" vertex="1">
          <mxGeometry y="26" width="280" height="104" as="geometry" />
        </mxCell>
        <mxCell id="Yp3YMdOh8-Mn880G9579-182" value="" style="line;strokeWidth=1;fillColor=none;align=left;verticalAlign=middle;spacingTop=-1;spacingLeft=3;spacingRight=3;rotatable=0;labelPosition=right;points=[];portConstraint=eastwest;" parent="Yp3YMdOh8-Mn880G9579-180" vertex="1">
          <mxGeometry y="130" width="280" height="6" as="geometry" />
        </mxCell>
        <mxCell id="Yp3YMdOh8-Mn880G9579-183" value="+ OrderedSymbolFct(Project, SymbolDesc, String)" style="text;strokeColor=none;fillColor=none;align=left;verticalAlign=top;spacingLeft=4;spacingRight=4;overflow=hidden;rotatable=0;points=[[0,0.5],[1,0.5]];portConstraint=eastwest;fontStyle=0" parent="Yp3YMdOh8-Mn880G9579-180" vertex="1">
          <mxGeometry y="136" width="280" height="14" as="geometry" />
        </mxCell>
        <mxCell id="Yp3YMdOh8-Mn880G9579-184" value="+ updateTable(): void&#xa;- changeRage(int, int, boolean, int): void&#xa;+ getOrder(): HashMap&lt;SymbolAttribute, Integer&gt;&#xa;+ getInternalFunction(): IntegerFct&#xa;+ removeSymbol(SymbolAttribute): void&#xa;+ addSymbol(SymbolAttribute): void&#xa;+ setOrderIndexOf(SymbolAttribute, int): void&#xa;+ setOrderIndexOf(String, int): void&#xa;+ isCyclic(): boolean&#xa;+ setCyclic(boolean): voidÂ &#xa;+ setDistanceLastFirst(int): void&#xa;+ getDistanceLastFirst(): int" style="text;strokeColor=none;fillColor=none;align=left;verticalAlign=top;spacingLeft=4;spacingRight=4;overflow=hidden;rotatable=0;points=[[0,0.5],[1,0.5]];portConstraint=eastwest;fontStyle=0" parent="Yp3YMdOh8-Mn880G9579-180" vertex="1">
          <mxGeometry y="150" width="280" height="180" as="geometry" />
        </mxCell>
        <mxCell id="Yp3YMdOh8-Mn880G9579-185" value="Extends" style="endArrow=block;endSize=16;endFill=0;html=1;rounded=0;exitX=-0.002;exitY=0.939;exitDx=0;exitDy=0;exitPerimeter=0;entryX=1;entryY=0.961;entryDx=0;entryDy=0;entryPerimeter=0;" parent="1" source="Yp3YMdOh8-Mn880G9579-181" target="Yp3YMdOh8-Mn880G9579-175" edge="1">
          <mxGeometry width="160" relative="1" as="geometry">
            <mxPoint x="4995.5" y="-757.0858139534886" as="sourcePoint" />
            <mxPoint x="4744.500000000001" y="-762.923023255814" as="targetPoint" />
          </mxGeometry>
        </mxCell>
        <mxCell id="Yp3YMdOh8-Mn880G9579-192" value="SpecialFct" style="swimlane;fontStyle=1;align=center;verticalAlign=top;childLayout=stackLayout;horizontal=1;startSize=26;horizontalStack=0;resizeParent=1;resizeParentMax=0;resizeLast=0;collapsible=1;marginBottom=0;" parent="1" vertex="1">
          <mxGeometry x="6230" y="-480" width="360" height="70" as="geometry" />
        </mxCell>
        <mxCell id="Yp3YMdOh8-Mn880G9579-194" value="" style="line;strokeWidth=1;fillColor=none;align=left;verticalAlign=middle;spacingTop=-1;spacingLeft=3;spacingRight=3;rotatable=0;labelPosition=right;points=[];portConstraint=eastwest;" parent="Yp3YMdOh8-Mn880G9579-192" vertex="1">
          <mxGeometry y="26" width="360" height="6" as="geometry" />
        </mxCell>
        <mxCell id="Yp3YMdOh8-Mn880G9579-196" value="+ SpecialFct(Project, SpecialDesc, String)&#xa;+ calculateSimilarity(SpecialAttribute, SpecialAttribute): Similarity" style="text;strokeColor=none;fillColor=none;align=left;verticalAlign=top;spacingLeft=4;spacingRight=4;overflow=hidden;rotatable=0;points=[[0,0.5],[1,0.5]];portConstraint=eastwest;fontStyle=0" parent="Yp3YMdOh8-Mn880G9579-192" vertex="1">
          <mxGeometry y="32" width="360" height="38" as="geometry" />
        </mxCell>
        <mxCell id="Yp3YMdOh8-Mn880G9579-197" value="Extends" style="endArrow=block;endSize=16;endFill=0;html=1;rounded=0;exitX=0.479;exitY=0;exitDx=0;exitDy=0;exitPerimeter=0;entryX=0.479;entryY=1.007;entryDx=0;entryDy=0;entryPerimeter=0;" parent="1" source="Yp3YMdOh8-Mn880G9579-192" target="Yp3YMdOh8-Mn880G9579-178" edge="1">
          <mxGeometry width="160" relative="1" as="geometry">
            <mxPoint x="4873.219999999999" y="-370.004" as="sourcePoint" />
            <mxPoint x="4776.78" y="-367.32600000000014" as="targetPoint" />
          </mxGeometry>
        </mxCell>
        <mxCell id="Yp3YMdOh8-Mn880G9579-198" value="StringFct" style="swimlane;fontStyle=1;align=center;verticalAlign=top;childLayout=stackLayout;horizontal=1;startSize=26;horizontalStack=0;resizeParent=1;resizeParentMax=0;resizeLast=0;collapsible=1;marginBottom=0;" parent="1" vertex="1">
          <mxGeometry x="5560" y="-1150" width="290" height="360" as="geometry" />
        </mxCell>
        <mxCell id="Yp3YMdOh8-Mn880G9579-199" value="- desc: StringDesc&#xa;- config: StringConfig&#xa;- n: int&#xa;- levenshteinDelCost: int&#xa;- levenshteinAddCost: int&#xa;- levenshteinChangeCost: int&#xa;- caseSenstive: boolean&#xa;- name: String&#xa;- prj: Project&#xa;- mc: MultipleConfig" style="text;strokeColor=none;fillColor=none;align=left;verticalAlign=top;spacingLeft=4;spacingRight=4;overflow=hidden;rotatable=0;points=[[0,0.5],[1,0.5]];portConstraint=eastwest;" parent="Yp3YMdOh8-Mn880G9579-198" vertex="1">
          <mxGeometry y="26" width="290" height="154" as="geometry" />
        </mxCell>
        <mxCell id="Yp3YMdOh8-Mn880G9579-200" value="" style="line;strokeWidth=1;fillColor=none;align=left;verticalAlign=middle;spacingTop=-1;spacingLeft=3;spacingRight=3;rotatable=0;labelPosition=right;points=[];portConstraint=eastwest;" parent="Yp3YMdOh8-Mn880G9579-198" vertex="1">
          <mxGeometry y="180" width="290" height="6" as="geometry" />
        </mxCell>
        <mxCell id="Yp3YMdOh8-Mn880G9579-201" value="+ StringFct(Project, StringConfig, StringDesc, Strinc)&#xa;+ getLevenshteinDelCost(): int&#xa;+ setLevenshteinDelCost(int): void&#xa;+ getLevenshteinAddCost(): int&#xa;+ setLevenshteinAddCost(int): void&#xa;+ getLevenstheinChangeCost(): int&#xa;+ setLevenstheinChangeCost(int): void&#xa;+ getConfig(): StringConfig&#xa;+ getN(): int&#xa;+ setN(int): void&#xa;+ isCaseSensitive(): boolean&#xa;+ setCaseSensitive(boolean): void&#xa;+Â " style="text;strokeColor=none;fillColor=none;align=left;verticalAlign=top;spacingLeft=4;spacingRight=4;overflow=hidden;rotatable=0;points=[[0,0.5],[1,0.5]];portConstraint=eastwest;fontStyle=0" parent="Yp3YMdOh8-Mn880G9579-198" vertex="1">
          <mxGeometry y="186" width="290" height="174" as="geometry" />
        </mxCell>
        <mxCell id="Yp3YMdOh8-Mn880G9579-203" value="Similarity" style="swimlane;fontStyle=1;align=center;verticalAlign=top;childLayout=stackLayout;horizontal=1;startSize=26;horizontalStack=0;resizeParent=1;resizeParentMax=0;resizeLast=0;collapsible=1;marginBottom=0;" parent="1" vertex="1">
          <mxGeometry x="5230" y="-960" width="280" height="220" as="geometry" />
        </mxCell>
        <mxCell id="Yp3YMdOh8-Mn880G9579-191" value="- value: double&#xa;- roundedValue: double&#xa;- sims: HashMap&lt;Double, Similarity&gt;&#xa;" style="text;strokeColor=none;fillColor=none;align=left;verticalAlign=top;spacingLeft=4;spacingRight=4;overflow=hidden;rotatable=0;points=[[0,0.5],[1,0.5]];portConstraint=eastwest;" parent="Yp3YMdOh8-Mn880G9579-203" vertex="1">
          <mxGeometry y="26" width="280" height="54" as="geometry" />
        </mxCell>
        <mxCell id="Yp3YMdOh8-Mn880G9579-187" value="+ INVALID_SIM: Similarity = -1.00" style="text;strokeColor=none;fillColor=none;align=left;verticalAlign=top;spacingLeft=4;spacingRight=4;overflow=hidden;rotatable=0;points=[[0,0.5],[1,0.5]];portConstraint=eastwest;fontStyle=4" parent="Yp3YMdOh8-Mn880G9579-203" vertex="1">
          <mxGeometry y="80" width="280" height="20" as="geometry" />
        </mxCell>
        <mxCell id="Yp3YMdOh8-Mn880G9579-205" value="" style="line;strokeWidth=1;fillColor=none;align=left;verticalAlign=middle;spacingTop=-1;spacingLeft=3;spacingRight=3;rotatable=0;labelPosition=right;points=[];portConstraint=eastwest;" parent="Yp3YMdOh8-Mn880G9579-203" vertex="1">
          <mxGeometry y="100" width="280" height="6" as="geometry" />
        </mxCell>
        <mxCell id="Yp3YMdOh8-Mn880G9579-189" value="- Similarity(double)" style="text;strokeColor=none;fillColor=none;align=left;verticalAlign=top;spacingLeft=4;spacingRight=4;overflow=hidden;rotatable=0;points=[[0,0.5],[1,0.5]];portConstraint=eastwest;fontStyle=0" parent="Yp3YMdOh8-Mn880G9579-203" vertex="1">
          <mxGeometry y="106" width="280" height="24" as="geometry" />
        </mxCell>
        <mxCell id="Yp3YMdOh8-Mn880G9579-190" value="+ getDouble(): Similarity&#xa;- updateRoundedValue(): void&#xa;+ getRoundedValue(): double&#xa;+ getValue(): double&#xa;+ toString(): String&#xa;+ equals(Similarity): boolean" style="text;strokeColor=none;fillColor=none;align=left;verticalAlign=top;spacingLeft=4;spacingRight=4;overflow=hidden;rotatable=0;points=[[0,0.5],[1,0.5]];portConstraint=eastwest;fontStyle=0" parent="Yp3YMdOh8-Mn880G9579-203" vertex="1">
          <mxGeometry y="130" width="280" height="90" as="geometry" />
        </mxCell>
        <mxCell id="Yp3YMdOh8-Mn880G9579-208" value="" style="endArrow=block;dashed=1;endFill=0;endSize=12;html=1;rounded=0;entryX=0.464;entryY=0;entryDx=0;entryDy=0;entryPerimeter=0;" parent="1" source="Yp3YMdOh8-Mn880G9579-201" target="Yp3YMdOh8-Mn880G9579-141" edge="1">
          <mxGeometry width="160" relative="1" as="geometry">
            <mxPoint x="5954.867605633803" y="-700" as="sourcePoint" />
            <mxPoint x="6010" y="-674.6" as="targetPoint" />
          </mxGeometry>
        </mxCell>
        <mxCell id="Yp3YMdOh8-Mn880G9579-209" value="Extends" style="endArrow=block;endSize=16;endFill=0;html=1;rounded=0;entryX=0.998;entryY=0.272;entryDx=0;entryDy=0;entryPerimeter=0;" parent="1" source="Yp3YMdOh8-Mn880G9579-199" target="Yp3YMdOh8-Mn880G9579-109" edge="1">
          <mxGeometry width="160" relative="1" as="geometry">
            <mxPoint x="5117.799999999999" y="-1453.33" as="sourcePoint" />
            <mxPoint x="4650.750000000001" y="-1000.1979999999999" as="targetPoint" />
          </mxGeometry>
        </mxCell>
        <mxCell id="Yp3YMdOh8-Mn880G9579-210" value="Taxonomy" style="swimlane;fontStyle=1;align=center;verticalAlign=top;childLayout=stackLayout;horizontal=1;startSize=26;horizontalStack=0;resizeParent=1;resizeParentMax=0;resizeLast=0;collapsible=1;marginBottom=0;" parent="1" vertex="1">
          <mxGeometry x="5990" y="-1280" width="410" height="390" as="geometry" />
        </mxCell>
        <mxCell id="Yp3YMdOh8-Mn880G9579-211" value="- topSymbol: TaxonomyNode&#xa;- topSimilarity: Similarity&#xa;- sims: HashMap&lt;TaxonomyNode, Similarity&gt;&#xa;- parents: HashMap&lt;TaxonomyNode, Similarity&gt;&#xa;- leaves: List&lt;TaxonomyNode&gt;&#xa;" style="text;strokeColor=none;fillColor=none;align=left;verticalAlign=top;spacingLeft=4;spacingRight=4;overflow=hidden;rotatable=0;points=[[0,0.5],[1,0.5]];portConstraint=eastwest;" parent="Yp3YMdOh8-Mn880G9579-210" vertex="1">
          <mxGeometry y="26" width="410" height="84" as="geometry" />
        </mxCell>
        <mxCell id="Yp3YMdOh8-Mn880G9579-212" value="" style="line;strokeWidth=1;fillColor=none;align=left;verticalAlign=middle;spacingTop=-1;spacingLeft=3;spacingRight=3;rotatable=0;labelPosition=right;points=[];portConstraint=eastwest;" parent="Yp3YMdOh8-Mn880G9579-210" vertex="1">
          <mxGeometry y="110" width="410" height="6" as="geometry" />
        </mxCell>
        <mxCell id="Yp3YMdOh8-Mn880G9579-213" value="# Taxonomy(TaxonomyNode)" style="text;strokeColor=none;fillColor=none;align=left;verticalAlign=top;spacingLeft=4;spacingRight=4;overflow=hidden;rotatable=0;points=[[0,0.5],[1,0.5]];portConstraint=eastwest;fontStyle=0" parent="Yp3YMdOh8-Mn880G9579-210" vertex="1">
          <mxGeometry y="116" width="410" height="24" as="geometry" />
        </mxCell>
        <mxCell id="Yp3YMdOh8-Mn880G9579-214" value="# containsAsSubnode(TaxonomyNode, TaxonomyNode): boolean&#xa;# setParent(TaxonomyNode, TaxonomyNode): void&#xa;# getCommonAncestor(TaxonomyNode, TaxonomyNode): TaxonomyNode&#xa;- getParentsOf(TaxonomyNode, Vector&lt;TaxonomyNide&gt;): void&#xa;# isLeaf(TaxonomyNode): boolean&#xa;+ getSimilarity(TaxonomyNode): Similarity&#xa;# getLeaves(TaxonomyNode): List&lt;TaxonomyNode&gt;&#xa;# countLeaves(TaxonomyNode): int&#xa;+ getTopSymbol(): TaxonomyNode&#xa;# setSimilarity(TaxonomyNode, Similarity): void&#xa;+ getParent(TaxonomyNode): TaxonomyNode&#xa;+ getChildren(TaxonomyNode): List&lt;TaxonomyNode&gt;&#xa;+ getSimilarityMap(): HashMap&lt;TaxonomyNode, TaxonomyNode&gt;&#xa;+ getParentMap(): HashMap&lt;TaxonomyNode, TaxonomyNode&gt;&#xa;+ getLeaves(): List&lt;TaxonomyNode&gt;&#xa;- removeAttribute(TaxonomyNode): void&#xa;- addAttribute(TaxonomyNode): void" style="text;strokeColor=none;fillColor=none;align=left;verticalAlign=top;spacingLeft=4;spacingRight=4;overflow=hidden;rotatable=0;points=[[0,0.5],[1,0.5]];portConstraint=eastwest;fontStyle=0" parent="Yp3YMdOh8-Mn880G9579-210" vertex="1">
          <mxGeometry y="140" width="410" height="250" as="geometry" />
        </mxCell>
        <mxCell id="Yp3YMdOh8-Mn880G9579-215" value="TaxonomyFct" style="swimlane;fontStyle=1;align=center;verticalAlign=top;childLayout=stackLayout;horizontal=1;startSize=26;horizontalStack=0;resizeParent=1;resizeParentMax=0;resizeLast=0;collapsible=1;marginBottom=0;" parent="1" vertex="1">
          <mxGeometry x="6460" y="-1280" width="490" height="370" as="geometry" />
        </mxCell>
        <mxCell id="Yp3YMdOh8-Mn880G9579-216" value="- queryConfig: TaxonomyConfig&#xa;- caseConfig: TaxonomyConfig&#xa;- taxonomy: Taxonomy&#xa;- prj: Project" style="text;strokeColor=none;fillColor=none;align=left;verticalAlign=top;spacingLeft=4;spacingRight=4;overflow=hidden;rotatable=0;points=[[0,0.5],[1,0.5]];portConstraint=eastwest;" parent="Yp3YMdOh8-Mn880G9579-215" vertex="1">
          <mxGeometry y="26" width="490" height="64" as="geometry" />
        </mxCell>
        <mxCell id="Yp3YMdOh8-Mn880G9579-217" value="" style="line;strokeWidth=1;fillColor=none;align=left;verticalAlign=middle;spacingTop=-1;spacingLeft=3;spacingRight=3;rotatable=0;labelPosition=right;points=[];portConstraint=eastwest;" parent="Yp3YMdOh8-Mn880G9579-215" vertex="1">
          <mxGeometry y="90" width="490" height="6" as="geometry" />
        </mxCell>
        <mxCell id="Yp3YMdOh8-Mn880G9579-218" value="+ TaxonomyFct(Project, SymbolDesc, List&lt;SymbolAttribute&gt;, String)" style="text;strokeColor=none;fillColor=none;align=left;verticalAlign=top;spacingLeft=4;spacingRight=4;overflow=hidden;rotatable=0;points=[[0,0.5],[1,0.5]];portConstraint=eastwest;fontStyle=0" parent="Yp3YMdOh8-Mn880G9579-215" vertex="1">
          <mxGeometry y="96" width="490" height="24" as="geometry" />
        </mxCell>
        <mxCell id="Yp3YMdOh8-Mn880G9579-219" value="+ updateTable(): void&#xa;- computeSimilarityByTaxonomy(TaxonomyNode, TaxonomyNode): Similarity&#xa;- getSimilarityForInnerNode(SymbolAttribute, SymbolAttribute, TaonomyConfig): Similarity&#xa;+ setNodeSimilarity(TaxonomyNode, Similarity): void&#xa;+ getTaxonomy(): Taxonomy&#xa;+ setQueryConfig(TaxonomyConfig): void&#xa;+ getQueryConfig(): TaxonomyConfig&#xa;+ setCaseConfig(TaxonomyConfig): void&#xa;+ getCaseConfig(): TaxonomyConfig&#xa;+ setParent(TaxonomyNode, TaxonomyNode): void&#xa;+ getCommonAncestor(SymbolAttribute, SymbolAttribute): Object&#xa;# updateSimilarity(SymbolAttribute, Similarity): void&#xa;# updateSimilarity(SymbolDesc, Similarity): void&#xa;+ getParent(TaxonomyNode): Object&#xa;+ getTopSymbol(): TaxonomyNode&#xa;+ getSimilarity(TaxonomyNode): Similarity&#xa;+ entrySet(): Collection&lt;Entry&lt;TaxonomyNode, TaxonomyNode&gt;&gt;" style="text;strokeColor=none;fillColor=none;align=left;verticalAlign=top;spacingLeft=4;spacingRight=4;overflow=hidden;rotatable=0;points=[[0,0.5],[1,0.5]];portConstraint=eastwest;fontStyle=0" parent="Yp3YMdOh8-Mn880G9579-215" vertex="1">
          <mxGeometry y="120" width="490" height="250" as="geometry" />
        </mxCell>
        <mxCell id="Yp3YMdOh8-Mn880G9579-220" value="Extends" style="endArrow=block;endSize=16;endFill=0;html=1;rounded=0;exitX=0.173;exitY=1.008;exitDx=0;exitDy=0;exitPerimeter=0;entryX=0.807;entryY=0.005;entryDx=0;entryDy=0;entryPerimeter=0;" parent="1" source="Yp3YMdOh8-Mn880G9579-219" target="Yp3YMdOh8-Mn880G9579-174" edge="1">
          <mxGeometry width="160" relative="1" as="geometry">
            <mxPoint x="6659.4400000000005" y="-862.6740000000001" as="sourcePoint" />
            <mxPoint x="6540" y="-869.9960000000002" as="targetPoint" />
          </mxGeometry>
        </mxCell>
        <mxCell id="Zt8ITWkyCNrxcCpvS0CE-6" value="de.dfki.mycbr.core.casebase" style="shape=folder;fontStyle=1;spacingTop=-7;tabWidth=180;tabHeight=14;tabPosition=left;html=1;verticalAlign=top;align=left;horizontal=1;labelPosition=center;verticalLabelPosition=middle;" vertex="1" parent="1">
          <mxGeometry x="4590" y="30" width="2683" height="1190" as="geometry" />
        </mxCell>
        <mxCell id="Zt8ITWkyCNrxcCpvS0CE-7" value="Retrieval" style="swimlane;fontStyle=1;align=center;verticalAlign=top;childLayout=stackLayout;horizontal=1;startSize=26;horizontalStack=0;resizeParent=1;resizeParentMax=0;resizeLast=0;collapsible=1;marginBottom=0;" vertex="1" parent="1">
          <mxGeometry x="4690" y="190" width="350" height="470" as="geometry" />
        </mxCell>
        <mxCell id="Zt8ITWkyCNrxcCpvS0CE-8" value="- LOGGER: Logger = LogManager.getLogger(Retrieval.class)&#xa;- serialVersionID: long" style="text;strokeColor=none;fillColor=none;align=left;verticalAlign=top;spacingLeft=4;spacingRight=4;overflow=hidden;rotatable=0;points=[[0,0.5],[1,0.5]];portConstraint=eastwest;fontStyle=4" vertex="1" parent="Zt8ITWkyCNrxcCpvS0CE-7">
          <mxGeometry y="26" width="350" height="34" as="geometry" />
        </mxCell>
        <mxCell id="Zt8ITWkyCNrxcCpvS0CE-12" value="# retrievalMethod: RetrievalMethod&#xa;- query: Instance&#xa;- re: RetrievalEngine&#xa;- p: Project&#xa;- cb: ICaseBase&#xa;- k: int&#xa;- finished: boolean" style="text;strokeColor=none;fillColor=none;align=left;verticalAlign=top;spacingLeft=4;spacingRight=4;overflow=hidden;rotatable=0;points=[[0,0.5],[1,0.5]];portConstraint=eastwest;" vertex="1" parent="Zt8ITWkyCNrxcCpvS0CE-7">
          <mxGeometry y="60" width="350" height="120" as="geometry" />
        </mxCell>
        <mxCell id="Zt8ITWkyCNrxcCpvS0CE-9" value="" style="line;strokeWidth=1;fillColor=none;align=left;verticalAlign=middle;spacingTop=-1;spacingLeft=3;spacingRight=3;rotatable=0;labelPosition=right;points=[];portConstraint=eastwest;" vertex="1" parent="Zt8ITWkyCNrxcCpvS0CE-7">
          <mxGeometry y="180" width="350" height="6" as="geometry" />
        </mxCell>
        <mxCell id="Zt8ITWkyCNrxcCpvS0CE-10" value="+ Retrieval(Concept, ICaseBase)&#xa;+ Retrieval(Concept, ICaseBase, RetrievalEngine)" style="text;strokeColor=none;fillColor=none;align=left;verticalAlign=top;spacingLeft=4;spacingRight=4;overflow=hidden;rotatable=0;points=[[0,0.5],[1,0.5]];portConstraint=eastwest;fontStyle=0" vertex="1" parent="Zt8ITWkyCNrxcCpvS0CE-7">
          <mxGeometry y="186" width="350" height="34" as="geometry" />
        </mxCell>
        <mxCell id="Zt8ITWkyCNrxcCpvS0CE-11" value="+ start(): void&#xa;+ setRetrievalEngine(RetrievalEngine): void&#xa;+ getRetrievalEngine(): RetrievalEngine&#xa;+ setCaseBase(ICaseBase): void&#xa;+ getCaseBase(): ICaseBase&#xa;+ getQueryInstance(): Instance&#xa;+ resetQuery(): Instance&#xa;+ setK(int): void&#xa;+ getK(): int&#xa;+ setRetrievalMethod(RetrievalMethod): void&#xa;+ isFinished(): boolean&#xa;+ getRetrievalMethod(): RetrievalMethod&#xa;+ run(): void&#xa;+ getResult(): List&lt;Pair&lt;Instance, Similarity&gt;&gt;&#xa;ENUM RetrievalMethodÂ &#xa;Â  Â = {RETRIEVE, RETRIEVE_SORTED, RETRIEVE_K,Â &#xa;Â  Â  Â  Â RETRIEVE_K_SORTED}" style="text;strokeColor=none;fillColor=none;align=left;verticalAlign=top;spacingLeft=4;spacingRight=4;overflow=hidden;rotatable=0;points=[[0,0.5],[1,0.5]];portConstraint=eastwest;fontStyle=0" vertex="1" parent="Zt8ITWkyCNrxcCpvS0CE-7">
          <mxGeometry y="220" width="350" height="250" as="geometry" />
        </mxCell>
        <mxCell id="Zt8ITWkyCNrxcCpvS0CE-13" value="RetrievalEngine" style="swimlane;fontStyle=1;align=center;verticalAlign=top;childLayout=stackLayout;horizontal=1;startSize=26;horizontalStack=0;resizeParent=1;resizeParentMax=0;resizeLast=0;collapsible=1;marginBottom=0;" vertex="1" parent="1">
          <mxGeometry x="5190" y="190" width="420" height="150" as="geometry" />
        </mxCell>
        <mxCell id="Zt8ITWkyCNrxcCpvS0CE-15" value="# currentCase: Instance" style="text;strokeColor=none;fillColor=none;align=left;verticalAlign=top;spacingLeft=4;spacingRight=4;overflow=hidden;rotatable=0;points=[[0,0.5],[1,0.5]];portConstraint=eastwest;" vertex="1" parent="Zt8ITWkyCNrxcCpvS0CE-13">
          <mxGeometry y="26" width="420" height="24" as="geometry" />
        </mxCell>
        <mxCell id="Zt8ITWkyCNrxcCpvS0CE-16" value="" style="line;strokeWidth=1;fillColor=none;align=left;verticalAlign=middle;spacingTop=-1;spacingLeft=3;spacingRight=3;rotatable=0;labelPosition=right;points=[];portConstraint=eastwest;" vertex="1" parent="Zt8ITWkyCNrxcCpvS0CE-13">
          <mxGeometry y="50" width="420" height="6" as="geometry" />
        </mxCell>
        <mxCell id="Zt8ITWkyCNrxcCpvS0CE-18" value="+ retrieve(ICaseBase, Instance): List&lt;Pair&lt;Instance, Similarity&gt;&gt;&#xa;+ retrieveSorted(ICaseBase, Instance): List&lt;Pair&lt;Instance, Similarity&gt;&gt;&#xa;+ retrieveK(ICaseBase, Instance, int): List&lt;Pair&lt;Instance, Similarity&gt;&gt;&#xa;+ retrieveKSorted(ICaseBase, Instance, int): List&lt;Pair&lt;Instance, Similarity&gt;&gt;&#xa;+ setCurrentCase(Instance): void&#xa;+ getCurrentCase(): Instance" style="text;strokeColor=none;fillColor=none;align=left;verticalAlign=top;spacingLeft=4;spacingRight=4;overflow=hidden;rotatable=0;points=[[0,0.5],[1,0.5]];portConstraint=eastwest;fontStyle=0" vertex="1" parent="Zt8ITWkyCNrxcCpvS0CE-13">
          <mxGeometry y="56" width="420" height="94" as="geometry" />
        </mxCell>
        <mxCell id="Zt8ITWkyCNrxcCpvS0CE-19" value="RetrievalEngine" style="swimlane;fontStyle=1;align=center;verticalAlign=top;childLayout=stackLayout;horizontal=1;startSize=26;horizontalStack=0;resizeParent=1;resizeParentMax=0;resizeLast=0;collapsible=1;marginBottom=0;" vertex="1" parent="1">
          <mxGeometry x="5190" y="400" width="430" height="140" as="geometry" />
        </mxCell>
        <mxCell id="Zt8ITWkyCNrxcCpvS0CE-20" value="- prj: Project&#xa;- retrieval: Retrieval" style="text;strokeColor=none;fillColor=none;align=left;verticalAlign=top;spacingLeft=4;spacingRight=4;overflow=hidden;rotatable=0;points=[[0,0.5],[1,0.5]];portConstraint=eastwest;" vertex="1" parent="Zt8ITWkyCNrxcCpvS0CE-19">
          <mxGeometry y="26" width="430" height="34" as="geometry" />
        </mxCell>
        <mxCell id="Zt8ITWkyCNrxcCpvS0CE-21" value="" style="line;strokeWidth=1;fillColor=none;align=left;verticalAlign=middle;spacingTop=-1;spacingLeft=3;spacingRight=3;rotatable=0;labelPosition=right;points=[];portConstraint=eastwest;" vertex="1" parent="Zt8ITWkyCNrxcCpvS0CE-19">
          <mxGeometry y="60" width="430" height="6" as="geometry" />
        </mxCell>
        <mxCell id="Zt8ITWkyCNrxcCpvS0CE-22" value="+ SequentialRetrieval(Project, Retrieval)&#xa;- calculateLocalSim(SymbolAttribute, Instance, Instance): Similarity&#xa;- addSorted(List&lt;Pair&lt;Instance, Similarity&gt;&gt;, Pair &lt;Instance, Similarity&gt;): void" style="text;strokeColor=none;fillColor=none;align=left;verticalAlign=top;spacingLeft=4;spacingRight=4;overflow=hidden;rotatable=0;points=[[0,0.5],[1,0.5]];portConstraint=eastwest;fontStyle=0" vertex="1" parent="Zt8ITWkyCNrxcCpvS0CE-19">
          <mxGeometry y="66" width="430" height="74" as="geometry" />
        </mxCell>
        <mxCell id="Zt8ITWkyCNrxcCpvS0CE-23" value="Extends" style="endArrow=block;endSize=16;endFill=0;html=1;rounded=0;entryX=0.5;entryY=0;entryDx=0;entryDy=0;" edge="1" parent="1" source="Zt8ITWkyCNrxcCpvS0CE-18" target="Zt8ITWkyCNrxcCpvS0CE-19">
          <mxGeometry width="160" relative="1" as="geometry">
            <mxPoint x="5140" y="390" as="sourcePoint" />
            <mxPoint x="5300" y="390" as="targetPoint" />
          </mxGeometry>
        </mxCell>
      </root>
    </mxGraphModel>
  </diagram>
</mxfile>
